<svg xmlns="http://www.w3.org/2000/svg" viewBox="0 0 396.7 294.37"><defs><style>.cls-1{fill:#229dc3;}.cls-2{fill:#b0c0e3;}.cls-3{fill:#162f4c;}.cls-4{fill:#1b7996;}.cls-5{fill:#254790;}.cls-6{fill:#febf50;}.cls-7{fill:#f99e1c;}.cls-8{fill:#ffecdb;}.cls-9{fill:#e07585;}.cls-10{fill:#ebc09d;}.cls-11{fill:#fedcbb;}.cls-12,.cls-13{fill:#ed7e23;}.cls-12{opacity:0.5;}</style></defs><title>akunting</title><g id="Layer_2" data-name="Layer 2"><path class="cls-1" d="M258.42,456.05,68.89,454.62c-8.45-.07-15.26-8.44-15.21-18.7l1.24-242c0-10.26,6.95-18.53,15.39-18.46l189.54,1.43c8.44.06,15.25,8.43,15.2,18.7l-1.24,242C273.76,447.84,266.87,456.11,258.42,456.05Z" transform="translate(-53.68 -161.67)"/><path class="cls-2" d="M255.55,240.25,74,238.88c-3.72,0-6.71-3.71-6.69-8.23l.14-28c0-4.52,3.06-8.15,6.77-8.13l181.58,1.38c3.72,0,6.71,3.71,6.69,8.22l-.15,28C262.29,236.64,259.26,240.28,255.55,240.25Z" transform="translate(-53.68 -161.67)"/><path class="cls-3" d="M134.72,348.1,119.17,348c-3.88,0-7-3.88-7-8.6l.1-18.88c0-4.72,3.19-8.52,7.07-8.49l15.55.12c3.88,0,7,3.88,7,8.59l-.1,18.89C141.77,344.33,138.6,348.13,134.72,348.1Z" transform="translate(-53.68 -161.67)"/><path class="cls-3" d="M134.49,392.24l-15.55-.11c-3.88,0-7-3.88-7-8.6l.1-18.89c0-4.72,3.19-8.52,7.08-8.49l15.54.12c3.89,0,7,3.88,7,8.6l-.09,18.88C141.54,388.47,138.37,392.27,134.49,392.24Z" transform="translate(-53.68 -161.67)"/><path class="cls-3" d="M134.26,436.39l-15.54-.12c-3.89,0-7-3.88-7-8.6l.09-18.88c0-4.72,3.2-8.52,7.08-8.49l15.55.11c3.88,0,7,3.88,7,8.6l-.1,18.89C141.32,432.61,138.15,436.42,134.26,436.39Z" transform="translate(-53.68 -161.67)"/><path class="cls-3" d="M173.85,348.39l-15.55-.11c-3.88,0-7-3.88-7-8.6l.1-18.88c0-4.72,3.19-8.52,7.08-8.5l15.54.12c3.89,0,7,3.88,7,8.6l-.09,18.88C180.9,344.62,177.73,348.42,173.85,348.39Z" transform="translate(-53.68 -161.67)"/><path class="cls-3" d="M173.62,392.54l-15.54-.12c-3.89,0-7-3.88-7-8.6l.09-18.88c0-4.72,3.2-8.52,7.08-8.49l15.55.12c3.88,0,7,3.87,7,8.59l-.1,18.89C180.68,388.77,177.51,392.57,173.62,392.54Z" transform="translate(-53.68 -161.67)"/><path class="cls-3" d="M173.4,436.68l-15.55-.12c-3.88,0-7-3.87-7-8.59l.1-18.89c0-4.72,3.19-8.52,7.08-8.49l15.54.12c3.89,0,7,3.88,7,8.6l-.1,18.88C180.45,432.91,177.28,436.71,173.4,436.68Z" transform="translate(-53.68 -161.67)"/><path class="cls-3" d="M211.36,392.82l-15.55-.11c-3.88,0-7-3.88-7-8.6l.1-18.89c0-4.71,3.19-8.52,7.08-8.49l15.54.12c3.89,0,7,3.88,7,8.6l-.09,18.88C218.41,389.05,215.24,392.85,211.36,392.82Z" transform="translate(-53.68 -161.67)"/><path class="cls-3" d="M211.13,437l-15.54-.12c-3.89,0-7-3.88-7-8.6l.09-18.88c0-4.72,3.2-8.52,7.08-8.49l15.55.11c3.88,0,7,3.88,7,8.6l-.1,18.89C218.19,433.2,215,437,211.13,437Z" transform="translate(-53.68 -161.67)"/><path class="cls-4" d="M97.59,296l-15.54-.12c-3.89,0-7-3.88-7-8.6l.06-11.2c0-4.72,3.19-8.52,7.07-8.49l15.55.12c3.88,0,7,3.88,7,8.6l-.06,11.2C104.65,292.22,101.48,296,97.59,296Z" transform="translate(-53.68 -161.67)"/><path class="cls-4" d="M97.36,342.27l-15.55-.11c-3.88,0-7-3.88-7-8.6l.06-11.2c0-4.72,3.19-8.52,7.08-8.49L97.5,314c3.89,0,7,3.87,7,8.59l-.06,11.2C104.41,338.5,101.24,342.3,97.36,342.27Z" transform="translate(-53.68 -161.67)"/><path class="cls-4" d="M97.12,388.56l-15.55-.12c-3.88,0-7-3.88-7-8.59l.06-11.2c0-4.72,3.19-8.53,7.08-8.5l15.54.12c3.89,0,7,3.88,7,8.6l0,11.2C104.17,384.79,101,388.59,97.12,388.56Z" transform="translate(-53.68 -161.67)"/><path class="cls-4" d="M96.88,434.85l-15.54-.12c-3.89,0-7-3.88-7-8.6l.06-11.2c0-4.72,3.19-8.52,7.07-8.49l15.55.12c3.88,0,7,3.88,7,8.59l-.06,11.2C103.94,431.07,100.77,434.87,96.88,434.85Z" transform="translate(-53.68 -161.67)"/><path class="cls-4" d="M134.94,304l-15.54-.12c-3.89,0-7-3.88-7-8.6l.09-18.88c0-4.72,3.2-8.52,7.08-8.49l15.55.11c3.88,0,7,3.88,7,8.6L142,295.46C142,300.18,138.83,304,134.94,304Z" transform="translate(-53.68 -161.67)"/><path class="cls-4" d="M174.07,304.25l-15.54-.12c-3.89,0-7-3.87-7-8.59l.1-18.89c0-4.72,3.19-8.52,7.07-8.49l15.55.12c3.88,0,7,3.88,7,8.6l-.1,18.88C181.13,300.48,178,304.28,174.07,304.25Z" transform="translate(-53.68 -161.67)"/><path class="cls-4" d="M211.81,304.54l-15.54-.12c-3.89,0-7-3.88-7-8.6l.09-18.88c0-4.72,3.19-8.52,7.08-8.49l15.54.11c3.89,0,7,3.88,7,8.6L218.89,296C218.86,300.76,215.7,304.57,211.81,304.54Z" transform="translate(-53.68 -161.67)"/><path class="cls-4" d="M247.05,349.16,231.5,349c-3.88,0-7-3.88-7-8.59l.1-18.89c0-4.72,3.19-8.52,7.08-8.49l15.54.12c3.89,0,7,3.88,7,8.59l-.09,18.89C254.1,345.39,250.93,349.19,247.05,349.16Z" transform="translate(-53.68 -161.67)"/><path class="cls-4" d="M247.27,305l-15.54-.12c-3.89,0-7-3.88-7-8.6l.1-18.88c0-4.72,3.19-8.52,7.07-8.49l15.55.11c3.88,0,7,3.88,7,8.6l-.1,18.89C254.33,301.24,251.16,305.05,247.27,305Z" transform="translate(-53.68 -161.67)"/><path class="cls-4" d="M246.6,437.45l-15.55-.12c-3.88,0-7-3.88-7-8.6l.32-63c0-4.71,3.2-8.52,7.08-8.49l15.55.12c3.88,0,7,3.88,7,8.6l-.33,63C253.65,433.68,250.48,437.48,246.6,437.45Z" transform="translate(-53.68 -161.67)"/><path class="cls-5" d="M131,216.77l0-6.05.72-2.3a1.72,1.72,0,0,1,1.18,1.45l0,8.07-.48.57Zm1.41,2.32.47.58,0,8.06a1.72,1.72,0,0,1-1.19,1.44l-.7-2.31,0-6.05Z" transform="translate(-53.68 -161.67)"/><path class="cls-5" d="M139.31,211.36l0,5.48-1.43,1.71-.48-.58,0-7.49Zm-2,15.83,0-7.49.47-.57,1.42,1.74,0,5.47Zm8.29,2.08-7.12-.05a1.74,1.74,0,0,1-1.18-1.45l1.91-.85,5.69,0ZM145,210.83l-5.67,0-1.89-.88a1.7,1.7,0,0,1,1.19-1.43l7.09.05Zm.44,6,0-6,.73-2.3a1.74,1.74,0,0,1,1.18,1.45l0,8.07-.47.57Zm1.41,2.32.48.58-.05,8.06a1.72,1.72,0,0,1-1.19,1.44l-.7-2.31,0-6.05Z" transform="translate(-53.68 -161.67)"/><path class="cls-5" d="M153.77,211.47l0,5.48-1.43,1.71-.47-.58,0-7.49Zm-2,15.83,0-7.49.48-.57,1.41,1.74,0,5.47Zm8.29,2.08-7.11,0a1.72,1.72,0,0,1-1.18-1.45l1.9-.85,5.69,0Zm-.61-18.44-5.67,0-1.9-.88a1.71,1.71,0,0,1,1.2-1.43l7.09,0Zm.44,6.05,0-6.05.72-2.3a1.72,1.72,0,0,1,1.18,1.45l0,8.07-.48.57Zm1.41,2.32.47.58,0,8.06a1.7,1.7,0,0,1-1.19,1.43l-.7-2.31,0-6Z" transform="translate(-53.68 -161.67)"/><path class="cls-5" d="M168.24,211.58l0,5.47-1.43,1.72-.47-.58,0-7.49Zm-2,15.83,0-7.49.47-.57,1.42,1.74,0,5.47Zm8.29,2.08-7.12-.05a1.71,1.71,0,0,1-1.17-1.45l1.9-.85,5.69,0Zm-.62-18.44-5.67-.05-1.89-.87a1.7,1.7,0,0,1,1.19-1.43l7.09.05Zm.44,6,0-6,.72-2.3a1.74,1.74,0,0,1,1.18,1.45l0,8.07-.48.57Zm1.42,2.32.47.58,0,8.06a1.71,1.71,0,0,1-1.2,1.43l-.7-2.31,0-6.05Z" transform="translate(-53.68 -161.67)"/><path class="cls-5" d="M182.7,211.69l0,5.47-1.44,1.72-.47-.58,0-7.49Zm-2,15.83,0-7.49.48-.57,1.41,1.74,0,5.47ZM189,229.6l-7.11,0a1.74,1.74,0,0,1-1.18-1.45l1.9-.85,5.7,0Zm-.61-18.44-5.67,0-1.89-.87A1.72,1.72,0,0,1,182,208.8l7.09.06Zm.44,6.05,0-6.05.72-2.3a1.71,1.71,0,0,1,1.18,1.45l0,8.07-.48.57Zm1.41,2.32.47.58,0,8.06a1.7,1.7,0,0,1-1.19,1.43l-.7-2.31,0-6Z" transform="translate(-53.68 -161.67)"/><path class="cls-5" d="M197.17,211.8l0,5.47L195.71,219l-.47-.58,0-7.49Zm-2,15.83,0-7.49.48-.57,1.41,1.74,0,5.47Zm8.29,2.08-7.11-.05a1.72,1.72,0,0,1-1.18-1.45l1.9-.85,5.69,0Zm-.62-18.44-5.66-.05-1.9-.88a1.72,1.72,0,0,1,1.2-1.43l7.09.06Zm.45,6,0-6,.72-2.3a1.74,1.74,0,0,1,1.18,1.45l0,8.07-.48.57Zm1.41,2.31.47.58,0,8.07a1.69,1.69,0,0,1-1.2,1.43l-.7-2.31,0-6.05Z" transform="translate(-53.68 -161.67)"/><path class="cls-5" d="M211.63,211.91l0,5.47-1.44,1.72-.47-.58,0-7.49Zm-2,15.83,0-7.49.48-.57,1.42,1.73,0,5.48Zm8.29,2.08-7.12-.06a1.73,1.73,0,0,1-1.18-1.45l1.91-.84,5.69,0Zm-.62-18.44-5.67,0-1.89-.88A1.72,1.72,0,0,1,211,209l7.09.06Zm.44,6.05,0-6.05.73-2.3a1.71,1.71,0,0,1,1.17,1.45l0,8.07-.47.57Zm1.41,2.31.47.58,0,8.07a1.71,1.71,0,0,1-1.19,1.43l-.7-2.31,0-6Z" transform="translate(-53.68 -161.67)"/><path class="cls-5" d="M226.1,212l0,5.47-1.43,1.72-.47-.58,0-7.49Zm-2,15.83,0-7.49.48-.57,1.41,1.73,0,5.48Zm8.29,2.08-7.11-.06a1.71,1.71,0,0,1-1.18-1.45l1.9-.85,5.69.05Zm-.62-18.45-5.66,0-1.9-.88a1.73,1.73,0,0,1,1.2-1.43l7.09.06Zm.45,6.06,0-6,.72-2.3a1.72,1.72,0,0,1,1.18,1.45l0,8.06-.48.58Zm1.41,2.31.47.58,0,8.07a1.71,1.71,0,0,1-1.19,1.43l-.7-2.31,0-6.05Z" transform="translate(-53.68 -161.67)"/><path class="cls-5" d="M240.57,212.13l0,5.47-1.43,1.72-.48-.58,0-7.49Zm-2,15.83,0-7.49.47-.58,1.42,1.74,0,5.48Zm8.29,2.08-7.12-.06a1.73,1.73,0,0,1-1.18-1.45l1.91-.85,5.69,0Zm-.62-18.45-5.67,0-1.89-.88a1.72,1.72,0,0,1,1.19-1.43l7.09,0Zm.44,6.06,0-6.05.73-2.3a1.74,1.74,0,0,1,1.18,1.45l0,8.06-.47.58Zm1.41,2.31.48.58-.05,8.07a1.69,1.69,0,0,1-1.19,1.43l-.7-2.31,0-6Z" transform="translate(-53.68 -161.67)"/><path class="cls-6" d="M446.51,442.12v9.37a3.66,3.66,0,0,1-.61,2,3.55,3.55,0,0,1-1.66,1.35,2.86,2.86,0,0,1-.65.19,3.18,3.18,0,0,1-.62,0H296.68a3.58,3.58,0,0,1-3.5-3.07c0-.11,0-.23,0-.35s0-.12,0-.18v-9.37c0-.07,0-.13,0-.19s0-.24,0-.35a3.58,3.58,0,0,1,3.5-3.07H443a3.18,3.18,0,0,1,.62.05,3.48,3.48,0,0,1,.65.19,3.61,3.61,0,0,1,1.66,1.35A3.67,3.67,0,0,1,446.51,442.12Z" transform="translate(-53.68 -161.67)"/><path class="cls-7" d="M374.68,455.09H296.3a3.28,3.28,0,0,1-3-2.67c0-.13-.06-.26-.08-.4s0-.23,0-.35,0-.12,0-.18v-9.37c0-.07,0-.13,0-.19s0-.24,0-.35.05-.27.08-.4a3.28,3.28,0,0,1,3-2.67h68.75C366.15,443.39,368.71,450.14,374.68,455.09Z" transform="translate(-53.68 -161.67)"/><rect class="cls-7" x="373.36" y="276.83" width="1.66" height="16.59"/><rect class="cls-7" x="367.73" y="276.83" width="1.66" height="16.59"/><rect class="cls-7" x="360.98" y="276.83" width="1.66" height="16.59"/><rect class="cls-7" x="350.64" y="276.83" width="1.66" height="16.59"/><rect class="cls-7" x="339.7" y="276.83" width="1.66" height="16.59"/><rect class="cls-7" x="322.93" y="276.83" width="1.66" height="16.59"/><rect class="cls-7" x="307.23" y="276.83" width="1.66" height="16.59"/><rect class="cls-7" x="293.21" y="276.83" width="1.66" height="16.59"/><rect class="cls-7" x="378.72" y="276.83" width="1.66" height="16.59"/><rect class="cls-7" x="382.26" y="276.83" width="1.66" height="16.59"/><rect class="cls-7" x="385.67" y="276.83" width="1.66" height="16.59"/><path class="cls-7" d="M443.59,438.56V455a3.18,3.18,0,0,1-.62.06h-1V438.51h1A4.21,4.21,0,0,1,443.59,438.56Z" transform="translate(-53.68 -161.67)"/><path class="cls-7" d="M445.9,440.1v13.4a3.49,3.49,0,0,1-1.66,1.35v-16.1A3.55,3.55,0,0,1,445.9,440.1Z" transform="translate(-53.68 -161.67)"/><path class="cls-6" d="M430.87,425.53v9.36a3.65,3.65,0,0,1-.61,2,3.5,3.5,0,0,1-.33.43,3.62,3.62,0,0,1-1.33.92,3,3,0,0,1-.65.19,4.2,4.2,0,0,1-.62.06H281a3.59,3.59,0,0,1-3.5-3.08c0-.11,0-.23,0-.35v-9.74c0-.12,0-.23,0-.35a3.59,3.59,0,0,1,3.5-3.08H427.33l.28,0h.12l.13,0,.09,0a3,3,0,0,1,.65.18,2.92,2.92,0,0,1,.36.17h0a1.71,1.71,0,0,1,.23.13l.13.09a.47.47,0,0,1,.12.09,2.49,2.49,0,0,1,.42.38.86.86,0,0,1,.13.14l.07.08,0,.05,0,0,.13.18A3.67,3.67,0,0,1,430.87,425.53Z" transform="translate(-53.68 -161.67)"/><path class="cls-7" d="M359,438.51H280.66a3.27,3.27,0,0,1-3-2.68,2.59,2.59,0,0,1-.09-.4c0-.11,0-.23,0-.35v-9.74c0-.12,0-.23,0-.35a2.88,2.88,0,0,1,.09-.4,3.27,3.27,0,0,1,3-2.68h68.75c0,.14.06.28.1.42C350.65,427.17,353.23,433.69,359,438.51Z" transform="translate(-53.68 -161.67)"/><rect class="cls-7" x="357.72" y="260.24" width="1.66" height="16.59"/><rect class="cls-7" x="352.09" y="260.24" width="1.66" height="16.59"/><rect class="cls-7" x="345.34" y="260.24" width="1.66" height="16.59"/><rect class="cls-7" x="335" y="260.24" width="1.66" height="16.59"/><rect class="cls-7" x="324.06" y="260.24" width="1.66" height="16.59"/><rect class="cls-7" x="307.29" y="260.24" width="1.66" height="16.59"/><rect class="cls-7" x="291.59" y="260.24" width="1.66" height="16.59"/><rect class="cls-7" x="277.57" y="260.24" width="1.66" height="16.59"/><rect class="cls-7" x="363.08" y="260.24" width="1.66" height="16.59"/><rect class="cls-7" x="366.62" y="260.24" width="1.66" height="16.59"/><rect class="cls-7" x="370.03" y="260.24" width="1.66" height="16.59"/><path class="cls-7" d="M428,422v16.48a3.18,3.18,0,0,1-.62.06h-1V421.92h1A4.21,4.21,0,0,1,428,422Z" transform="translate(-53.68 -161.67)"/><path class="cls-7" d="M430.26,423.51v13.4a3.49,3.49,0,0,1-1.66,1.35v-16.1A3.55,3.55,0,0,1,430.26,423.51Z" transform="translate(-53.68 -161.67)"/><path class="cls-6" d="M438.42,409.35v9.37a3.65,3.65,0,0,1-.6,2,3.6,3.6,0,0,1-1.66,1.35,3.72,3.72,0,0,1-.65.19,4.2,4.2,0,0,1-.62.06H288.6a3.38,3.38,0,0,1-1.63-.42,3.64,3.64,0,0,1-1.87-2.62c0-.07,0-.15,0-.23a.81.81,0,0,1,0-.16,1.09,1.09,0,0,1,0-.18v-9.37a1.21,1.21,0,0,1,0-.19,2.07,2.07,0,0,1,0-.35,3.58,3.58,0,0,1,3.5-3.07H434.89a3.18,3.18,0,0,1,.62.05,3,3,0,0,1,.65.19,3.6,3.6,0,0,1,2.26,3.37Z" transform="translate(-53.68 -161.67)"/><path class="cls-7" d="M366.59,422.33H288.22a2.72,2.72,0,0,1-1.45-.42,3.6,3.6,0,0,1-1.67-2.62c0-.07,0-.15,0-.23a.81.81,0,0,1,0-.16,1.09,1.09,0,0,1,0-.18v-9.37a1.21,1.21,0,0,1,0-.19,2.07,2.07,0,0,1,0-.35c0-.13,0-.26.08-.38a3.27,3.27,0,0,1,3-2.69H357c1.07,4.74,3.52,11.27,9.14,16.17Z" transform="translate(-53.68 -161.67)"/><rect class="cls-7" x="365.28" y="244.06" width="1.66" height="16.59"/><rect class="cls-7" x="359.65" y="244.06" width="1.66" height="16.59"/><rect class="cls-7" x="352.9" y="244.06" width="1.66" height="16.59"/><rect class="cls-7" x="342.56" y="244.06" width="1.66" height="16.59"/><rect class="cls-7" x="331.62" y="244.06" width="1.66" height="16.59"/><rect class="cls-7" x="314.85" y="244.06" width="1.66" height="16.59"/><rect class="cls-7" x="299.15" y="244.06" width="1.66" height="16.59"/><rect class="cls-7" x="285.13" y="244.06" width="1.66" height="16.59"/><rect class="cls-7" x="370.64" y="244.06" width="1.66" height="16.59"/><rect class="cls-7" x="374.18" y="244.06" width="1.66" height="16.59"/><rect class="cls-7" x="377.59" y="244.06" width="1.66" height="16.59"/><path class="cls-7" d="M435.51,405.79v16.48a3.18,3.18,0,0,1-.62.06h-1V405.74h1A4.21,4.21,0,0,1,435.51,405.79Z" transform="translate(-53.68 -161.67)"/><path class="cls-7" d="M437.82,407.33v13.4a3.55,3.55,0,0,1-1.66,1.35V406A3.55,3.55,0,0,1,437.82,407.33Z" transform="translate(-53.68 -161.67)"/><path class="cls-6" d="M441.93,392.76v9.36a3.67,3.67,0,0,1-.61,2,1.77,1.77,0,0,1-.16.22,3.43,3.43,0,0,1-1,.89,2.78,2.78,0,0,1-.49.24,2.86,2.86,0,0,1-.65.19l-.3,0-.32,0H292.11a3.6,3.6,0,0,1-3.51-3.08c0-.11,0-.23,0-.35v-9.74a3.6,3.6,0,0,1,3.11-3.4c.14,0,.28,0,.43,0H438.39l.32,0a1.57,1.57,0,0,1,.3,0,3.46,3.46,0,0,1,.65.18,3.55,3.55,0,0,1,1.66,1.35A3.67,3.67,0,0,1,441.93,392.76Z" transform="translate(-53.68 -161.67)"/><path class="cls-7" d="M370.1,405.74H291.73a3.27,3.27,0,0,1-3-2.68,2.59,2.59,0,0,1-.09-.4c0-.11,0-.23,0-.35v-9.74a3.47,3.47,0,0,1,2.78-3.4c.12,0,.25,0,.38,0h68.74s0,0,0,0C361.58,394.05,364.14,400.79,370.1,405.74Z" transform="translate(-53.68 -161.67)"/><rect class="cls-7" x="368.78" y="227.47" width="1.66" height="16.59"/><rect class="cls-7" x="363.16" y="227.47" width="1.66" height="16.59"/><rect class="cls-7" x="356.41" y="227.47" width="1.66" height="16.59"/><rect class="cls-7" x="346.06" y="227.47" width="1.66" height="16.59"/><rect class="cls-7" x="335.12" y="227.47" width="1.66" height="16.59"/><rect class="cls-7" x="318.35" y="227.47" width="1.66" height="16.59"/><rect class="cls-7" x="302.65" y="227.47" width="1.66" height="16.59"/><rect class="cls-7" x="288.63" y="227.47" width="1.66" height="16.59"/><rect class="cls-7" x="374.14" y="227.47" width="1.66" height="16.59"/><rect class="cls-7" x="377.68" y="227.47" width="1.66" height="16.59"/><rect class="cls-7" x="381.1" y="227.47" width="1.66" height="16.59"/><path class="cls-7" d="M439,389.2v16.48a4.2,4.2,0,0,1-.62.06h-1v-16.6h1A4.2,4.2,0,0,1,439,389.2Z" transform="translate(-53.68 -161.67)"/><path class="cls-7" d="M441.32,390.74v13.4a3.55,3.55,0,0,1-1.66,1.35v-16.1A3.55,3.55,0,0,1,441.32,390.74Z" transform="translate(-53.68 -161.67)"/><path class="cls-6" d="M431.17,376.19v9.37a3.61,3.61,0,0,1-.6,2,3.54,3.54,0,0,1-1.67,1.36,3.36,3.36,0,0,1-.64.18l-.2,0h0l-.11,0H281.35a3.57,3.57,0,0,1-3.53-3.42,1.15,1.15,0,0,1,0-.19v-9.37a1.09,1.09,0,0,1,0-.18v-.15a3.61,3.61,0,0,1,2.66-3.16.35.35,0,0,1,.11,0,3.16,3.16,0,0,1,.76-.09H427.63l.32,0h.15l.16,0a3.36,3.36,0,0,1,.64.18,3.54,3.54,0,0,1,1.67,1.36A3.63,3.63,0,0,1,431.17,376.19Z" transform="translate(-53.68 -161.67)"/><path class="cls-7" d="M359.34,389.17H281a3.38,3.38,0,0,1-3.15-3.42,1.15,1.15,0,0,1,0-.19v-9.37a1.09,1.09,0,0,1,0-.18v-.15a3.51,3.51,0,0,1,2.46-3.19l.13,0a2.6,2.6,0,0,1,.56-.06h68.75s0,.08,0,.12c1.11,4.86,3.67,11.54,9.57,16.44C359.32,389.16,359.33,389.16,359.34,389.17Z" transform="translate(-53.68 -161.67)"/><rect class="cls-7" x="358.03" y="210.91" width="1.66" height="16.59"/><rect class="cls-7" x="352.4" y="210.91" width="1.66" height="16.59"/><rect class="cls-7" x="345.65" y="210.91" width="1.66" height="16.59"/><rect class="cls-7" x="335.31" y="210.91" width="1.66" height="16.59"/><rect class="cls-7" x="324.37" y="210.91" width="1.66" height="16.59"/><rect class="cls-7" x="307.6" y="210.91" width="1.66" height="16.59"/><rect class="cls-7" x="291.9" y="210.91" width="1.66" height="16.59"/><rect class="cls-7" x="277.88" y="210.91" width="1.66" height="16.59"/><rect class="cls-7" x="363.39" y="210.91" width="1.66" height="16.59"/><rect class="cls-7" x="366.92" y="210.91" width="1.66" height="16.59"/><rect class="cls-7" x="370.34" y="210.91" width="1.66" height="16.59"/><path class="cls-7" d="M428.26,372.64v16.47a3.21,3.21,0,0,1-.63.06h-1V372.58h1A3.21,3.21,0,0,1,428.26,372.64Z" transform="translate(-53.68 -161.67)"/><path class="cls-7" d="M430.57,374.18v13.4a3.66,3.66,0,0,1-1.66,1.35v-16.1A3.54,3.54,0,0,1,430.57,374.18Z" transform="translate(-53.68 -161.67)"/><path class="cls-6" d="M430.87,359.72v9.37a3.61,3.61,0,0,1-.61,2,4.59,4.59,0,0,1-.33.44,3.62,3.62,0,0,1-1.33.92,4.74,4.74,0,0,1-.5.15h0a.5.5,0,0,1-.13,0,3.18,3.18,0,0,1-.62.06H281l-.45,0-.18,0a3.59,3.59,0,0,1-2.87-3.05,1.71,1.71,0,0,1,0-.31v-9.75c0-.11,0-.23,0-.35a3.58,3.58,0,0,1,3.5-3.07H427.73l.13,0,.09,0a3.69,3.69,0,0,1,.65.18l.36.17h0a3.63,3.63,0,0,1,1.17,1l.13.18A3.67,3.67,0,0,1,430.87,359.72Z" transform="translate(-53.68 -161.67)"/><path class="cls-7" d="M359,372.7H280.48l-.2,0a3.41,3.41,0,0,1-2.74-3.08,1.71,1.71,0,0,1,0-.31v-9.75c0-.11,0-.23,0-.35a2.74,2.74,0,0,1,.09-.39,3.26,3.26,0,0,1,3-2.68h68.75c0,.14.06.27.1.41,1.13,4.81,3.68,11.26,9.38,16.06Z" transform="translate(-53.68 -161.67)"/><rect class="cls-7" x="357.72" y="194.44" width="1.66" height="16.59"/><rect class="cls-7" x="352.09" y="194.44" width="1.66" height="16.59"/><rect class="cls-7" x="345.34" y="194.44" width="1.66" height="16.59"/><rect class="cls-7" x="335" y="194.44" width="1.66" height="16.59"/><rect class="cls-7" x="324.06" y="194.44" width="1.66" height="16.59"/><rect class="cls-7" x="307.29" y="194.44" width="1.66" height="16.59"/><rect class="cls-7" x="291.59" y="194.44" width="1.66" height="16.59"/><rect class="cls-7" x="277.57" y="194.44" width="1.66" height="16.59"/><rect class="cls-7" x="363.08" y="194.44" width="1.66" height="16.59"/><rect class="cls-7" x="366.62" y="194.44" width="1.66" height="16.59"/><rect class="cls-7" x="370.03" y="194.44" width="1.66" height="16.59"/><path class="cls-7" d="M428,356.17v16.47a3.18,3.18,0,0,1-.62.06h-1V356.11h1A3.18,3.18,0,0,1,428,356.17Z" transform="translate(-53.68 -161.67)"/><path class="cls-7" d="M430.26,357.7v13.41a3.61,3.61,0,0,1-1.66,1.35V356.35A3.61,3.61,0,0,1,430.26,357.7Z" transform="translate(-53.68 -161.67)"/><path class="cls-6" d="M438.42,343.54v9.37a3.52,3.52,0,0,1-2.91,3.55,3.18,3.18,0,0,1-.62.06H288.6a3.49,3.49,0,0,1-1.63-.41,3.66,3.66,0,0,1-1.87-2.62c0-.08,0-.16,0-.23a1,1,0,0,1,0-.17,1.09,1.09,0,0,1,0-.18v-9.37a1.21,1.21,0,0,1,0-.19,2.16,2.16,0,0,1,0-.35,3.58,3.58,0,0,1,3.5-3.07H434.89a3.18,3.18,0,0,1,.62.06,3.69,3.69,0,0,1,.65.18,3.62,3.62,0,0,1,2.26,3.37Z" transform="translate(-53.68 -161.67)"/><path class="cls-7" d="M366.59,356.52H288.22a2.81,2.81,0,0,1-1.45-.41,3.62,3.62,0,0,1-1.67-2.62c0-.08,0-.16,0-.23a1,1,0,0,1,0-.17,1.09,1.09,0,0,1,0-.18v-9.37a1.21,1.21,0,0,1,0-.19,2.16,2.16,0,0,1,0-.35c0-.13,0-.26.08-.38a3.28,3.28,0,0,1,3-2.69H357c1.07,4.75,3.52,11.27,9.14,16.18Z" transform="translate(-53.68 -161.67)"/><rect class="cls-7" x="365.28" y="178.26" width="1.66" height="16.59"/><rect class="cls-7" x="359.65" y="178.26" width="1.66" height="16.59"/><rect class="cls-7" x="352.9" y="178.26" width="1.66" height="16.59"/><rect class="cls-7" x="342.56" y="178.26" width="1.66" height="16.59"/><rect class="cls-7" x="331.62" y="178.26" width="1.66" height="16.59"/><rect class="cls-7" x="314.85" y="178.26" width="1.66" height="16.59"/><rect class="cls-7" x="299.15" y="178.26" width="1.66" height="16.59"/><rect class="cls-7" x="285.13" y="178.26" width="1.66" height="16.59"/><rect class="cls-7" x="370.64" y="178.26" width="1.66" height="16.59"/><rect class="cls-7" x="374.18" y="178.26" width="1.66" height="16.59"/><rect class="cls-7" x="377.59" y="178.26" width="1.66" height="16.59"/><path class="cls-7" d="M435.51,340v16.47a3.18,3.18,0,0,1-.62.06h-1V339.93h1A3.18,3.18,0,0,1,435.51,340Z" transform="translate(-53.68 -161.67)"/><path class="cls-7" d="M437.82,341.52v13.4a3.57,3.57,0,0,1-1.66,1.36V340.17A3.61,3.61,0,0,1,437.82,341.52Z" transform="translate(-53.68 -161.67)"/><path class="cls-6" d="M450.38,327v9.37a3.74,3.74,0,0,1-.6,2h0l-.16.23a3.66,3.66,0,0,1-.78.74,3.59,3.59,0,0,1-.47.27h0l-.25.11a3.26,3.26,0,0,1-.65.18,3.18,3.18,0,0,1-.62.06H300.55a3.58,3.58,0,0,1-3.5-3.07l0-.36v-9.74a3.59,3.59,0,0,1,3.12-3.39,2.83,2.83,0,0,1,.41,0H446.84a3.18,3.18,0,0,1,.62.06,3.26,3.26,0,0,1,.65.18,3.58,3.58,0,0,1,1.5,1.13c.06.07.11.15.16.22h0A3.71,3.71,0,0,1,450.38,327Z" transform="translate(-53.68 -161.67)"/><path class="cls-7" d="M378.55,339.93H300.18a3.26,3.26,0,0,1-3-2.69,2.34,2.34,0,0,1-.09-.38l0-.36v-9.74a3.45,3.45,0,0,1,2.78-3.39,2.34,2.34,0,0,1,.38,0h68.74s0,0,0,0C370,328.25,372.59,335,378.55,339.93Z" transform="translate(-53.68 -161.67)"/><rect class="cls-7" x="377.23" y="161.67" width="1.66" height="16.59"/><rect class="cls-7" x="371.61" y="161.67" width="1.66" height="16.59"/><rect class="cls-7" x="364.86" y="161.67" width="1.66" height="16.59"/><rect class="cls-7" x="354.51" y="161.67" width="1.66" height="16.59"/><rect class="cls-7" x="343.57" y="161.67" width="1.66" height="16.59"/><rect class="cls-7" x="326.8" y="161.67" width="1.66" height="16.59"/><rect class="cls-7" x="311.1" y="161.67" width="1.66" height="16.59"/><rect class="cls-7" x="297.08" y="161.67" width="1.66" height="16.59"/><rect class="cls-7" x="382.59" y="161.67" width="1.66" height="16.59"/><rect class="cls-7" x="386.13" y="161.67" width="1.66" height="16.59"/><rect class="cls-7" x="389.55" y="161.67" width="1.66" height="16.59"/><path class="cls-7" d="M447.46,323.4v16.47a3.18,3.18,0,0,1-.62.06h-1V323.34h1A3.18,3.18,0,0,1,447.46,323.4Z" transform="translate(-53.68 -161.67)"/><path class="cls-7" d="M449.77,324.93v13.4a3.57,3.57,0,0,1-1.66,1.36V323.58A3.61,3.61,0,0,1,449.77,324.93Z" transform="translate(-53.68 -161.67)"/><path class="cls-6" d="M431.17,310.39v9.36a3.66,3.66,0,0,1-.6,2,3.47,3.47,0,0,1-1.67,1.35,2.78,2.78,0,0,1-.64.19l-.2,0h0l-.14,0H281.35a3.52,3.52,0,0,1-3-1.72,3.69,3.69,0,0,1-.52-1.71,1.15,1.15,0,0,1,0-.19v-9.36a1.15,1.15,0,0,1,0-.19,3.59,3.59,0,0,1,2.5-3.26,3.26,3.26,0,0,1,1-.16H427.91a2,2,0,0,1,.35,0,2.76,2.76,0,0,1,.64.18,1.73,1.73,0,0,1,.31.14h0a3.26,3.26,0,0,1,1,.78l0,0,0,.05a3.44,3.44,0,0,1,.28.36A3.66,3.66,0,0,1,431.17,310.39Z" transform="translate(-53.68 -161.67)"/><path class="cls-7" d="M359.34,323.37H281a3.09,3.09,0,0,1-2.64-1.64,3.81,3.81,0,0,1-.51-1.79,1.15,1.15,0,0,1,0-.19v-9.36a1.15,1.15,0,0,1,0-.19,3.51,3.51,0,0,1,2.51-3.35,2.73,2.73,0,0,1,.64-.07h68.75c0,.12.06.25.09.38,1.14,4.84,3.71,11.36,9.5,16.18Z" transform="translate(-53.68 -161.67)"/><rect class="cls-7" x="358.03" y="145.1" width="1.66" height="16.59"/><rect class="cls-7" x="352.4" y="145.1" width="1.66" height="16.59"/><rect class="cls-7" x="345.65" y="145.1" width="1.66" height="16.59"/><rect class="cls-7" x="335.31" y="145.1" width="1.66" height="16.59"/><rect class="cls-7" x="324.37" y="145.1" width="1.66" height="16.59"/><rect class="cls-7" x="307.6" y="145.1" width="1.66" height="16.59"/><rect class="cls-7" x="291.9" y="145.1" width="1.66" height="16.59"/><rect class="cls-7" x="277.88" y="145.1" width="1.66" height="16.59"/><rect class="cls-7" x="363.39" y="145.1" width="1.66" height="16.59"/><rect class="cls-7" x="366.92" y="145.1" width="1.66" height="16.59"/><rect class="cls-7" x="370.34" y="145.1" width="1.66" height="16.59"/><path class="cls-7" d="M428.26,306.83v16.48a3.21,3.21,0,0,1-.63.06h-1V306.78h1A4.23,4.23,0,0,1,428.26,306.83Z" transform="translate(-53.68 -161.67)"/><path class="cls-7" d="M430.57,308.37v13.4a3.6,3.6,0,0,1-1.66,1.35V307A3.6,3.6,0,0,1,430.57,308.37Z" transform="translate(-53.68 -161.67)"/><path class="cls-6" d="M441.93,294.18v9.37a3.65,3.65,0,0,1-2.27,3.37,3.46,3.46,0,0,1-.65.18,3.18,3.18,0,0,1-.62.06H292.11a3.55,3.55,0,0,1-1.59-.38,3.65,3.65,0,0,1-1.94-2.9c0-.05,0-.1,0-.15V294a3.59,3.59,0,0,1,3.12-3.39,2.77,2.77,0,0,1,.42,0H438.39a3.18,3.18,0,0,1,.62.06,3.46,3.46,0,0,1,.65.18,3.63,3.63,0,0,1,2.27,3.37Z" transform="translate(-53.68 -161.67)"/><path class="cls-7" d="M370.1,307.16H291.73a2.83,2.83,0,0,1-1.41-.38,3.64,3.64,0,0,1-1.74-2.9c0-.05,0-.1,0-.15V294a3.45,3.45,0,0,1,2.78-3.39,2.34,2.34,0,0,1,.38,0h68.74v0c1.07,4.75,3.53,11.27,9.17,16.18C369.79,306.91,369.94,307,370.1,307.16Z" transform="translate(-53.68 -161.67)"/><rect class="cls-7" x="368.78" y="128.9" width="1.66" height="16.59"/><rect class="cls-7" x="363.16" y="128.9" width="1.66" height="16.59"/><rect class="cls-7" x="356.41" y="128.9" width="1.66" height="16.59"/><rect class="cls-7" x="346.06" y="128.9" width="1.66" height="16.59"/><rect class="cls-7" x="335.12" y="128.9" width="1.66" height="16.59"/><rect class="cls-7" x="318.35" y="128.9" width="1.66" height="16.59"/><rect class="cls-7" x="302.65" y="128.9" width="1.66" height="16.59"/><rect class="cls-7" x="288.63" y="128.9" width="1.66" height="16.59"/><rect class="cls-7" x="374.14" y="128.9" width="1.66" height="16.59"/><rect class="cls-7" x="377.68" y="128.9" width="1.66" height="16.59"/><rect class="cls-7" x="381.1" y="128.9" width="1.66" height="16.59"/><path class="cls-7" d="M439,290.63V307.1a3.18,3.18,0,0,1-.62.06h-1V290.57h1A3.18,3.18,0,0,1,439,290.63Z" transform="translate(-53.68 -161.67)"/><path class="cls-7" d="M441.32,292.16v13.4a3.57,3.57,0,0,1-1.66,1.36V290.81A3.61,3.61,0,0,1,441.32,292.16Z" transform="translate(-53.68 -161.67)"/><path class="cls-6" d="M446.51,277.62V287a3.67,3.67,0,0,1-.61,2,3.55,3.55,0,0,1-1.66,1.35,3,3,0,0,1-.65.19l-.2,0H296.68a3.58,3.58,0,0,1-3.53-3.43c0-.06,0-.12,0-.19v-9.36c0-.07,0-.13,0-.19a3.57,3.57,0,0,1,3.53-3.42H443a4.21,4.21,0,0,1,.62.05,3,3,0,0,1,.65.19,3.55,3.55,0,0,1,1.66,1.35A3.67,3.67,0,0,1,446.51,277.62Z" transform="translate(-53.68 -161.67)"/><path class="cls-7" d="M374.67,290.6H296.3a3.39,3.39,0,0,1-3.15-3.43c0-.06,0-.12,0-.19v-9.36c0-.07,0-.13,0-.19A3.38,3.38,0,0,1,296.3,274h68.75c1.1,4.87,3.65,11.61,9.59,16.56Z" transform="translate(-53.68 -161.67)"/><rect class="cls-7" x="373.36" y="112.33" width="1.66" height="16.59"/><rect class="cls-7" x="367.73" y="112.33" width="1.66" height="16.59"/><rect class="cls-7" x="360.98" y="112.33" width="1.66" height="16.59"/><rect class="cls-7" x="350.64" y="112.33" width="1.66" height="16.59"/><rect class="cls-7" x="339.7" y="112.33" width="1.66" height="16.59"/><rect class="cls-7" x="322.93" y="112.33" width="1.66" height="16.59"/><rect class="cls-7" x="307.23" y="112.33" width="1.66" height="16.59"/><rect class="cls-7" x="293.21" y="112.33" width="1.66" height="16.59"/><rect class="cls-7" x="378.72" y="112.33" width="1.66" height="16.59"/><rect class="cls-7" x="382.26" y="112.33" width="1.66" height="16.59"/><rect class="cls-7" x="385.67" y="112.33" width="1.66" height="16.59"/><path class="cls-7" d="M443.59,274.06v16.48a4.21,4.21,0,0,1-.62,0h-1V274h1A3.18,3.18,0,0,1,443.59,274.06Z" transform="translate(-53.68 -161.67)"/><path class="cls-7" d="M445.9,275.6V289a3.55,3.55,0,0,1-1.66,1.35v-16.1A3.55,3.55,0,0,1,445.9,275.6Z" transform="translate(-53.68 -161.67)"/><path class="cls-8" d="M400.14,179.46s-7.69,13.14-14.73,13.33-17.76-6.09-17.76-6.09-6.47-17.51-2.08-24.36c0,0,4.4-2.35,9,1.79A15.85,15.85,0,0,1,377,166.9a7.7,7.7,0,0,0,3.7,3c5,1.86,11-2.51,13.22,1.7a27.28,27.28,0,0,0,3.89,5.59A18.67,18.67,0,0,0,400.14,179.46Z" transform="translate(-53.68 -161.67)"/><path class="cls-8" d="M300,274.25s27.16-79.94,76-81.46c0,0,45.12,6.09,47.63,81.46Z" transform="translate(-53.68 -161.67)"/><path class="cls-9" d="M362.62,195.23s19.59,5.29,25.64,2.18c0,0,.91-9.95-7.34-8.56-5.65,1-9.33-2.34-11.49-3.68C366.37,183.28,361.8,191.07,362.62,195.23Z" transform="translate(-53.68 -161.67)"/><path class="cls-10" d="M379.67,180.23c-1.25,1.14-5.1-16.1-5.1-16.1A15.85,15.85,0,0,1,377,166.9a7.7,7.7,0,0,0,3.7,3C380.66,170.45,380.89,179.11,379.67,180.23Z" transform="translate(-53.68 -161.67)"/><path class="cls-10" d="M397.76,177.24c-.28.2-9.34,6.79-10.57,6.79s6.68-12.38,6.68-12.38A27.28,27.28,0,0,0,397.76,177.24Z" transform="translate(-53.68 -161.67)"/><path class="cls-11" d="M326.5,251.92c-.5-.52,19.22-35.28,24.65-35.53S368.79,224,377.62,225s17.4-2,19.07,4.31,6.27,28.84,3.45,32.44S337.34,263.17,326.5,251.92Z" transform="translate(-53.68 -161.67)"/><path class="cls-12" d="M345.07,372.58a.49.49,0,0,1,0,.12,94.76,94.76,0,0,1-2.19,16.44v0c-.18.78-.36,1.56-.56,2.33a90.71,90.71,0,0,1-4.82,14.24,84.93,84.93,0,0,1-9.19,16.17l-.29.42a76.14,76.14,0,0,1-16.08,16.18c-1.29,1-2.62,1.87-4,2.75-.92.58-1.85,1.14-2.78,1.68s-1.84,1.16-2.72,1.82a34.59,34.59,0,0,1-9.3,4.65v-7.29c0-.07,0-.13,0-.19s0-.24,0-.35.05-.27.08-.4a3.28,3.28,0,0,1,3-2.67H280.66a3.27,3.27,0,0,1-3-2.68,2.59,2.59,0,0,1-.09-.4c0-.11,0-.23,0-.35v-9.74c0-.12,0-.23,0-.35a2.88,2.88,0,0,1,.09-.4,3.27,3.27,0,0,1,3-2.68h6.11a3.6,3.6,0,0,1-1.67-2.62c0-.07,0-.15,0-.23a.81.81,0,0,1,0-.16,1.09,1.09,0,0,1,0-.18v-9.37a1.21,1.21,0,0,1,0-.19,2.07,2.07,0,0,1,0-.35c0-.13,0-.26.08-.38a3.27,3.27,0,0,1,3-2.69h3.51a3.27,3.27,0,0,1-3-2.68,2.59,2.59,0,0,1-.09-.4c0-.11,0-.23,0-.35v-9.74a3.47,3.47,0,0,1,2.78-3.4H281a3.38,3.38,0,0,1-3.15-3.42,1.15,1.15,0,0,1,0-.19v-9.37a1.09,1.09,0,0,1,0-.18v-.15a3.51,3.51,0,0,1,2.46-3.19,3.41,3.41,0,0,1-2.74-3.08,1.71,1.71,0,0,1,0-.31v-9.75c0-.11,0-.23,0-.35a2.74,2.74,0,0,1,.09-.39,3.26,3.26,0,0,1,3-2.68h6.11a3.62,3.62,0,0,1-1.67-2.62c0-.08,0-.16,0-.23a1,1,0,0,1,0-.17,1.09,1.09,0,0,1,0-.18v-9.37a1.21,1.21,0,0,1,0-.19,2.16,2.16,0,0,1,0-.35c0-.13,0-.26.08-.38a3.28,3.28,0,0,1,3-2.69h12a3.26,3.26,0,0,1-3-2.69,2.34,2.34,0,0,1-.09-.38l0-.36v-9.74a3.45,3.45,0,0,1,2.78-3.39H281a3.09,3.09,0,0,1-2.64-1.64v-.08l2-14.71v-.09l2.83-21a65.51,65.51,0,0,1,9.69,2.37l.56.19h0q2.78.94,5.48,2.14l.05,0a71,71,0,0,1,22.72,16.19l.35.38a78.77,78.77,0,0,1,9.52,12.46c.57.91,1.12,1.84,1.66,2.78.18.31.36.62.52.94l0,0c.86,1.55,1.68,3.13,2.46,4.77a90.34,90.34,0,0,1,4.63,11.79,92.8,92.8,0,0,1,3.54,16.18c0,.14,0,.27.06.41A96.07,96.07,0,0,1,345.07,372.58Z" transform="translate(-53.68 -161.67)"/><ellipse class="cls-13" cx="203.3" cy="202.34" rx="71.95" ry="87.41"/><path class="cls-6" d="M288.92,442.34c-.88.66-1.78,1.3-2.7,1.91l-.93.61c-.71.46-1.42.9-2.13,1.33-34.27,20.44-76.06,4.75-94.69-36.29-17.77-39.16-8.22-87.65,20.93-113.11a71.61,71.61,0,0,1,7.35-5.64c.92-.62,1.85-1.21,2.78-1.77s1.83-1.07,2.75-1.57a63.91,63.91,0,0,1,8.57-3.86,60.08,60.08,0,0,1,13-3.19,61.2,61.2,0,0,1,39.29,8.45c12.83,7.62,23.92,20,31.34,36.29C333.18,366.67,321.67,418.15,288.92,442.34Z" transform="translate(-53.68 -161.67)"/><path class="cls-7" d="M252,447a54.1,54.1,0,0,1-18-3.12c-16.54-5.81-30.23-19.11-38.55-37.43A92.85,92.85,0,0,1,190,346.84c4.79-20.1,15.73-36.73,30.81-46.82,31.13-20.85,70.42-7,87.59,30.77s5.79,85.55-25.34,106.4A55.45,55.45,0,0,1,252,447Zm-.2-154.55a53.89,53.89,0,0,0-30.18,9.46c-14.67,9.82-25.32,26-30,45.56a90.32,90.32,0,0,0,5.33,58c8.09,17.83,21.41,30.76,37.5,36.42s33,3.36,47.72-6.47c30.29-20.28,41.35-66.73,24.65-103.53C295.41,306.65,273.92,292.41,251.79,292.41Z" transform="translate(-53.68 -161.67)"/><path class="cls-7" d="M283.6,376.21c-.14-.43-.29-.85-.44-1.25a23.56,23.56,0,0,0-4.37-7.58,19.11,19.11,0,0,0-6.87-4.91,27.93,27.93,0,0,0-8.73-2,96.49,96.49,0,0,0-10.48-.17,41.62,41.62,0,0,1-6-.14,13,13,0,0,1-4.21-1.12,7.53,7.53,0,0,1-2.81-2.32,12.49,12.49,0,0,1-1.79-3.58,15.75,15.75,0,0,1-.81-4.2,10.59,10.59,0,0,1,.51-3.95,9.86,9.86,0,0,1,2-3.46,11.81,11.81,0,0,1,3.67-2.71,7.79,7.79,0,0,1,7.86.09q3.65,2.18,5.94,9l14.66-7.22a35.06,35.06,0,0,0-4.79-9.67,22.33,22.33,0,0,0-6.5-6.1,18.23,18.23,0,0,0-7.87-2.51,22.42,22.42,0,0,0-8.85,1.1l-4.15-12.42-8.12,4,4.1,12.25a31.16,31.16,0,0,0-7.45,6.44,28,28,0,0,0-4.7,7.95,25.87,25.87,0,0,0-1.72,9,28.42,28.42,0,0,0,1.54,9.57,24.84,24.84,0,0,0,4.83,8.88,18.75,18.75,0,0,0,6.86,4.89,27.64,27.64,0,0,0,8.74,1.92,85.67,85.67,0,0,0,10.51,0,32.54,32.54,0,0,1,5.72,0,12.9,12.9,0,0,1,4.19,1.13,8.2,8.2,0,0,1,2.93,2.42,13.81,13.81,0,0,1,2,4,12.79,12.79,0,0,1,.7,4.22,10.51,10.51,0,0,1-.78,4,11.14,11.14,0,0,1-2.33,3.55,13.55,13.55,0,0,1-3.93,2.81,14.61,14.61,0,0,1-4.31,1.36A8.2,8.2,0,0,1,254,399a10.15,10.15,0,0,1-4-3.11,19.86,19.86,0,0,1-3.2-6.32l-14.66,7.23a32.16,32.16,0,0,0,5.76,10.89,20.7,20.7,0,0,0,7.6,5.75,19.41,19.41,0,0,0,8.63,1.51,30.74,30.74,0,0,0,8.89-1.78l3.78,11.33,8.06-4-3.8-11.38a33.83,33.83,0,0,0,7.52-6.38,27.17,27.17,0,0,0,4.55-7.21l.25-.63a25.68,25.68,0,0,0,1.77-8.93A28.74,28.74,0,0,0,283.6,376.21Z" transform="translate(-53.68 -161.67)"/></g></svg>