<svg id="Layer_1" data-name="Layer 1" xmlns="http://www.w3.org/2000/svg" viewBox="0 0 396.7 294.37"><defs><style>.cls-1{fill:#229dc3;}.cls-2{fill:#afbfe2;}.cls-3{fill:#172f4c;}.cls-4{fill:#1a7996;}.cls-5{fill:#24478e;}.cls-6{fill:#ffc050;}.cls-7{fill:#ffaf53;}.cls-8{fill:#f89d1c;}.cls-9{fill:#fff9f4;}.cls-10{fill:#e07484;}.cls-11{fill:#eabf9c;}.cls-12{fill:#fddbba;}.cls-13{fill:#ec7e23;opacity:0.5;}</style></defs><title>akunting-3</title><path class="cls-1" d="M256.45,392.39,66.92,391c-8.45-.06-15.26-8.44-15.21-18.7l1.24-242C53,120,59.9,111.74,68.34,111.8l189.54,1.43c8.44.07,15.25,8.44,15.2,18.7l-1.24,242C271.79,384.19,264.9,392.46,256.45,392.39Z" transform="translate(-51.71 -98.02)"/><path class="cls-2" d="M253.58,176.59,72,175.22c-3.72,0-6.71-3.71-6.69-8.22l.14-28c0-4.51,3.06-8.15,6.77-8.12l181.58,1.37c3.72,0,6.71,3.71,6.69,8.22l-.15,28C260.32,173,257.29,176.62,253.58,176.59Z" transform="translate(-51.71 -98.02)"/><path class="cls-3" d="M132.74,284.44l-15.54-.12c-3.89,0-7-3.87-7-8.59l.1-18.89c0-4.72,3.19-8.52,7.07-8.49l15.55.12c3.88,0,7,3.88,7,8.6l-.1,18.88C139.8,280.67,136.63,284.47,132.74,284.44Z" transform="translate(-51.71 -98.02)"/><path class="cls-3" d="M132.52,328.59,117,328.47c-3.88,0-7-3.88-7-8.6l.1-18.88c0-4.72,3.19-8.52,7.08-8.49l15.54.11c3.89,0,7,3.88,7,8.6l-.09,18.89C139.57,324.81,136.4,328.62,132.52,328.59Z" transform="translate(-51.71 -98.02)"/><path class="cls-3" d="M132.29,372.73l-15.54-.12c-3.89,0-7-3.88-7-8.59l.09-18.89c0-4.72,3.2-8.52,7.08-8.49l15.55.12c3.88,0,7,3.88,7,8.59l-.1,18.89C139.35,369,136.18,372.76,132.29,372.73Z" transform="translate(-51.71 -98.02)"/><path class="cls-3" d="M171.88,284.74l-15.55-.12c-3.88,0-7-3.88-7-8.6l.1-18.88c0-4.72,3.19-8.52,7.08-8.49l15.54.12c3.89,0,7,3.87,7,8.59L179,276.25C178.93,281,175.76,284.77,171.88,284.74Z" transform="translate(-51.71 -98.02)"/><path class="cls-3" d="M171.65,328.88l-15.54-.12c-3.89,0-7-3.87-7-8.59l.09-18.89c0-4.72,3.2-8.52,7.08-8.49l15.55.12c3.88,0,7,3.88,7,8.6l-.1,18.88C178.71,325.11,175.54,328.91,171.65,328.88Z" transform="translate(-51.71 -98.02)"/><path class="cls-3" d="M171.43,373l-15.55-.12c-3.88,0-7-3.88-7-8.6l.1-18.88c0-4.72,3.19-8.52,7.08-8.49l15.54.11c3.89,0,7,3.88,7,8.6l-.1,18.88C178.48,369.25,175.31,373.06,171.43,373Z" transform="translate(-51.71 -98.02)"/><path class="cls-3" d="M209.39,329.17l-15.55-.12c-3.88,0-7-3.88-7-8.6l.1-18.88c0-4.72,3.19-8.52,7.08-8.49l15.54.11c3.89,0,7,3.88,7,8.6l-.09,18.89C216.44,325.4,213.27,329.2,209.39,329.17Z" transform="translate(-51.71 -98.02)"/><path class="cls-3" d="M209.16,373.31l-15.54-.12c-3.89,0-7-3.87-7-8.59l.09-18.89c0-4.72,3.2-8.52,7.08-8.49l15.55.12c3.88,0,7,3.88,7,8.6l-.1,18.88C216.22,369.54,213.05,373.34,209.16,373.31Z" transform="translate(-51.71 -98.02)"/><path class="cls-4" d="M95.62,232.33l-15.54-.12c-3.89,0-7-3.87-7-8.59l.06-11.2c0-4.72,3.19-8.52,7.07-8.49l15.55.11c3.88,0,7,3.88,7,8.6l-.06,11.2C102.68,228.56,99.51,232.36,95.62,232.33Z" transform="translate(-51.71 -98.02)"/><path class="cls-4" d="M95.39,278.62l-15.55-.12c-3.88,0-7-3.88-7-8.6l.06-11.2c0-4.72,3.19-8.52,7.08-8.49l15.54.12c3.89,0,7,3.88,7,8.6l-.06,11.2C102.44,274.85,99.27,278.65,95.39,278.62Z" transform="translate(-51.71 -98.02)"/><path class="cls-4" d="M95.15,324.9l-15.55-.11c-3.88,0-7-3.88-7-8.6l.06-11.2c0-4.72,3.19-8.52,7.08-8.49l15.54.11c3.89,0,7,3.88,7,8.6l0,11.2C102.2,321.13,99,324.93,95.15,324.9Z" transform="translate(-51.71 -98.02)"/><path class="cls-4" d="M94.91,371.19l-15.54-.12c-3.89,0-7-3.88-7-8.6l.06-11.2c0-4.72,3.19-8.52,7.07-8.49l15.55.12c3.88,0,7,3.88,7,8.6L102,362.7C102,367.42,98.8,371.22,94.91,371.19Z" transform="translate(-51.71 -98.02)"/><path class="cls-4" d="M133,240.3l-15.54-.12c-3.89,0-7-3.88-7-8.6l.09-18.88c0-4.72,3.2-8.52,7.08-8.49l15.54.12c3.89,0,7,3.87,7,8.59l-.09,18.89C140,236.53,136.86,240.33,133,240.3Z" transform="translate(-51.71 -98.02)"/><path class="cls-4" d="M172.1,240.59l-15.54-.11c-3.89,0-7-3.88-7-8.6l.1-18.88c0-4.72,3.19-8.53,7.07-8.5l15.55.12c3.88,0,7,3.88,7,8.6l-.1,18.88C179.16,236.82,176,240.62,172.1,240.59Z" transform="translate(-51.71 -98.02)"/><path class="cls-4" d="M209.84,240.88l-15.55-.12c-3.88,0-7-3.88-7-8.59l.09-18.89c0-4.72,3.19-8.52,7.08-8.49l15.54.12c3.89,0,7,3.88,7,8.59l-.09,18.89C216.89,237.11,213.72,240.91,209.84,240.88Z" transform="translate(-51.71 -98.02)"/><path class="cls-4" d="M245.08,285.5l-15.55-.11c-3.88,0-7-3.88-7-8.6l.1-18.89c0-4.71,3.19-8.52,7.08-8.49l15.54.12c3.89,0,7,3.88,7,8.6L252.16,277C252.13,281.73,249,285.53,245.08,285.5Z" transform="translate(-51.71 -98.02)"/><path class="cls-4" d="M245.3,241.36l-15.54-.12c-3.89,0-7-3.88-7-8.6l.1-18.88c0-4.72,3.19-8.52,7.07-8.49l15.55.12c3.88,0,7,3.88,7,8.59l-.1,18.89C252.36,237.59,249.19,241.39,245.3,241.36Z" transform="translate(-51.71 -98.02)"/><path class="cls-4" d="M244.63,373.79l-15.55-.12c-3.88,0-7-3.88-7-8.59l.32-63c0-4.72,3.2-8.52,7.08-8.49l15.55.11c3.88,0,7,3.88,7,8.6l-.33,63C251.68,370,248.51,373.82,244.63,373.79Z" transform="translate(-51.71 -98.02)"/><path class="cls-5" d="M129,153.12l0-6.05.72-2.3a1.71,1.71,0,0,1,1.18,1.45l0,8.06-.48.58Zm1.41,2.31.47.58,0,8.07a1.72,1.72,0,0,1-1.2,1.43L129,163.2l0-6Z" transform="translate(-51.71 -98.02)"/><path class="cls-5" d="M137.34,147.71l0,5.47-1.43,1.72-.48-.58,0-7.49Zm-2,15.83,0-7.49.48-.58,1.42,1.74,0,5.48Zm8.29,2.08-7.12-.06a1.74,1.74,0,0,1-1.18-1.45l1.91-.85,5.69.05ZM143,147.17l-5.67,0-1.89-.88a1.71,1.71,0,0,1,1.19-1.43l7.09.05Zm.44,6.06,0-6,.73-2.3a1.73,1.73,0,0,1,1.18,1.45l0,8.06-.47.57Zm1.41,2.31.48.58-.05,8.07a1.72,1.72,0,0,1-1.19,1.43l-.7-2.31,0-6.05Z" transform="translate(-51.71 -98.02)"/><path class="cls-5" d="M151.8,147.81l0,5.48L150.34,155l-.47-.58,0-7.49Zm-2,15.83,0-7.49.48-.57,1.41,1.74,0,5.48Zm8.29,2.08-7.11-.05a1.72,1.72,0,0,1-1.18-1.45l1.9-.85,5.69,0Zm-.61-18.44-5.67,0-1.9-.88a1.72,1.72,0,0,1,1.2-1.43l7.09,0Zm.44,6.06,0-6.05.72-2.3a1.71,1.71,0,0,1,1.18,1.45l0,8.06-.48.57Zm1.41,2.31.47.58,0,8.07a1.72,1.72,0,0,1-1.19,1.43l-.7-2.31,0-6Z" transform="translate(-51.71 -98.02)"/><path class="cls-5" d="M166.27,147.92l0,5.48-1.43,1.72-.47-.58,0-7.49Zm-2,15.83,0-7.49.47-.57,1.42,1.74,0,5.47Zm8.29,2.08-7.12-.05a1.71,1.71,0,0,1-1.17-1.45l1.9-.85,5.69,0ZM172,147.39l-5.67,0-1.89-.88a1.71,1.71,0,0,1,1.19-1.43l7.09.05Zm.44,6.05,0-6.05.72-2.29a1.73,1.73,0,0,1,1.18,1.45l0,8.06-.48.57Zm1.42,2.32.47.58,0,8.07a1.73,1.73,0,0,1-1.2,1.43l-.7-2.31,0-6.05Z" transform="translate(-51.71 -98.02)"/><path class="cls-5" d="M180.73,148l0,5.48-1.43,1.71-.47-.57,0-7.49Zm-2,15.83,0-7.49.48-.57,1.41,1.74,0,5.47Zm8.29,2.08-7.11-.05a1.74,1.74,0,0,1-1.18-1.45l1.9-.85,5.69,0Zm-.61-18.44-5.67,0-1.89-.88a1.7,1.7,0,0,1,1.19-1.43l7.09,0Zm.44,6.05,0-6.05.72-2.3a1.71,1.71,0,0,1,1.18,1.45l0,8.07-.48.57Zm1.41,2.32.47.58,0,8.06a1.72,1.72,0,0,1-1.19,1.44l-.7-2.31,0-6Z" transform="translate(-51.71 -98.02)"/><path class="cls-5" d="M195.2,148.14l0,5.48-1.43,1.71-.47-.58,0-7.49Zm-2,15.83,0-7.49.48-.57,1.41,1.74,0,5.47Zm8.29,2.08L194.4,166a1.71,1.71,0,0,1-1.18-1.45l1.9-.85,5.69,0Zm-.62-18.44-5.66,0-1.9-.88a1.69,1.69,0,0,1,1.2-1.43l7.09.05Zm.45,6,0-6,.72-2.3a1.74,1.74,0,0,1,1.18,1.45l0,8.07-.48.57Zm1.41,2.32.47.58,0,8.06a1.72,1.72,0,0,1-1.2,1.44l-.7-2.31,0-6.05Z" transform="translate(-51.71 -98.02)"/><path class="cls-5" d="M209.66,148.25l0,5.48-1.44,1.71-.47-.58,0-7.49Zm-2,15.83,0-7.49.48-.57,1.42,1.74,0,5.47Zm8.29,2.08-7.12,0a1.74,1.74,0,0,1-1.18-1.45l1.91-.85,5.69,0Zm-.62-18.44-5.67,0-1.89-.88a1.7,1.7,0,0,1,1.19-1.43l7.09,0Zm.44,6.05,0-6.05.73-2.3a1.71,1.71,0,0,1,1.17,1.45l0,8.07-.47.57Zm1.41,2.32.47.58,0,8.06a1.7,1.7,0,0,1-1.19,1.43l-.7-2.3,0-6.06Z" transform="translate(-51.71 -98.02)"/><path class="cls-5" d="M224.13,148.36l0,5.47-1.43,1.72-.47-.58,0-7.49Zm-2,15.83,0-7.49.48-.57,1.41,1.74,0,5.47Zm8.29,2.08-7.11-.05a1.72,1.72,0,0,1-1.18-1.45l1.9-.85,5.69,0Zm-.62-18.44-5.66-.05-1.9-.87a1.71,1.71,0,0,1,1.2-1.43l7.09.05Zm.45,6,0-6,.72-2.3A1.72,1.72,0,0,1,232.2,147l0,8.07-.48.57Zm1.41,2.32.47.58,0,8.06a1.7,1.7,0,0,1-1.19,1.43l-.7-2.31,0-6.05Z" transform="translate(-51.71 -98.02)"/><path class="cls-5" d="M238.6,148.47l0,5.47-1.43,1.72-.48-.58,0-7.49Zm-2,15.83,0-7.49.47-.57,1.42,1.74,0,5.47Zm8.29,2.08-7.12,0a1.74,1.74,0,0,1-1.18-1.45l1.91-.85,5.69,0Zm-.62-18.44-5.67-.05-1.89-.87a1.72,1.72,0,0,1,1.19-1.44l7.09.06Zm.44,6.05,0-6.05.73-2.3a1.74,1.74,0,0,1,1.18,1.45l0,8.07-.47.57Zm1.41,2.32.48.58-.05,8.06a1.7,1.7,0,0,1-1.19,1.43l-.7-2.31,0-6Z" transform="translate(-51.71 -98.02)"/><path class="cls-6" d="M444.54,378.46v9.37a3.7,3.7,0,0,1-.61,2,3.53,3.53,0,0,1-1.66,1.34,2.86,2.86,0,0,1-.65.19,3.18,3.18,0,0,1-.62.06H294.71a3.58,3.58,0,0,1-3.5-3.07c0-.12,0-.24,0-.36s0-.12,0-.18v-9.37c0-.06,0-.12,0-.18s0-.24,0-.36a3.58,3.58,0,0,1,3.5-3.07H441a3.18,3.18,0,0,1,.62.06,2.86,2.86,0,0,1,.65.19,3.53,3.53,0,0,1,1.66,1.34A3.7,3.7,0,0,1,444.54,378.46Z" transform="translate(-51.71 -98.02)"/><path class="cls-7" d="M372.71,391.44H294.33a3.28,3.28,0,0,1-3-2.67c0-.13-.06-.27-.08-.4s0-.24,0-.36,0-.12,0-.18v-9.37c0-.06,0-.12,0-.18s0-.24,0-.36.05-.27.08-.4a3.28,3.28,0,0,1,3-2.67h68.75C364.18,379.74,366.74,386.49,372.71,391.44Z" transform="translate(-51.71 -98.02)"/><rect class="cls-8" x="373.36" y="276.83" width="1.66" height="16.59"/><rect class="cls-8" x="367.73" y="276.83" width="1.66" height="16.59"/><rect class="cls-8" x="360.98" y="276.83" width="1.66" height="16.59"/><rect class="cls-8" x="350.64" y="276.83" width="1.66" height="16.59"/><rect class="cls-8" x="339.7" y="276.83" width="1.66" height="16.59"/><rect class="cls-8" x="322.93" y="276.83" width="1.66" height="16.59"/><rect class="cls-8" x="307.23" y="276.83" width="1.66" height="16.59"/><rect class="cls-8" x="293.21" y="276.83" width="1.66" height="16.59"/><rect class="cls-8" x="378.72" y="276.83" width="1.66" height="16.59"/><rect class="cls-8" x="382.26" y="276.83" width="1.66" height="16.59"/><rect class="cls-8" x="385.67" y="276.83" width="1.66" height="16.59"/><path class="cls-8" d="M441.62,374.91v16.47a3.18,3.18,0,0,1-.62.06h-1V374.85h1A3.18,3.18,0,0,1,441.62,374.91Z" transform="translate(-51.71 -98.02)"/><path class="cls-8" d="M443.93,376.44v13.41a3.61,3.61,0,0,1-1.66,1.35V375.09A3.61,3.61,0,0,1,443.93,376.44Z" transform="translate(-51.71 -98.02)"/><path class="cls-6" d="M428.9,361.87v9.37a3.67,3.67,0,0,1-.61,2,3.39,3.39,0,0,1-.33.42,3.64,3.64,0,0,1-1.33.93,3.69,3.69,0,0,1-.65.18,3.18,3.18,0,0,1-.62.06H279.07a3.58,3.58,0,0,1-3.5-3.07c0-.12,0-.24,0-.35a1.28,1.28,0,0,1,0-.19v-9.37a1.21,1.21,0,0,1,0-.19c0-.11,0-.23,0-.35a3.58,3.58,0,0,1,3.5-3.07H425.64l.1,0s0,0,0,0h.13l.09,0a3.69,3.69,0,0,1,.65.18l.35.17h0l.23.13.13.09.11.09a2.6,2.6,0,0,1,.43.38l.13.14.07.08,0,.05,0,0a1.27,1.27,0,0,1,.13.19A3.61,3.61,0,0,1,428.9,361.87Z" transform="translate(-51.71 -98.02)"/><path class="cls-7" d="M357.06,374.85H278.69a3.26,3.26,0,0,1-3-2.68,2.74,2.74,0,0,1-.09-.39c0-.12,0-.24,0-.35a1.28,1.28,0,0,1,0-.19v-9.37a1.21,1.21,0,0,1,0-.19c0-.11,0-.23,0-.35a2.74,2.74,0,0,1,.09-.39,3.26,3.26,0,0,1,3-2.68h68.75c0,.14.06.27.1.41C348.68,363.52,351.26,370,357.06,374.85Z" transform="translate(-51.71 -98.02)"/><rect class="cls-8" x="357.72" y="260.24" width="1.66" height="16.59"/><rect class="cls-8" x="352.09" y="260.24" width="1.66" height="16.59"/><rect class="cls-8" x="345.34" y="260.24" width="1.66" height="16.59"/><rect class="cls-8" x="335" y="260.24" width="1.66" height="16.59"/><rect class="cls-8" x="324.06" y="260.24" width="1.66" height="16.59"/><rect class="cls-8" x="307.29" y="260.24" width="1.66" height="16.59"/><rect class="cls-8" x="291.59" y="260.24" width="1.66" height="16.59"/><rect class="cls-8" x="277.57" y="260.24" width="1.66" height="16.59"/><rect class="cls-8" x="363.08" y="260.24" width="1.66" height="16.59"/><rect class="cls-8" x="366.62" y="260.24" width="1.66" height="16.59"/><rect class="cls-8" x="370.03" y="260.24" width="1.66" height="16.59"/><path class="cls-8" d="M426,358.32v16.47a3.18,3.18,0,0,1-.62.06h-1V358.26h1A3.18,3.18,0,0,1,426,358.32Z" transform="translate(-51.71 -98.02)"/><path class="cls-8" d="M428.29,359.85v13.4a3.57,3.57,0,0,1-1.66,1.36V358.5A3.61,3.61,0,0,1,428.29,359.85Z" transform="translate(-51.71 -98.02)"/><path class="cls-6" d="M436.45,345.69v9.37a3.69,3.69,0,0,1-.6,2,3.58,3.58,0,0,1-1.66,1.34,3,3,0,0,1-.65.19,3.18,3.18,0,0,1-.62.06H286.63a3.49,3.49,0,0,1-1.63-.41,3.66,3.66,0,0,1-1.87-2.62c0-.08,0-.16,0-.24a.81.81,0,0,1,0-.16,1.09,1.09,0,0,1,0-.18v-9.37a1.09,1.09,0,0,1,0-.18,2,2,0,0,1,0-.35,3.58,3.58,0,0,1,3.5-3.08H432.92a3.18,3.18,0,0,1,.62.06,3.58,3.58,0,0,1,2.91,3.55Z" transform="translate(-51.71 -98.02)"/><path class="cls-7" d="M364.62,358.67H286.25a2.81,2.81,0,0,1-1.45-.41,3.62,3.62,0,0,1-1.67-2.62c0-.08,0-.16,0-.24a.81.81,0,0,1,0-.16,1.09,1.09,0,0,1,0-.18v-9.37a1.09,1.09,0,0,1,0-.18,2,2,0,0,1,0-.35c0-.14.05-.26.08-.39a3.27,3.27,0,0,1,3-2.69H355c1.07,4.75,3.52,11.27,9.14,16.18Z" transform="translate(-51.71 -98.02)"/><rect class="cls-8" x="365.28" y="244.06" width="1.66" height="16.59"/><rect class="cls-8" x="359.65" y="244.06" width="1.66" height="16.59"/><rect class="cls-8" x="352.9" y="244.06" width="1.66" height="16.59"/><rect class="cls-8" x="342.56" y="244.06" width="1.66" height="16.59"/><rect class="cls-8" x="331.62" y="244.06" width="1.66" height="16.59"/><rect class="cls-8" x="314.85" y="244.06" width="1.66" height="16.59"/><rect class="cls-8" x="299.15" y="244.06" width="1.66" height="16.59"/><rect class="cls-8" x="285.13" y="244.06" width="1.66" height="16.59"/><rect class="cls-8" x="370.64" y="244.06" width="1.66" height="16.59"/><rect class="cls-8" x="374.18" y="244.06" width="1.66" height="16.59"/><rect class="cls-8" x="377.59" y="244.06" width="1.66" height="16.59"/><path class="cls-8" d="M433.54,342.14v16.47a3.18,3.18,0,0,1-.62.06h-1V342.08h1A3.18,3.18,0,0,1,433.54,342.14Z" transform="translate(-51.71 -98.02)"/><path class="cls-8" d="M435.85,343.67v13.4a3.57,3.57,0,0,1-1.66,1.36V342.32A3.61,3.61,0,0,1,435.85,343.67Z" transform="translate(-51.71 -98.02)"/><path class="cls-6" d="M440,329.1v9.37a3.61,3.61,0,0,1-.61,2,1.77,1.77,0,0,1-.16.22,3.47,3.47,0,0,1-1,.9,3.71,3.71,0,0,1-.49.24,3.46,3.46,0,0,1-.65.18l-.3,0a1.77,1.77,0,0,1-.32,0H290.14a3.59,3.59,0,0,1-3.51-3.07c0-.12,0-.24,0-.35v-9.75a3.58,3.58,0,0,1,3.11-3.39,3,3,0,0,1,.43,0H436.42a1.77,1.77,0,0,1,.32,0l.3,0a3.46,3.46,0,0,1,.65.18,3.61,3.61,0,0,1,1.66,1.35A3.67,3.67,0,0,1,440,329.1Z" transform="translate(-51.71 -98.02)"/><path class="cls-7" d="M368.13,342.08H289.76a3.26,3.26,0,0,1-3-2.68,2.74,2.74,0,0,1-.09-.39c0-.12,0-.24,0-.35v-9.75a3.45,3.45,0,0,1,2.78-3.39,2.34,2.34,0,0,1,.38,0H358.5v0C359.61,330.4,362.17,337.14,368.13,342.08Z" transform="translate(-51.71 -98.02)"/><rect class="cls-8" x="368.78" y="227.47" width="1.66" height="16.59"/><rect class="cls-8" x="363.16" y="227.47" width="1.66" height="16.59"/><rect class="cls-8" x="356.41" y="227.47" width="1.66" height="16.59"/><rect class="cls-8" x="346.06" y="227.47" width="1.66" height="16.59"/><rect class="cls-8" x="335.12" y="227.47" width="1.66" height="16.59"/><rect class="cls-8" x="318.35" y="227.47" width="1.66" height="16.59"/><rect class="cls-8" x="302.65" y="227.47" width="1.66" height="16.59"/><rect class="cls-8" x="288.63" y="227.47" width="1.66" height="16.59"/><rect class="cls-8" x="374.14" y="227.47" width="1.66" height="16.59"/><rect class="cls-8" x="377.68" y="227.47" width="1.66" height="16.59"/><rect class="cls-8" x="381.1" y="227.47" width="1.66" height="16.59"/><path class="cls-8" d="M437,325.55V342a3.18,3.18,0,0,1-.62.06h-1V325.49h1A3.18,3.18,0,0,1,437,325.55Z" transform="translate(-51.71 -98.02)"/><path class="cls-8" d="M439.35,327.08v13.4a3.57,3.57,0,0,1-1.66,1.36V325.73A3.61,3.61,0,0,1,439.35,327.08Z" transform="translate(-51.71 -98.02)"/><path class="cls-6" d="M429.2,312.54v9.36a3.66,3.66,0,0,1-.6,2,3.47,3.47,0,0,1-1.67,1.35,2.78,2.78,0,0,1-.64.19l-.2,0H279.38a3.58,3.58,0,0,1-3.53-3.43,1.15,1.15,0,0,1,0-.19v-9.36a1.21,1.21,0,0,1,0-.19v-.15a3.62,3.62,0,0,1,2.66-3.16l.1,0a4,4,0,0,1,.77-.09H425.66l.32,0,.13,0h0l.16,0a2.78,2.78,0,0,1,.64.19,3.47,3.47,0,0,1,1.67,1.35A3.66,3.66,0,0,1,429.2,312.54Z" transform="translate(-51.71 -98.02)"/><path class="cls-7" d="M357.37,325.52H279a3.39,3.39,0,0,1-3.15-3.43,1.15,1.15,0,0,1,0-.19v-9.36a1.21,1.21,0,0,1,0-.19v-.15a3.49,3.49,0,0,1,2.46-3.18l.13,0a3.43,3.43,0,0,1,.56-.06h68.75a.59.59,0,0,0,0,.13c1.11,4.86,3.67,11.53,9.57,16.44Z" transform="translate(-51.71 -98.02)"/><rect class="cls-8" x="358.03" y="210.91" width="1.66" height="16.59"/><rect class="cls-8" x="352.4" y="210.91" width="1.66" height="16.59"/><rect class="cls-8" x="345.65" y="210.91" width="1.66" height="16.59"/><rect class="cls-8" x="335.31" y="210.91" width="1.66" height="16.59"/><rect class="cls-8" x="324.37" y="210.91" width="1.66" height="16.59"/><rect class="cls-8" x="307.6" y="210.91" width="1.66" height="16.59"/><rect class="cls-7" x="291.9" y="210.91" width="1.66" height="16.59"/><rect class="cls-8" x="277.88" y="210.91" width="1.66" height="16.59"/><rect class="cls-8" x="363.39" y="210.91" width="1.66" height="16.59"/><rect class="cls-8" x="366.92" y="210.91" width="1.66" height="16.59"/><rect class="cls-8" x="370.34" y="210.91" width="1.66" height="16.59"/><path class="cls-8" d="M426.29,309v16.48a4.23,4.23,0,0,1-.63.05h-1V308.92h1A3.21,3.21,0,0,1,426.29,309Z" transform="translate(-51.71 -98.02)"/><path class="cls-8" d="M428.6,310.52v13.4a3.65,3.65,0,0,1-1.66,1.35v-16.1A3.65,3.65,0,0,1,428.6,310.52Z" transform="translate(-51.71 -98.02)"/><path class="cls-6" d="M428.9,296.07v9.36a3.67,3.67,0,0,1-.61,2,4.46,4.46,0,0,1-.33.43,3.62,3.62,0,0,1-1.33.92,3.22,3.22,0,0,1-.5.16h0l-.13,0a3.18,3.18,0,0,1-.62.07H279.07a3.73,3.73,0,0,1-.46,0l-.17,0a3.58,3.58,0,0,1-2.87-3.05,1.55,1.55,0,0,1,0-.31,1.28,1.28,0,0,1,0-.19v-9.36a1.15,1.15,0,0,1,0-.19c0-.12,0-.24,0-.35a3.59,3.59,0,0,1,3.5-3.08H425.76l.13,0H426a3,3,0,0,1,.65.19l.35.16h0a3.75,3.75,0,0,1,1.17,1,1.27,1.27,0,0,1,.13.19A3.65,3.65,0,0,1,428.9,296.07Z" transform="translate(-51.71 -98.02)"/><path class="cls-7" d="M357.06,309.05H278.51l-.2,0a3.42,3.42,0,0,1-2.74-3.09,1.55,1.55,0,0,1,0-.31,1.28,1.28,0,0,1,0-.19v-9.36a1.15,1.15,0,0,1,0-.19c0-.12,0-.24,0-.35a2.59,2.59,0,0,1,.09-.4,3.27,3.27,0,0,1,3-2.68h68.75c0,.14.06.27.1.41,1.13,4.81,3.68,11.26,9.38,16.06A1.79,1.79,0,0,1,357.06,309.05Z" transform="translate(-51.71 -98.02)"/><rect class="cls-8" x="357.72" y="194.44" width="1.66" height="16.59"/><rect class="cls-8" x="352.09" y="194.44" width="1.66" height="16.59"/><rect class="cls-8" x="345.34" y="194.44" width="1.66" height="16.59"/><rect class="cls-8" x="335" y="194.44" width="1.66" height="16.59"/><rect class="cls-8" x="324.06" y="194.44" width="1.66" height="16.59"/><rect class="cls-8" x="307.29" y="194.44" width="1.66" height="16.59"/><rect class="cls-8" x="291.59" y="194.44" width="1.66" height="16.59"/><rect class="cls-8" x="277.57" y="194.44" width="1.66" height="16.59"/><rect class="cls-8" x="363.08" y="194.44" width="1.66" height="16.59"/><rect class="cls-8" x="366.62" y="194.44" width="1.66" height="16.59"/><rect class="cls-8" x="370.03" y="194.44" width="1.66" height="16.59"/><path class="cls-8" d="M426,292.51V309a4.21,4.21,0,0,1-.62.05h-1V292.45h1A3.18,3.18,0,0,1,426,292.51Z" transform="translate(-51.71 -98.02)"/><path class="cls-8" d="M428.29,294.05v13.4a3.55,3.55,0,0,1-1.66,1.35V292.7A3.49,3.49,0,0,1,428.29,294.05Z" transform="translate(-51.71 -98.02)"/><path class="cls-6" d="M436.45,279.88v9.37a3.66,3.66,0,0,1-.6,2,3.6,3.6,0,0,1-1.66,1.35,3.69,3.69,0,0,1-.65.18,3.18,3.18,0,0,1-.62.06H286.63a3.49,3.49,0,0,1-1.63-.41,3.64,3.64,0,0,1-1.87-2.62c0-.08,0-.15,0-.23a.92.92,0,0,1,0-.16,1.15,1.15,0,0,1,0-.19v-9.37a1.09,1.09,0,0,1,0-.18,2,2,0,0,1,0-.35,3.58,3.58,0,0,1,3.5-3.08H432.92a3.18,3.18,0,0,1,.62.06,3,3,0,0,1,.65.19,3.54,3.54,0,0,1,1.66,1.35A3.63,3.63,0,0,1,436.45,279.88Z" transform="translate(-51.71 -98.02)"/><path class="cls-7" d="M364.62,292.86H286.25a2.81,2.81,0,0,1-1.45-.41,3.6,3.6,0,0,1-1.67-2.62c0-.08,0-.15,0-.23a.92.92,0,0,1,0-.16,1.15,1.15,0,0,1,0-.19v-9.37a1.09,1.09,0,0,1,0-.18,2,2,0,0,1,0-.35c0-.14.05-.26.08-.39a3.27,3.27,0,0,1,3-2.69H355c1.07,4.75,3.52,11.28,9.14,16.18Z" transform="translate(-51.71 -98.02)"/><rect class="cls-8" x="365.28" y="178.26" width="1.66" height="16.59"/><rect class="cls-8" x="359.65" y="178.26" width="1.66" height="16.59"/><rect class="cls-8" x="352.9" y="178.26" width="1.66" height="16.59"/><rect class="cls-8" x="342.56" y="178.26" width="1.66" height="16.59"/><rect class="cls-8" x="331.62" y="178.26" width="1.66" height="16.59"/><rect class="cls-8" x="314.85" y="178.26" width="1.66" height="16.59"/><rect class="cls-8" x="299.15" y="178.26" width="1.66" height="16.59"/><rect class="cls-8" x="285.13" y="178.26" width="1.66" height="16.59"/><rect class="cls-8" x="370.64" y="178.26" width="1.66" height="16.59"/><rect class="cls-8" x="374.18" y="178.26" width="1.66" height="16.59"/><rect class="cls-8" x="377.59" y="178.26" width="1.66" height="16.59"/><path class="cls-8" d="M433.54,276.33v16.48a4.21,4.21,0,0,1-.62.05h-1V276.27h1A3.18,3.18,0,0,1,433.54,276.33Z" transform="translate(-51.71 -98.02)"/><path class="cls-8" d="M435.85,277.87v13.4a3.61,3.61,0,0,1-1.66,1.35v-16.1A3.49,3.49,0,0,1,435.85,277.87Z" transform="translate(-51.71 -98.02)"/><path class="cls-6" d="M448.41,263.29v9.37a3.64,3.64,0,0,1-.61,2h0a1.77,1.77,0,0,1-.16.22,3.22,3.22,0,0,1-.78.74,3.64,3.64,0,0,1-.47.28h0l-.25.11a3.27,3.27,0,0,1-.65.19,4.21,4.21,0,0,1-.62,0H298.58a3.58,3.58,0,0,1-3.5-3.07l0-.35v-9.74a3.6,3.6,0,0,1,3.12-3.4,2.83,2.83,0,0,1,.41,0H444.87a4.2,4.2,0,0,1,.62.06,2.72,2.72,0,0,1,.65.19,3.48,3.48,0,0,1,1.5,1.12l.16.23h0A3.66,3.66,0,0,1,448.41,263.29Z" transform="translate(-51.71 -98.02)"/><path class="cls-7" d="M376.58,276.27H298.21a3.26,3.26,0,0,1-3-2.68,2.74,2.74,0,0,1-.09-.39l0-.35v-9.74a3.46,3.46,0,0,1,2.78-3.4,2.34,2.34,0,0,1,.38,0H367v0C368.06,264.59,370.62,271.33,376.58,276.27Z" transform="translate(-51.71 -98.02)"/><rect class="cls-8" x="377.23" y="161.67" width="1.66" height="16.59"/><rect class="cls-8" x="371.61" y="161.67" width="1.66" height="16.59"/><rect class="cls-8" x="364.86" y="161.67" width="1.66" height="16.59"/><rect class="cls-8" x="354.51" y="161.67" width="1.66" height="16.59"/><rect class="cls-8" x="343.57" y="161.67" width="1.66" height="16.59"/><rect class="cls-8" x="326.8" y="161.67" width="1.66" height="16.59"/><rect class="cls-8" x="311.1" y="161.67" width="1.66" height="16.59"/><rect class="cls-8" x="297.08" y="161.67" width="1.66" height="16.59"/><rect class="cls-8" x="382.59" y="161.67" width="1.66" height="16.59"/><rect class="cls-8" x="386.13" y="161.67" width="1.66" height="16.59"/><rect class="cls-8" x="389.55" y="161.67" width="1.66" height="16.59"/><path class="cls-8" d="M445.49,259.74v16.47a3.18,3.18,0,0,1-.62.06h-1V259.68h1A3.18,3.18,0,0,1,445.49,259.74Z" transform="translate(-51.71 -98.02)"/><path class="cls-8" d="M447.8,261.28v13.4a3.61,3.61,0,0,1-1.66,1.35v-16.1A3.49,3.49,0,0,1,447.8,261.28Z" transform="translate(-51.71 -98.02)"/><path class="cls-6" d="M429.2,246.73v9.37a3.61,3.61,0,0,1-.6,2,3.54,3.54,0,0,1-1.67,1.36,3.36,3.36,0,0,1-.64.18l-.2,0h0l-.14,0H279.38a3.59,3.59,0,0,1-3.53-3.42,1.28,1.28,0,0,1,0-.19v-9.37a1.21,1.21,0,0,1,0-.19,3.6,3.6,0,0,1,2.5-3.26,3.26,3.26,0,0,1,1-.16H425.94l.35.05a3.36,3.36,0,0,1,.64.18l.31.14h0a3.42,3.42,0,0,1,1,.78l0,0,0,0a3.44,3.44,0,0,1,.28.36A3.66,3.66,0,0,1,429.2,246.73Z" transform="translate(-51.71 -98.02)"/><path class="cls-7" d="M357.37,259.71H279a3.07,3.07,0,0,1-2.64-1.64,3.8,3.8,0,0,1-.51-1.78,1.28,1.28,0,0,1,0-.19v-9.37a1.21,1.21,0,0,1,0-.19,3.49,3.49,0,0,1,2.51-3.34,2.74,2.74,0,0,1,.64-.08h68.75c0,.13.06.25.09.38,1.14,4.84,3.71,11.36,9.5,16.18Z" transform="translate(-51.71 -98.02)"/><rect class="cls-8" x="358.03" y="145.1" width="1.66" height="16.59"/><rect class="cls-8" x="352.4" y="145.1" width="1.66" height="16.59"/><rect class="cls-8" x="345.65" y="145.1" width="1.66" height="16.59"/><rect class="cls-8" x="335.31" y="145.1" width="1.66" height="16.59"/><rect class="cls-8" x="324.37" y="145.1" width="1.66" height="16.59"/><rect class="cls-8" x="307.6" y="145.1" width="1.66" height="16.59"/><rect class="cls-8" x="291.9" y="145.1" width="1.66" height="16.59"/><rect class="cls-8" x="277.88" y="145.1" width="1.66" height="16.59"/><rect class="cls-8" x="363.39" y="145.1" width="1.66" height="16.59"/><rect class="cls-8" x="366.92" y="145.1" width="1.66" height="16.59"/><rect class="cls-8" x="370.34" y="145.1" width="1.66" height="16.59"/><path class="cls-8" d="M426.29,243.18v16.47a3.21,3.21,0,0,1-.63.06h-1V243.12h1A3.21,3.21,0,0,1,426.29,243.18Z" transform="translate(-51.71 -98.02)"/><path class="cls-8" d="M428.6,244.71v13.4a3.67,3.67,0,0,1-1.66,1.36V243.36A3.71,3.71,0,0,1,428.6,244.71Z" transform="translate(-51.71 -98.02)"/><path class="cls-6" d="M440,230.52v9.37a3.63,3.63,0,0,1-2.27,3.37,3.46,3.46,0,0,1-.65.18,3.18,3.18,0,0,1-.62.06H290.14a3.55,3.55,0,0,1-1.59-.38,3.65,3.65,0,0,1-1.94-2.89s0-.1,0-.15v-9.74a3.59,3.59,0,0,1,3.12-3.4,2.77,2.77,0,0,1,.42,0H436.42a3.18,3.18,0,0,1,.62.06,2.86,2.86,0,0,1,.65.19,3.49,3.49,0,0,1,1.66,1.35A3.56,3.56,0,0,1,440,230.52Z" transform="translate(-51.71 -98.02)"/><path class="cls-7" d="M368.13,243.5H289.76a2.83,2.83,0,0,1-1.41-.38,3.64,3.64,0,0,1-1.74-2.89s0-.1,0-.15v-9.74a3.46,3.46,0,0,1,2.78-3.4,2.34,2.34,0,0,1,.38,0H358.5v0c1.07,4.75,3.53,11.28,9.17,16.18A5.63,5.63,0,0,0,368.13,243.5Z" transform="translate(-51.71 -98.02)"/><rect class="cls-8" x="368.78" y="128.9" width="1.66" height="16.59"/><rect class="cls-8" x="363.16" y="128.9" width="1.66" height="16.59"/><rect class="cls-8" x="356.41" y="128.9" width="1.66" height="16.59"/><rect class="cls-8" x="346.06" y="128.9" width="1.66" height="16.59"/><rect class="cls-8" x="335.12" y="128.9" width="1.66" height="16.59"/><rect class="cls-8" x="318.35" y="128.9" width="1.66" height="16.59"/><rect class="cls-8" x="302.65" y="128.9" width="1.66" height="16.59"/><rect class="cls-8" x="288.63" y="128.9" width="1.66" height="16.59"/><rect class="cls-8" x="374.14" y="128.9" width="1.66" height="16.59"/><rect class="cls-8" x="377.68" y="128.9" width="1.66" height="16.59"/><rect class="cls-8" x="381.1" y="128.9" width="1.66" height="16.59"/><path class="cls-8" d="M437,227v16.47a3.18,3.18,0,0,1-.62.06h-1V226.91h1A3.18,3.18,0,0,1,437,227Z" transform="translate(-51.71 -98.02)"/><path class="cls-8" d="M439.35,228.51v13.4a3.61,3.61,0,0,1-1.66,1.35v-16.1A3.49,3.49,0,0,1,439.35,228.51Z" transform="translate(-51.71 -98.02)"/><path class="cls-6" d="M444.54,214v9.37a3.64,3.64,0,0,1-.61,2,3.49,3.49,0,0,1-1.66,1.35,3,3,0,0,1-.65.19l-.2,0H294.71a3.58,3.58,0,0,1-3.53-3.43c0-.06,0-.12,0-.18V214c0-.06,0-.12,0-.19a3.57,3.57,0,0,1,3.53-3.42H441a3.18,3.18,0,0,1,.62.06,3.69,3.69,0,0,1,.65.18,3.61,3.61,0,0,1,1.66,1.35A3.67,3.67,0,0,1,444.54,214Z" transform="translate(-51.71 -98.02)"/><path class="cls-7" d="M372.7,226.94H294.33a3.39,3.39,0,0,1-3.15-3.43c0-.06,0-.12,0-.18V214c0-.06,0-.12,0-.19a3.38,3.38,0,0,1,3.15-3.42h68.75c1.1,4.87,3.65,11.61,9.59,16.56Z" transform="translate(-51.71 -98.02)"/><rect class="cls-8" x="373.36" y="112.33" width="1.66" height="16.59"/><rect class="cls-8" x="367.73" y="112.33" width="1.66" height="16.59"/><rect class="cls-8" x="360.98" y="112.33" width="1.66" height="16.59"/><rect class="cls-8" x="350.64" y="112.33" width="1.66" height="16.59"/><rect class="cls-8" x="339.7" y="112.33" width="1.66" height="16.59"/><rect class="cls-8" x="322.93" y="112.33" width="1.66" height="16.59"/><rect class="cls-8" x="307.23" y="112.33" width="1.66" height="16.59"/><rect class="cls-8" x="293.21" y="112.33" width="1.66" height="16.59"/><rect class="cls-8" x="378.72" y="112.33" width="1.66" height="16.59"/><rect class="cls-8" x="382.26" y="112.33" width="1.66" height="16.59"/><rect class="cls-8" x="385.67" y="112.33" width="1.66" height="16.59"/><path class="cls-8" d="M441.62,210.41v16.47a3.18,3.18,0,0,1-.62.06h-1V210.35h1A3.18,3.18,0,0,1,441.62,210.41Z" transform="translate(-51.71 -98.02)"/><path class="cls-8" d="M443.93,211.94v13.4a3.49,3.49,0,0,1-1.66,1.35v-16.1A3.61,3.61,0,0,1,443.93,211.94Z" transform="translate(-51.71 -98.02)"/><path class="cls-9" d="M398.17,115.81s-7.69,13.14-14.73,13.32S365.68,123,365.68,123s-6.47-17.51-2.08-24.36c0,0,4.4-2.35,9,1.8a15.14,15.14,0,0,1,2.38,2.77,7.67,7.67,0,0,0,3.7,3c5,1.86,11-2.51,13.22,1.71a27.85,27.85,0,0,0,3.89,5.59A18.67,18.67,0,0,0,398.17,115.81Z" transform="translate(-51.71 -98.02)"/><path class="cls-9" d="M298,210.59s27.16-79.94,76-81.46c0,0,45.12,6.09,47.63,81.46Z" transform="translate(-51.71 -98.02)"/><path class="cls-10" d="M360.65,131.57s19.59,5.3,25.64,2.18c0,0,.91-10-7.34-8.55-5.65,1-9.33-2.34-11.49-3.68C364.4,119.62,359.83,127.41,360.65,131.57Z" transform="translate(-51.71 -98.02)"/><path class="cls-11" d="M377.7,116.57c-1.25,1.14-5.1-16.09-5.1-16.09a15.14,15.14,0,0,1,2.38,2.77,7.67,7.67,0,0,0,3.7,3C378.69,106.79,378.92,115.46,377.7,116.57Z" transform="translate(-51.71 -98.02)"/><path class="cls-11" d="M395.79,113.59c-.28.19-9.34,6.79-10.57,6.79S391.9,108,391.9,108A27.85,27.85,0,0,0,395.79,113.59Z" transform="translate(-51.71 -98.02)"/><path class="cls-12" d="M324.53,188.26c-.5-.52,19.22-35.27,24.65-35.53s17.64,7.62,26.47,8.63,17.4-2,19.07,4.31,6.27,28.84,3.45,32.44S335.37,199.51,324.53,188.26Z" transform="translate(-51.71 -98.02)"/><path class="cls-13" d="M343.1,308.92a.53.53,0,0,1,0,.13,95,95,0,0,1-2.19,16.44v0c-.18.77-.36,1.55-.56,2.32a90.36,90.36,0,0,1-4.82,14.24,84.71,84.71,0,0,1-9.19,16.18,3.91,3.91,0,0,1-.3.41A75.4,75.4,0,0,1,310,374.85q-1.93,1.44-4,2.75c-.92.59-1.85,1.14-2.78,1.68s-1.84,1.17-2.72,1.83a34.87,34.87,0,0,1-9.3,4.64v-7.29c0-.06,0-.12,0-.18s0-.24,0-.36.05-.27.08-.4a3.28,3.28,0,0,1,3-2.67H278.69a3.26,3.26,0,0,1-3-2.68,2.74,2.74,0,0,1-.09-.39c0-.12,0-.24,0-.35a1.28,1.28,0,0,1,0-.19v-9.37a1.21,1.21,0,0,1,0-.19c0-.11,0-.23,0-.35a2.74,2.74,0,0,1,.09-.39,3.26,3.26,0,0,1,3-2.68h6.11a3.62,3.62,0,0,1-1.67-2.62c0-.08,0-.16,0-.24a.81.81,0,0,1,0-.16,1.09,1.09,0,0,1,0-.18v-9.37a1.09,1.09,0,0,1,0-.18,2,2,0,0,1,0-.35c0-.14.05-.26.08-.39a3.27,3.27,0,0,1,3-2.69h3.51a3.26,3.26,0,0,1-3-2.68,2.74,2.74,0,0,1-.09-.39c0-.12,0-.24,0-.35v-9.75a3.45,3.45,0,0,1,2.78-3.39H279a3.39,3.39,0,0,1-3.15-3.43,1.15,1.15,0,0,1,0-.19v-9.36a1.21,1.21,0,0,1,0-.19v-.15a3.49,3.49,0,0,1,2.46-3.18,3.42,3.42,0,0,1-2.74-3.09,1.55,1.55,0,0,1,0-.31,1.28,1.28,0,0,1,0-.19v-9.36a1.15,1.15,0,0,1,0-.19c0-.12,0-.24,0-.35a2.59,2.59,0,0,1,.09-.4,3.27,3.27,0,0,1,3-2.68h6.11a3.6,3.6,0,0,1-1.67-2.62c0-.08,0-.15,0-.23a.92.92,0,0,1,0-.16,1.15,1.15,0,0,1,0-.19v-9.37a1.09,1.09,0,0,1,0-.18,2,2,0,0,1,0-.35c0-.14.05-.26.08-.39a3.27,3.27,0,0,1,3-2.69h12a3.26,3.26,0,0,1-3-2.68,2.74,2.74,0,0,1-.09-.39l0-.35v-9.74a3.46,3.46,0,0,1,2.78-3.4H279a3.07,3.07,0,0,1-2.64-1.64V258l2-14.71v-.08l2.83-21a63.1,63.1,0,0,1,9.69,2.37l.56.18,0,0q2.77.93,5.48,2.13s0,0,.05,0a70.91,70.91,0,0,1,22.72,16.18l.35.38A79.7,79.7,0,0,1,329.59,256c.57.91,1.12,1.84,1.66,2.79.18.31.36.62.52.93l0,0q1.29,2.32,2.46,4.77a91.47,91.47,0,0,1,4.63,11.79,92.8,92.8,0,0,1,3.54,16.18c0,.14,0,.27.06.41A96.07,96.07,0,0,1,343.1,308.92Z" transform="translate(-51.71 -98.02)"/><ellipse class="cls-7" cx="203.3" cy="202.34" rx="71.95" ry="87.41"/><path class="cls-6" d="M287,378.69c-.88.65-1.78,1.29-2.7,1.9l-.93.61c-.71.46-1.42.9-2.13,1.33-34.27,20.45-76.06,4.76-94.69-36.29-17.77-39.15-8.22-87.65,20.93-113.11a73.05,73.05,0,0,1,7.35-5.64c.92-.61,1.85-1.21,2.78-1.77s1.83-1.07,2.75-1.57a63.91,63.91,0,0,1,8.57-3.86,60.08,60.08,0,0,1,13-3.19,61.26,61.26,0,0,1,39.29,8.45c12.83,7.62,23.92,19.95,31.34,36.3C331.21,303,319.7,354.49,287,378.69Z" transform="translate(-51.71 -98.02)"/><path class="cls-7" d="M250,383.3a54.1,54.1,0,0,1-18-3.12c-16.54-5.81-30.23-19.1-38.55-37.42A92.88,92.88,0,0,1,188,283.18c4.79-20.09,15.73-36.72,30.81-46.82,31.13-20.85,70.42-7,87.59,30.78s5.79,85.55-25.34,106.4A55.52,55.52,0,0,1,250,383.3Zm-.2-154.55a54,54,0,0,0-30.18,9.46c-14.67,9.83-25.32,26-30,45.56a90.36,90.36,0,0,0,5.33,58c8.09,17.82,21.41,30.76,37.5,36.41s33,3.36,47.72-6.46C310.5,351.4,321.56,305,304.86,268.16,293.44,243,272,228.75,249.82,228.75Z" transform="translate(-51.71 -98.02)"/><path class="cls-7" d="M281.63,312.56c-.14-.44-.29-.85-.44-1.26a23.5,23.5,0,0,0-4.37-7.57,19.14,19.14,0,0,0-6.87-4.92,27.93,27.93,0,0,0-8.73-2,96.66,96.66,0,0,0-10.48-.16,43,43,0,0,1-6-.15,12.8,12.8,0,0,1-4.21-1.12,7.51,7.51,0,0,1-2.81-2.31,12.68,12.68,0,0,1-1.79-3.59,15.77,15.77,0,0,1-.82-4.2,10.83,10.83,0,0,1,.52-4,9.82,9.82,0,0,1,2-3.45,11.67,11.67,0,0,1,3.67-2.72,7.82,7.82,0,0,1,7.86.09q3.65,2.17,5.94,9l14.66-7.23a34.93,34.93,0,0,0-4.8-9.67,22,22,0,0,0-6.49-6.09,18.24,18.24,0,0,0-7.87-2.52,22.6,22.6,0,0,0-8.85,1.1l-4.15-12.42-8.12,4,4.1,12.25a31.16,31.16,0,0,0-7.45,6.44,28,28,0,0,0-4.7,7.95,25.91,25.91,0,0,0-1.72,9,28.42,28.42,0,0,0,1.54,9.57,24.8,24.8,0,0,0,4.83,8.89,18.84,18.84,0,0,0,6.86,4.88,27.37,27.37,0,0,0,8.74,1.92,83.73,83.73,0,0,0,10.51,0,31.51,31.51,0,0,1,5.72.05,12.66,12.66,0,0,1,4.19,1.13,8.1,8.1,0,0,1,2.93,2.42,13.68,13.68,0,0,1,2,4,12.71,12.71,0,0,1,.7,4.22,10.58,10.58,0,0,1-.78,4,11.25,11.25,0,0,1-2.33,3.55,13.74,13.74,0,0,1-3.93,2.81,14.59,14.59,0,0,1-4.31,1.35,8.1,8.1,0,0,1-4.34-.53,10.06,10.06,0,0,1-4-3.11,19.86,19.86,0,0,1-3.2-6.32l-14.66,7.23A32.16,32.16,0,0,0,236,344a20.84,20.84,0,0,0,7.6,5.76,19.55,19.55,0,0,0,8.63,1.51,30.62,30.62,0,0,0,8.88-1.79l3.79,11.33,8.06-4-3.8-11.39a33.31,33.31,0,0,0,7.52-6.38,27.17,27.17,0,0,0,4.55-7.21c.08-.2.17-.41.25-.62a25.69,25.69,0,0,0,1.77-8.94A28.65,28.65,0,0,0,281.63,312.56Z" transform="translate(-51.71 -98.02)"/></svg>