<svg xmlns="http://www.w3.org/2000/svg" xmlns:xlink="http://www.w3.org/1999/xlink" viewBox="0 0 320.96 417.11"><defs><style>.cls-1{isolation:isolate;}.cls-2{fill:#f38397;}.cls-3{fill:#e07585;}.cls-4{fill:#162f4c;}.cls-12,.cls-13,.cls-15,.cls-17,.cls-5,.cls-6,.cls-8{mix-blend-mode:multiply;}.cls-5{fill:url(#Degradado_sin_nombre_11);}.cls-6{fill:url(#Degradado_sin_nombre_11-2);}.cls-7{fill:#035468;}.cls-10,.cls-8{fill:#5c5eaa;}.cls-8{opacity:0.29;}.cls-9{fill:#229dc3;}.cls-10{opacity:0.57;}.cls-11{fill:#ca463d;}.cls-12{fill:url(#Degradado_sin_nombre_5);}.cls-13,.cls-15{fill:none;stroke-miterlimit:10;stroke-width:1.34px;}.cls-13{stroke:#4e6eb5;}.cls-14{fill:#d4453d;}.cls-15{stroke:#d4453d;}.cls-16,.cls-17{fill:#4d5866;}.cls-18{fill:#f89b1c;}.cls-19{fill:#fbbb3a;}.cls-20{fill:#fff;}</style><linearGradient id="Degradado_sin_nombre_11" x1="205.91" y1="33.74" x2="83.08" y2="102.77" gradientUnits="userSpaceOnUse"><stop offset="0" stop-color="#293753" stop-opacity="0"/><stop offset="1" stop-color="#293753"/></linearGradient><linearGradient id="Degradado_sin_nombre_11-2" x1="74.37" y1="155.48" x2="128.1" y2="27.54" xlink:href="#Degradado_sin_nombre_11"/><linearGradient id="Degradado_sin_nombre_5" x1="241.91" y1="220.21" x2="248.41" y2="237.97" gradientTransform="translate(232.91 -106.29) rotate(45)" gradientUnits="userSpaceOnUse"><stop offset="0" stop-color="#f26a25" stop-opacity="0"/><stop offset="1" stop-color="#f26a25"/></linearGradient></defs><title>arcade-2</title><g class="cls-1"><g id="Layer_2" data-name="Layer 2"><path class="cls-2" d="M410.51,116.25v323.2a18.76,18.76,0,0,1-18.76,18.76H238.15V289.37L286,41.1l49.37.14a15.22,15.22,0,0,1,10.71,4.45l60,59.77A15.26,15.26,0,0,1,410.51,116.25Z" transform="translate(-89.56 -41.1)"/><path class="cls-3" d="M410.51,273.56V439.45a18.76,18.76,0,0,1-18.76,18.76H238.15V380.39c4.23-7.38,7.39-15.41,12.3-22.37,12.3-17.43,35.86-26,56.51-20.65,5.37,1.41,10.58,3.66,16.12,4.09,11.26.85,21.78-6.1,29.24-14.58s12.77-18.65,19.93-27.39A83.19,83.19,0,0,1,410.51,273.56Z" transform="translate(-89.56 -41.1)"/><rect class="cls-2" x="137.42" y="41.1" width="148.59" height="33.51" transform="translate(333.88 74.61) rotate(180)"/><rect class="cls-3" x="276.91" y="41.1" width="9.1" height="33.51" transform="translate(473.36 74.61) rotate(180)"/><rect class="cls-3" x="137.42" y="41.1" width="9.1" height="33.51" transform="translate(194.39 74.61) rotate(180)"/><polygon class="cls-4" points="87.58 39.72 91.04 188.96 224.32 78.81 224.32 39.72 87.58 39.72"/><polygon class="cls-5" points="91.04 42.62 129.2 79.66 223.28 79.66 223.28 41.44 91.04 42.62"/><polygon class="cls-6" points="91.04 42.62 129.2 79.66 91.04 188.96 91.04 42.62"/><path class="cls-7" d="M171.49,74.61V230.06h9.11V83.72H311V230.06h9.1V74.61Z" transform="translate(-89.56 -41.1)"/><polygon class="cls-8" points="81.94 33.51 230.53 37.94 230.53 33.51 81.94 33.51"/><polygon class="cls-4" points="221.42 79.66 221.42 188.96 91.04 188.96 129.2 79.66 221.42 79.66"/><polygon class="cls-7" points="0 248.26 148.59 248.26 230.53 188.97 81.94 188.97 0 248.26"/><path class="cls-9" d="M262.84,253.45c1.39,4.71-5.24,10.81-14.8,13.61s-18.42,1.24-19.81-3.47S233.48,252.77,243,250,261.46,248.73,262.84,253.45Z" transform="translate(-89.56 -41.1)"/><path class="cls-4" d="M249.05,234.73v23a7.1,7.1,0,0,1-8.34.65V235.87Z" transform="translate(-89.56 -41.1)"/><path class="cls-10" d="M249.05,234.73v5.8a13.23,13.23,0,0,1-8.34.07v-4.73Z" transform="translate(-89.56 -41.1)"/><circle class="cls-11" cx="244.76" cy="228" r="11.53" transform="translate(-179.09 198.75) rotate(-45)"/><circle class="cls-12" cx="244.76" cy="228" r="11.53" transform="translate(-179.09 198.75) rotate(-45)"/><ellipse class="cls-9" cx="178.42" cy="250.82" rx="13.81" ry="8.89" transform="translate(-108.64 -26.36) rotate(-4.49)"/><ellipse class="cls-13" cx="178.42" cy="250.02" rx="10.25" ry="6.6" transform="translate(-108.58 -26.37) rotate(-4.49)"/><ellipse class="cls-14" cx="155.95" cy="268.64" rx="13.81" ry="8.89" transform="translate(-110.11 -28.07) rotate(-4.49)"/><path class="cls-15" d="M166.17,267c.28,3.63-4.06,6.94-9.7,7.38s-10.45-2.14-10.74-5.78,4.06-6.93,9.7-7.38S165.88,263.41,166.17,267Z" transform="translate(-89.56 -41.1)"/><path class="cls-2" d="M238.15,289.37V458.21H108.32a18.76,18.76,0,0,1-18.76-18.76V289.37Z" transform="translate(-89.56 -41.1)"/><rect class="cls-16" x="100.09" y="268.55" width="23.31" height="56.1"/><rect class="cls-17" x="109.28" y="280.29" width="5.13" height="30.95"/><path class="cls-18" d="M204,324.07v21a10.44,10.44,0,0,1-1.59.12,10.62,10.62,0,1,1,0-21.24A10.44,10.44,0,0,1,204,324.07Z" transform="translate(-89.56 -41.1)"/><path class="cls-19" d="M204,325.74V343.4a8.32,8.32,0,0,1-1.59.15,8.81,8.81,0,0,1-3.53-.73,9,9,0,0,1,3.53-17.22A9.22,9.22,0,0,1,204,325.74Z" transform="translate(-89.56 -41.1)"/><path class="cls-3" d="M238.15,380.39v77.82H108.32a18.76,18.76,0,0,1-18.76-18.76V410.73A69.35,69.35,0,0,1,176,385.49c13.74,6.15,27.54,17.06,42.06,13.11,8.58-2.34,15-9.56,19.52-17.22C237.77,381.05,238,380.73,238.15,380.39Z" transform="translate(-89.56 -41.1)"/><path class="cls-20" d="M132.58,351.75c-4,.87-4.73,1.58-5.6,5.6-.87-4-1.58-4.73-5.59-5.6,4-.87,4.72-1.58,5.59-5.6C127.85,350.17,128.56,350.88,132.58,351.75Z" transform="translate(-89.56 -41.1)"/></g></g></svg>