<svg id="Layer_1" data-name="Layer 1" xmlns="http://www.w3.org/2000/svg" viewBox="0 0 435.03 431.99"><defs><style>.cls-1{fill:#fcb874;}.cls-2{fill:#f9a050;}.cls-3{fill:#f26d6f;}.cls-4{fill:#febf50;}.cls-5{fill:#5fa852;}.cls-6{fill:#60a852;}.cls-7{fill:#fff;opacity:0.76;}</style></defs><title>fastfood</title><path class="cls-1" d="M78.85,369.82c79.13-4.24,281.73-14,356.78-6.91,13.25,1.24,23.41,13.79,23.27,28.73,0,.33,0,.67,0,1-.35,31.43-22.19,57.26-50.12,59.27-77.74,5.61-238.71,15.32-322.84,6.73-20.84-2.13-37.81-20-40.63-43.31,0-.29-.07-.57-.1-.86C42.59,391.47,58.22,370.92,78.85,369.82Z" transform="translate(-28.38 -30.07)"/><path class="cls-2" d="M78.64,409.26c43.46,2.6,332.68,12.08,376.41-33-4.11-7.39-11.16-12.56-19.42-13.33-75.05-7.06-277.65,2.67-356.78,6.91-15.47.83-28.13,12.59-32.39,28.13C51.17,403.58,60.68,408.18,78.64,409.26Z" transform="translate(-28.38 -30.07)"/><path class="cls-3" d="M54.75,329.87c55.94-3.74,275.31-17.13,374.55-4.25,7.57,1,12.58,9.32,10.54,17.57a81.19,81.19,0,0,1-8.36,21.14c-2.67,4.61-7.4,6.08-12.07,7.73-70.19,24.79-233.46,36.8-352.89,6.77,0,0-15.21-1.22-22.4-32.43C42.27,338.34,47.35,330.36,54.75,329.87Z" transform="translate(-28.38 -30.07)"/><path class="cls-4" d="M149.94,287.53l-99,33.37a2.54,2.54,0,0,0,.13,4.74c28.15,7.35,123.36,33,176.8,57.24a89,89,0,0,0,70.44,1.65c52.9-21.19,140-56.51,144-61,5.71-6.41-17.11-24.83-72.72-28.83S149.94,287.53,149.94,287.53Z" transform="translate(-28.38 -30.07)"/><path class="cls-3" d="M59,240.64c-4.29,13.75-8.21,38.27,9.17,65.32,5.85,9.1,15.28,14.44,25.28,14.51,52.5.34,237.13,1.23,300.17-2.59,16-1,30.48-11.76,36.9-28.3,4.63-11.89,5.37-27-5.74-43.92a27.34,27.34,0,0,0-22.43-12.72L73.59,229.19C67,229.12,61.14,233.7,59,240.64Z" transform="translate(-28.38 -30.07)"/><path class="cls-5" d="M120,226.67s41.35,19.22,62,34.43,27.09,4.81,46.34,7.21,49.91,23.23,63.46,6.41-11.41-41.64,22.81-46.45S120,226.67,120,226.67Z" transform="translate(-28.38 -30.07)"/><path class="cls-6" d="M329.85,227.47s87.83-17.62,113.08-9.61,26.35,13.61,7.68,27.23-25.25,16.82-56,16S281.55,253.1,329.85,227.47Z" transform="translate(-28.38 -30.07)"/><path class="cls-5" d="M161.93,232.27S74.1,214.66,48.85,222.66s-26.35,13.62-7.68,27.23,25.25,16.82,56,16S210.24,257.9,161.93,232.27Z" transform="translate(-28.38 -30.07)"/><path class="cls-1" d="M224.8,30.46C104.16,36.16,49.2,135.09,41.54,197.78c12.8,8.41,56.2,17.33,196.1,11.27,130.82-5.67,178.75-10.22,197.08-18.27C427.45,135.45,392.14,22.57,224.8,30.46Z" transform="translate(-28.38 -30.07)"/><path class="cls-2" d="M41.54,197.78a112.58,112.58,0,0,0-.8,20.22c.72,12.11,5.15,23.29,15.92,24.33,59.59,5.78,243.35,19.53,362.15-16.09,10.89-3.26,18-14.93,16.82-27.52q-.36-3.74-.91-7.94c-18.33,8.05-66.26,12.6-197.08,18.27C97.74,215.11,54.34,206.19,41.54,197.78Z" transform="translate(-28.38 -30.07)"/><path class="cls-2" d="M157.07,51.28c11.53-5.27,11.41,4.81,0,13.62S137.82,60.09,157.07,51.28Z" transform="translate(-28.38 -30.07)"/><path class="cls-2" d="M195.57,45.68c-13,0-27.8,16.82-11.41,14.41S207.69,45.68,195.57,45.68Z" transform="translate(-28.38 -30.07)"/><path class="cls-2" d="M177,70.5c-11.17,3.14-9.26,14.42,2.86,10.42S185.59,68.1,177,70.5Z" transform="translate(-28.38 -30.07)"/><path class="cls-2" d="M222.67,40.07c-8.54,1-14.26,15.22,0,12.82S236.21,38.47,222.67,40.07Z" transform="translate(-28.38 -30.07)"/><path class="cls-2" d="M209.12,74.51c-9.12,2-16.4,26.43,0,24S223.38,71.31,209.12,74.51Z" transform="translate(-28.38 -30.07)"/><path class="cls-2" d="M246.19,76.11c-5.69.85-13.54,23.23-2.85,20S256.89,74.51,246.19,76.11Z" transform="translate(-28.38 -30.07)"/><path class="cls-2" d="M254,45.68c-7.85,0-15.69,8.81,2.85,10.41S266.16,45.68,254,45.68Z" transform="translate(-28.38 -30.07)"/><path class="cls-2" d="M289,45.68c-9.21-1.94-15.68,8.81-3.56,9.61S300.38,48.08,289,45.68Z" transform="translate(-28.38 -30.07)"/><path class="cls-2" d="M267.58,69.7c-4.19-3.14-4.27,4.81,3.57,6.41S271.86,72.91,267.58,69.7Z" transform="translate(-28.38 -30.07)"/><path class="cls-2" d="M318.21,64.1c-9.08-6.8-27.81-2.4-5,8.81S326.76,70.5,318.21,64.1Z" transform="translate(-28.38 -30.07)"/><path class="cls-2" d="M122.85,81.72c10.36-7.76,17.11,3.2,6.41,9.61S112.15,89.73,122.85,81.72Z" transform="translate(-28.38 -30.07)"/><path class="cls-7" d="M252.4,194.37a2.27,2.27,0,0,1-2.14-2.13,2.4,2.4,0,0,1,1.88-2.71c4.35-.6,8.63-1.26,12.74-1.95a2.2,2.2,0,0,1,2.46,2,2.41,2.41,0,0,1-1.82,2.76c-4.14.7-8.47,1.36-12.85,2Z" transform="translate(-28.38 -30.07)"/><path class="cls-7" d="M199,195.43c-69.89,0-130.48-6.55-131.2-6.63a2.37,2.37,0,0,1-1.94-2.65A2.22,2.22,0,0,1,68.17,184c.85.09,85.32,9.23,169.77,5.86a2.26,2.26,0,0,1,2.23,2.34,2.32,2.32,0,0,1-2.08,2.51C224.94,195.21,211.79,195.43,199,195.43Z" transform="translate(-28.38 -30.07)"/></svg>