<svg xmlns="http://www.w3.org/2000/svg" viewBox="0 0 189.48 332.07"><defs><style>.cls-1{fill:#172f4c;}.cls-2{fill:#fcc9b9;}.cls-3{fill:#229dc3;}.cls-4{fill:#1a7996;}.cls-5{fill:#f9b3a0;}.cls-6{fill:#fff;}.cls-7{fill:#fd8496;}.cls-8{fill:#e07585;}.cls-9{fill:#e05357;}.cls-10{fill:#e1d1df;}</style></defs><title>human-11</title><g id="Layer_2" data-name="Layer 2"><path class="cls-1" d="M102.48,346c4.27,1.71,5.32,1.23,1.63,10.47s-12.4,21.38-14.53,21.34c-3.31-.06-4-6.21-2-15.71C89.74,352.39,98.2,344.3,102.48,346Z" transform="translate(-4.14 -45.75)"/><path class="cls-2" d="M86.56,368.78a52.56,52.56,0,0,1,1.06-6.67c2.12-9.72,10.58-17.81,14.86-16.1l1.44.56c-3.37,8.07-10.37,22.46-17.36,22.21Z" transform="translate(-4.14 -45.75)"/><path class="cls-1" d="M128.24,247.29c4.08-2.13,4.41-3.24,9,5.58s8.14,23.33,6.72,24.93c-2.2,2.47-7.34-1-13.2-8.75-6-7.94-6.61-19.63-2.53-21.76Z" transform="translate(-4.14 -45.75)"/><path class="cls-2" d="M135.14,274.2a53.88,53.88,0,0,1-4.37-5.15c-6-7.94-6.61-19.63-2.53-21.76l1.37-.73C133.54,254.38,139.88,269.06,135.14,274.2Z" transform="translate(-4.14 -45.75)"/><path class="cls-3" d="M123.64,195.62s5.46,22-11.54,54.5c0,0-5.29,9.17,3.54,3.91s11.48-5.83,11.48-5.83a36.39,36.39,0,0,1,1.22,16.87s-27.86,23.79-36.25,23c0,0,0,35,12.58,59a22.89,22.89,0,0,1-14.34,7.63c-6.21-8.59-42.24-90.55-18-168.27l51.29,9.17Z" transform="translate(-4.14 -45.75)"/><path class="cls-4" d="M68.4,201.45q1.62-7.5,3.95-15l51.29,9.17a43.61,43.61,0,0,1,.84,9.84c-10.3,1.86-35.09,4.88-56.08-4Z" transform="translate(-4.14 -45.75)"/><path class="cls-4" d="M92.11,289.49c-6-2.05-7-5.23-6.89-14.33.07-10.39,1.92-19.6,4-29.24,2-9.44,2.78-13.25,1.48-15.36s-2.58-2.33-6.15-5.27a40.08,40.08,0,0,1-4.47-4.44,58.19,58.19,0,0,0,8.79,4.91c2.61,1.22,5.64,2.13,5.75,2.34S90,246,88.26,256.21c-1.8,10.45-3.5,26.29.07,29.22a16.91,16.91,0,0,0,3.76,2.65c0,.08,0,.57,0,1.41Z" transform="translate(-4.14 -45.75)"/><path class="cls-2" d="M147.59,151.09s2.94,14.78,5.76,14.76,16-19.24,19-22l8.53,5.77s-26,39.77-32.13,40.11-21.89-23.09-20.28-36.45,19.13-2.21,19.13-2.21Z" transform="translate(-4.14 -45.75)"/><path class="cls-5" d="M131.16,167.59c-2-5.06-3.2-10.16-2.7-14.29,1.62-13.36,19.13-2.21,19.13-2.21s.83,4.17,2,8.08a4.46,4.46,0,0,0-1.82,1.41c-1.54,2.26-1.09,3.91-5.59,3.5s-8.64-.24-9.63.91A8.76,8.76,0,0,0,131.16,167.59Z" transform="translate(-4.14 -45.75)"/><path class="cls-2" d="M179.1,151.31c-1.86.48-7.17-.64-7.36-9.09-.06-2.85,1.49-3.48.74-8.42-.11-.77-.16-3,.62-3.45,1.73-1.14,3.69,6,3.74,6,.3-.05,6.28-7,8.16-6.49,2.15.57-2.67,7-2.41,7.14s6.24-4.87,8.1-3c1.27,1.29-4.86,6.51-4.76,6.72s7.23-1.69,7.66.19-5.3,3.18-6.48,4.4c-.11.11,5.93.8,5.48,2.35-.27.93-4.88,1.48-5.63,1.7-3,.91-4.79,1.19-7.86,2Z" transform="translate(-4.14 -45.75)"/><path class="cls-2" d="M73.78,121.52s-16.66,16.11-19.13,15.12-16.93-28.32-18-28.52c-3.42-.69-6.15,6-6.15,6s12.39,45.23,24.25,41.75,28.63-17.7,31.68-21.47S73.78,121.52,73.78,121.52Z" transform="translate(-4.14 -45.75)"/><path class="cls-5" d="M66.12,128.59c4.09-3.61,7.66-7.07,7.66-7.07s15.74,9.09,12.69,12.85A68.33,68.33,0,0,1,78,142.08c.06-1.3-.15-2.74-1.06-3.48-1.39-1.12-2.83-.69-4.44-2.24s-1.08-5.11-3.38-5.3C68.08,131,67,129.82,66.12,128.59Z" transform="translate(-4.14 -45.75)"/><path class="cls-2" d="M30.83,114.54c1.82.6,7.2-.16,7.94-8.58.26-2.84-1.24-3.57-.18-8.45.17-.76.36-2.93-.38-3.48-1.65-1.25-4.08,5.7-4.12,5.69-.31-.07-5.81-7.4-7.71-7-2.19.43,2.19,7.14,1.92,7.29s-5.9-5.28-7.88-3.52c-1.36,1.21,4.41,6.82,4.3,7s-7.11-2.17-7.65-.32,5.07,3.53,6.17,4.82c.1.12-6,.41-5.63,2,.21,1,4.77,1.81,5.51,2.08,3,1.1,4.7,1.5,7.71,2.49Z" transform="translate(-4.14 -45.75)"/><path class="cls-6" d="M126.27,158.3a27.78,27.78,0,0,0,.63,4.32c.14,0,1.51-1.05,2-1.11,1.45-.16,2.57,1.56,4.09,1.22s2.65-2.12,4.36-2.54c2.31-.57,4.62.47,6.94,0,1.72-.31,2.31-1.71,3.74-2.43s3.43-.32,5-1c.4-.18,1.57-.67,1.55-1.26,0-.34-.86-.58-1.1-.69a39.89,39.89,0,0,1-3.95-1.76,11.2,11.2,0,0,1-1.86-1.25c-.2-.17-.51-.62-.79-.66-.62-.09-1.77.71-2.33.93-2.15.82-4.34,1.51-6.53,2.19-3.57,1.13-11.81,4-11.81,4Z" transform="translate(-4.14 -45.75)"/><path class="cls-6" d="M81.81,133.62c3.24,4.4,0,7.13-3.89,2.12-.91-1.18-2.64-1-3.86-1.77-1.48-.94-.78-2.8-1.36-4.16s-2.24-1.71-2.9-3c-.56-1.13-.06-2.26-.19-3.43-.08-.81-2.35-2.4-1.33-3.25.3-.25.81.05,1.09.18,1.1.5,2.13,1.13,3.21,1.66a18.26,18.26,0,0,1,4.69,2.67,12.34,12.34,0,0,1,2.1,3.27A18,18,0,0,1,81.81,133.62Z" transform="translate(-4.14 -45.75)"/><path class="cls-7" d="M102.13,103.41c9.91.09,37.73,17.66,42.55,26.68,2,3.82,6.44,21.66,4.65,23.17-4.41,3.71-22.86,6.41-22.86,6.41s-.9,9.48-1.89,16.55c-1,7.34,1.85,22.08,1.36,25.08-1.15,7.09-57.77-.37-56.87-6.84.25-1.76,2-16.94,4.05-29.31,3.25-19.2,9.25-28,7.82-29.2C78.55,134,69,123.2,71.66,120.4c5-5.19,19-17.1,30.47-17Z" transform="translate(-4.14 -45.75)"/><path class="cls-6" d="M101.89,104c-.7-.64-3.18-3.33-4-2.19a5.54,5.54,0,0,0-.45,5.65c.42.83,1.5,1.75,1.43,2.76-.12,1.7-1.67,3-1.27,4.87s2.89,2.54,3.36,4.52-.52,4.29.79,5.88c2,2.38,6,.7,8.55,1.59,2.27.8,3,3.78,5.22,4.83,2.89,1.35,4.45-1.55,7.13-1.52s5.05,2,7.78,1.51c1.77-.29,2.09-2.15,3.61-2.79,1.93-.81,4.31.56,6.1-.33,1-.5.86-2.15,1.86-2.78s2-2,1.42-1.94a11.51,11.51,0,0,1-6.92-1.73" transform="translate(-4.14 -45.75)"/><path class="cls-2" d="M100.81,103.45c.45,0,.89,0,1.32,0,7.84.08,26.88,11.08,36.88,20.14-7.47,3.06-20.45,6-29.65.38S99.27,108.3,100.81,103.45Z" transform="translate(-4.14 -45.75)"/><path class="cls-8" d="M126.36,159.33s-.28-3.11-.48-5.57c-.29-3.44-.84-8.73-.83-12.19,0-1.22-.52,3.42-.65,4.65C124,149.62,124,157.41,126.36,159.33Z" transform="translate(-4.14 -45.75)"/><path class="cls-8" d="M124.37,179.15c-.18,7.78,2,19.51,1.57,22.15-1.15,7.09-57.77-.37-56.87-6.84.08-.54.29-2.34.61-4.93a89.51,89.51,0,0,0,27.34,0,65.63,65.63,0,0,0,22.34-7.49c1.7-.91,3.38-1.88,5-2.92Z" transform="translate(-4.14 -45.75)"/><path class="cls-8" d="M78.08,133.07c1-5.27,4.08-8.54,7.9-12.42,1.33-1.34,5.22-4.56,4.68-3.86a48.87,48.87,0,0,0-4.32,6.92c-2.19,4.14-3.48,8.59-5,13l-.28.79c.2-.8.2-1.31-.08-1.53a30.6,30.6,0,0,1-2.86-2.88Z" transform="translate(-4.14 -45.75)"/><path class="cls-2" d="M130.11,102.32c-2.07,4.1-2.16,8.81-2.35,13.75,0,0-4.46,7.11-15.15,6.71-5-.19-3.76-10.59-3.76-10.59a75.25,75.25,0,0,0,7-12l14.26,2.18Z" transform="translate(-4.14 -45.75)"/><path class="cls-5" d="M113.67,104.45c.74-1.37,1.46-2.81,2.18-4.31l14.26,2.18a18.18,18.18,0,0,0-1.45,4.12C121.36,107.82,116.43,106.06,113.67,104.45Z" transform="translate(-4.14 -45.75)"/><path class="cls-2" d="M106.92,78.81c-3.07-.11-5.09,2.67-5.21,5.82s1.49,5.52,4.66,5.71A5.37,5.37,0,0,0,112,85C112.15,81.88,110,78.93,106.92,78.81Z" transform="translate(-4.14 -45.75)"/><path class="cls-2" d="M142.16,59c-10.41-6.44-23.51.33-30.82,12.14s-3.82,28,5.13,32.58c7.55,3.87,22.42.81,29.73-11S152.56,65.49,142.16,59Z" transform="translate(-4.14 -45.75)"/><path class="cls-5" d="M108.85,76.48a25.56,25.56,0,0,1,2.49-5.3C118.65,59.37,131.75,52.6,142.16,59s11.35,21.92,4,33.73c-.17.28-.35.56-.53.83a20.74,20.74,0,0,1-6.37,1.52s-.2-6.11,1.87-10.21-.94-7.1-.09-11a15.27,15.27,0,0,1,.9-3.2l.14-.06s0-.12-.14.06c-1,.4-6.59,2.44-9.81-2-3.53-4.88-3.86-4-6.09-1.84s-8.77,5.61-11,5.61C113.7,72.45,111,74.46,108.85,76.48Z" transform="translate(-4.14 -45.75)"/><path class="cls-1" d="M118.26,71.43c-2.28-.23-4.37,1.25-4.23,1.81s1.59-1.08,3.86-.85,4.27,3.55,4.33,3S120.53,71.66,118.26,71.43Z" transform="translate(-4.14 -45.75)"/><path class="cls-1" d="M136.58,77.88c2,1.13,3.45,3.92,3,4.29s-1.32-2.16-3.31-3.3-5.33.84-5.05.35S134.59,76.75,136.58,77.88Z" transform="translate(-4.14 -45.75)"/><path class="cls-1" d="M133.84,83.34c2,1.08,2.73,3.33,2.3,3.71s-.69-1.76-2.71-2.84-4.22.62-4,.12a3.66,3.66,0,0,1,4.36-1Z" transform="translate(-4.14 -45.75)"/><path class="cls-1" d="M117.47,77.81c-2.27-.29-4.16,1.13-4,1.69s1.59-1,3.86-.74,3.08,2.95,3.15,2.38A3.67,3.67,0,0,0,117.47,77.81Z" transform="translate(-4.14 -45.75)"/><path class="cls-1" d="M122.59,99.64c4.36.36,5.51-4.91,5.68-7.61,0-.51-10.07-1.94-10.19-1.44-.47,2-.17,8.68,4.51,9Z" transform="translate(-4.14 -45.75)"/><path class="cls-9" d="M118.53,96.11l.55-.25a9,9,0,0,1,8,1,4.44,4.44,0,0,1-4.48,2.8C120.41,99.47,119.18,97.92,118.53,96.11Z" transform="translate(-4.14 -45.75)"/><path class="cls-6" d="M120.25,84.46h0" transform="translate(-4.14 -45.75)"/><path class="cls-1" d="M140.21,69.12l3-.63a14,14,0,0,0-.86,5.15c0,5,1.86,6.7,1.35,9.09-.86,4-4.81,6.42-6.09,10.24-1.1,3.31.58,3.57-.33,8.68-.84,4.69-3.74,8.07-3.46,8.09,6.17.52,3.92,3.67,13.81,2.23,6.46-.94,7.1-2.47,7.44-3,.44-.73-2.2-6.24-1.09-11.23,1-4.53,3.68-5.63,4.64-9.2,1.61-5.94-.91-8.14-1.34-12.44s.9-8.1-1.8-11.77c-2.41-3.27-7.4-3.24-7.41-3.27-1.7-8-8.71-11.35-13.47-13.55-10.11-4.67-20.43.42-25.64,11.69a11.49,11.49,0,0,1-5.21,5.28,14.26,14.26,0,0,0-5.15,3.22c-2.48,2.63-1.32,6.77-2.8,9.83s-5.09,2.58-5.84,9c-.34,3,9.63,11.08,10.11,9.33.8-2.91,4.3-8.51,5.85-11,2.35-3.81,3.06-8.41,6-11.89,2.43-2.86,5.41-1.81,8.34-3.27,3.25-1.62,4.79-7.92,9.33-6.88,1.93.44,2.74,2.67,3.91,4a7.59,7.59,0,0,0,6.65,2.32Z" transform="translate(-4.14 -45.75)"/><path class="cls-1" d="M159.17,84.06a13.11,13.11,0,0,1-.51,4.45c-1,3.57-3.63,4.67-4.64,9.2-1.11,5,1.53,10.5,1.09,11.23-.34.56-1,2.09-7.44,3-9.89,1.44-7.64-1.71-13.81-2.23-.28,0,2.62-3.4,3.46-8.09.91-5.11-.77-5.37.33-8.68,1-2.92,3.51-5,5-7.63C148.68,85.11,154.32,84.62,159.17,84.06ZM95.75,77.68a51.72,51.72,0,0,0,11.54,4.57A20.71,20.71,0,0,1,106,84.81c-1.55,2.52-5,8.12-5.85,11-.48,1.75-10.45-6.36-10.11-9.33C90.74,80.21,94.17,80.63,95.75,77.68Z" transform="translate(-4.14 -45.75)"/><path class="cls-10" d="M51,200,51,200" transform="translate(-4.14 -45.75)"/><path class="cls-10" d="M4.14,256.16v0" transform="translate(-4.14 -45.75)"/></g></svg>