<svg xmlns="http://www.w3.org/2000/svg" xmlns:xlink="http://www.w3.org/1999/xlink" viewBox="0 0 335.32 448.13"><defs><style>.cls-1,.cls-22,.cls-25{fill:none;}.cls-2,.cls-5{fill:#142148;}.cls-3{fill:#f9b39a;}.cls-4{fill:#035468;}.cls-5{opacity:0.6;}.cls-16,.cls-17,.cls-6{fill:#fff;}.cls-16,.cls-7{opacity:0.3;}.cls-8{fill:#243f87;stroke:#035468;}.cls-22,.cls-8{stroke-miterlimit:10;}.cls-9{fill:#229dc3;}.cls-10{fill:#162f4c;}.cls-11{fill:#e78886;}.cls-12{fill:#e38b6d;}.cls-13{fill:#f5887a;}.cls-13,.cls-15,.cls-18{opacity:0.4;}.cls-14{fill:#f9c243;}.cls-15,.cls-19{fill:#bb9130;}.cls-17{opacity:0.15;}.cls-20{clip-path:url(#clip-path);}.cls-21{fill:#febf50;}.cls-22{stroke:#fff;stroke-width:5px;}.cls-23{fill:#152f4c;}.cls-24{fill:#748bc6;}.cls-25{stroke:#f9c243;stroke-linecap:round;stroke-linejoin:round;stroke-width:14.34px;}</style><clipPath id="clip-path" transform="translate(-73.16 -30.5)"><path class="cls-1" d="M367.89,282.73l4.45,3.33-5.87,4.08L362.23,287a39.39,39.39,0,0,1-13.49,5.33L345,284.93a32.15,32.15,0,0,0,12.17-4.77c2.78-1.94,3.22-3.06,2.26-3.78-3.53-2.64-16.77,10.7-27.23,2.85-4.52-3.4-4.92-8.63,1-14.06l-4.37-3.28,5.87-4.08L339,261a35.39,35.39,0,0,1,10.77-4.13l3.89,7.2a28.46,28.46,0,0,0-10.19,4.08c-2.87,2-3,3.24-2,4,3.36,2.52,16.65-10.79,27-3C372.73,272.34,373.25,277.43,367.89,282.73Z"/></clipPath></defs><title>human-9</title><g id="Layer_2" data-name="Layer 2"><path class="cls-2" d="M396.73,442.34A59.71,59.71,0,0,1,375.61,449l2,4.42c-15,12.75-17.59,20.61-15.35,25.16l46.21-19.63Z" transform="translate(-73.16 -30.5)"/><path class="cls-3" d="M385.67,423.29l-19,6.11,9,19.58a59.71,59.71,0,0,0,21.12-6.64Z" transform="translate(-73.16 -30.5)"/><path class="cls-3" d="M277.8,460.17V438.88l-20.3-.31L253.36,460A92,92,0,0,0,277.8,460.17Z" transform="translate(-73.16 -30.5)"/><path class="cls-2" d="M253.36,460l-.94,4.86c-22,5.11-29,9-30.45,13.76H277.8V460.17A92,92,0,0,1,253.36,460Z" transform="translate(-73.16 -30.5)"/><path class="cls-4" d="M344.64,268.57l-39.13,34.55-2.75,2.44-4.43,34.22L283.94,451.11l-37.23-.62c-3.31-72.26-8.14-147.38,2.75-198.13l3.81-18,88.83,4.58Z" transform="translate(-73.16 -30.5)"/><path class="cls-3" d="M178.19,157.2l-2.83-2.32a10.21,10.21,0,0,0-6.71-2.07l-35.35,1.08c-.2,0-.28.19-.12.28,7.67,4.29,17.2,6.55,28.09,7.31l10.89,10.77Z" transform="translate(-73.16 -30.5)"/><path class="cls-2" d="M305.51,303.12l-2.75,2.44-4.43,34.22c-13.65-21.35-9.53-51.95-9.53-51.95Z" transform="translate(-73.16 -30.5)"/><path class="cls-4" d="M344.64,268.57c9.69,52.9,29.39,109.78,53.51,165.26l-34.9,8.72c-42.72-66.2-59.85-102-74.45-154.72Z" transform="translate(-73.16 -30.5)"/><polygon class="cls-3" points="229.89 114.39 223.89 133.05 236.89 142.52 252.7 140.23 256.3 113.48 229.89 114.39"/><path class="cls-5" d="M257.71,249.54c17.77,3,41.88,10.32,72.33,3.67l3.81-10.09-73.28-1.38Z" transform="translate(-73.16 -30.5)"/><path class="cls-6" d="M297.68,159.87s11.43,12.38,29.19,4.13L342.73,184l-7.29,62.38c-26.61,7.37-52.28,4.93-77.41-3.21l19-72.93Z" transform="translate(-73.16 -30.5)"/><g class="cls-7"><path class="cls-8" d="M296.1,167.74a21.93,21.93,0,0,0,6.18,4.37,26.23,26.23,0,0,0,7.69,2.26,28,28,0,0,0,8.27-.11,30.07,30.07,0,0,0,7.89-2.54,16.61,16.61,0,0,1-7.31,3.91,24.08,24.08,0,0,1-9.32.54,21.88,21.88,0,0,1-8.42-2.92A11.85,11.85,0,0,1,296.1,167.74Z" transform="translate(-73.16 -30.5)"/></g><path class="cls-9" d="M298.16,160.1,274,160a58.5,58.5,0,0,0-22,4.35L219.32,178,178.19,157.2l-16.82,13.3,41.93,25.95c6.65,3.94,15.57,5.25,23.82,3.49l25.52-5.44-25.7,67.19c18,3.67,31.92,6.09,48.85,1.61C285,248.16,301.1,212,298.16,160.1Z" transform="translate(-73.16 -30.5)"/><path class="cls-10" d="M302.13,126.16s-6.9.71-13.33-6.53c-6-6.77,4.07-22.43,21.57-15.94,11.11-7.8,27-4.3,37.94,7a11.48,11.48,0,0,1,8.07,3.28c5.38,4.9,3.1,20.94-13.46,27.28Z" transform="translate(-73.16 -30.5)"/><path class="cls-11" d="M301.76,148.89s3.18,7.48,10.84,8.46c9.83,1.26,14.63-7.12,14.63-7.12Z" transform="translate(-73.16 -30.5)"/><path class="cls-3" d="M343.13,123.27l-2,13.7s-3.39,8.35-14.95,15-27-.44-27.83-10c0-.1,0-.21,0-.31a54.59,54.59,0,0,1-.1-7.18,43.28,43.28,0,0,1,3-14.72l20.54-6.33Z" transform="translate(-73.16 -30.5)"/><path class="cls-10" d="M340.48,135.13c-5.48-1.72-7.61-5.72-7.78-11a72.26,72.26,0,0,1-32.76-1.84l-5.53-7.35,23.33-6.38,26.63,5.08,5.83,12.76Z" transform="translate(-73.16 -30.5)"/><path class="cls-2" d="M323.17,133.42a2.32,2.32,0,0,1-2.48,1.48,1.56,1.56,0,0,1-1.09-2.19,2.34,2.34,0,0,1,2.49-1.49A1.56,1.56,0,0,1,323.17,133.42Z" transform="translate(-73.16 -30.5)"/><ellipse class="cls-2" cx="305.38" cy="131.11" rx="2" ry="1.76" transform="translate(-74.42 228.77) rotate(-45.92)"/><path class="cls-12" d="M311.94,130.5a3.12,3.12,0,0,1-.46,3.1,4.75,4.75,0,0,1-1.42,1.27c-.57.36-1.16.6-1.61.88a1.91,1.91,0,0,0-.87.88c-.11.27,0,.59.37,1,.72.77,1.49,1.61,2.16,2.46l-.47.26a31.06,31.06,0,0,1-2.79-2.17,1.82,1.82,0,0,1-.72-1.75,2.84,2.84,0,0,1,1.35-1.51c.6-.34,1.19-.59,1.67-.85a4.69,4.69,0,0,0,1.21-.93,3.5,3.5,0,0,0,1-2.54Z" transform="translate(-73.16 -30.5)"/><path class="cls-2" d="M317.78,129a9.42,9.42,0,0,1,5.09-1.05,6.49,6.49,0,0,1,2.56.82,4.79,4.79,0,0,1,1.64,1.54l-.41.2a8.41,8.41,0,0,0-4-1.65,15.06,15.06,0,0,0-4.69.47Z" transform="translate(-73.16 -30.5)"/><path class="cls-2" d="M302.8,127.13a7.79,7.79,0,0,1,2-.92,6.48,6.48,0,0,1,2.44-.29,4.79,4.79,0,0,1,2.3.76,3.93,3.93,0,0,1,1.34,1.43l-.42.19a6.69,6.69,0,0,0-3.36-1.48,12.18,12.18,0,0,0-4,.62Z" transform="translate(-73.16 -30.5)"/><path class="cls-6" d="M306.76,142.83l9.66.2a4.93,4.93,0,0,1-2.36,3.34,5.48,5.48,0,0,1-6-.33A3.42,3.42,0,0,1,306.76,142.83Z" transform="translate(-73.16 -30.5)"/><ellipse class="cls-13" cx="252.28" cy="109.66" rx="5.16" ry="3.73"/><path class="cls-13" d="M302.05,138.12c0,1.7-1.57,3.14-3.73,3.58a54.59,54.59,0,0,1-.1-7.18C300.43,134.93,302.05,136.39,302.05,138.12Z" transform="translate(-73.16 -30.5)"/><path class="cls-9" d="M364.94,230.27,353.52,270.4l26.23-.61L390,240.36c4.89-14.05,3.45-28.89-4.32-42.25a188,188,0,0,0-14.26-20.68c-2.7-3.48-7.19-6-12.51-7.09L326.75,164c-15.76,35.36-23.12,69.44-15.53,101.21l36.27-3.29c.48-17.5-.12-37,8.57-60.54C356.06,201.38,366.21,211.47,364.94,230.27Z" transform="translate(-73.16 -30.5)"/><path class="cls-3" d="M336.14,134.74c4.34-2.32,6.58-2.53,9.43-.71,3.43,2.2,2.54,11.71-10.77,8.28Z" transform="translate(-73.16 -30.5)"/><path class="cls-12" d="M338.36,138a2.11,2.11,0,0,1,.3-1.65,3.66,3.66,0,0,1,1.58-1.28,5.08,5.08,0,0,1,2.33-.44,2.58,2.58,0,0,1,2,.92l-.4.21a2.9,2.9,0,0,0-1.64-.32,4.71,4.71,0,0,0-1.66.41,3.54,3.54,0,0,0-2,2.15Z" transform="translate(-73.16 -30.5)"/><polygon class="cls-2" points="175.18 177.23 173.95 176.98 182.99 153.58 184.22 153.83 175.18 177.23"/><path class="cls-2" d="M352.56,214.06l-1.25-.14c.94-4.56,6.74-20.25,7-20.92l1.23.24C359.47,193.4,353.5,209.55,352.56,214.06Z" transform="translate(-73.16 -30.5)"/><path class="cls-14" d="M386.19,301.75a55.88,55.88,0,0,1-15.74,7.51A67.18,67.18,0,0,1,355.83,312a70.3,70.3,0,0,1-19.65-1.22A61.1,61.1,0,0,1,319.77,305a50.69,50.69,0,0,1-6.59-4.18c-9.64-7.24-14.44-16.57-14.44-25.89,0-9.78,5.28-19.55,15.8-26.88a52,52,0,0,1,6.85-4,57,57,0,0,1,7.74-3.14c1.82-.6,3.69-1.11,5.58-1.54A69.6,69.6,0,0,1,342.5,238a71.6,71.6,0,0,1,19.94.61,63.44,63.44,0,0,1,9.5,2.37,58.5,58.5,0,0,1,10.75,4.81,49.87,49.87,0,0,1,4.86,3.22C407.33,263.83,406.72,287.45,386.19,301.75Z" transform="translate(-73.16 -30.5)"/><path class="cls-15" d="M380.08,254.19l.85.72c13.66,11.93,12.49,29.64-3.19,40.56a43,43,0,0,1-5.21,3.08,50.35,50.35,0,0,1-14.69,4.6,56.76,56.76,0,0,1-20.95-.64A46.68,46.68,0,0,1,321.08,296l-.5-.34c-14.56-11.92-13.66-30.13,2.34-41.28a41.76,41.76,0,0,1,4.65-2.79,49.39,49.39,0,0,1,14.16-4.71,56.15,56.15,0,0,1,28.36,2.28A44.3,44.3,0,0,1,380.08,254.19Z" transform="translate(-73.16 -30.5)"/><path class="cls-15" d="M381.2,255.25c.43.32.85.65,1.25,1-15.94-11-41.11-11-57.05.07s-16.79,29.28-2.23,41.2c-.45-.29-.89-.61-1.31-.93-15.84-11.89-15.4-30.77,1-42.18S365.36,243.36,381.2,255.25Z" transform="translate(-73.16 -30.5)"/><path class="cls-16" d="M342.5,238l-.76,8.84v0c-1.05.18-2.08.4-3.1.64l-.53.13-.46.11-.09,0c-1.37.36-2.71.77-4,1.23-.28.1-.58.2-.87.32l-.59.22-1.15.46-.28.13-.27.11-1.22.55-.18.09-.57.27c-.28.13-.55.27-.82.42l1.56-10.69c1.82-.6,3.69-1.11,5.58-1.54A69.6,69.6,0,0,1,342.5,238Z" transform="translate(-73.16 -30.5)"/><path class="cls-17" d="M336.89,302.51l-.71,8.25a60.66,60.66,0,0,1-16.41-5.82l1.31-9v0c.34.23.69.45,1,.66A47,47,0,0,0,336.89,302.51Z" transform="translate(-73.16 -30.5)"/><path class="cls-17" d="M382.69,245.77l-1.73,9,0,.15-.85-.72a44.3,44.3,0,0,0-10-5.08v0l1.84-8.12A56.91,56.91,0,0,1,382.69,245.77Z" transform="translate(-73.16 -30.5)"/><path class="cls-16" d="M372.53,298.55l-2.07,10.71A67.4,67.4,0,0,1,355.84,312l2-8.83A50.35,50.35,0,0,0,372.53,298.55Z" transform="translate(-73.16 -30.5)"/><g class="cls-18"><path class="cls-19" d="M368.92,283.5l4.46,3.35L367,291.16l-4.27-3.2a39.8,39.8,0,0,1-13.56,5.36l-3.74-7.41a32.22,32.22,0,0,0,12.23-4.78c2.8-1.95,3.24-3.08,2.27-3.8-3.54-2.66-16.86,10.75-27.36,2.86-4.55-3.41-4.95-8.67,1-14.13l-5.18-3.89,5.9-4.1,5.09,3.82a35.36,35.36,0,0,1,10.82-4.15l3.92,7.23a28.82,28.82,0,0,0-10.25,4.1c-2.88,2-3,3.26-2,4,3.38,2.54,16.74-10.84,27.12-3C373.31,273.27,374.3,278.17,368.92,283.5Z" transform="translate(-73.16 -30.5)"/></g><path class="cls-14" d="M367.89,282.73l4.45,3.33-5.87,4.08L362.23,287a39.39,39.39,0,0,1-13.49,5.33L345,284.93a32.15,32.15,0,0,0,12.17-4.77c2.78-1.94,3.22-3.06,2.26-3.78-3.53-2.64-16.77,10.7-27.23,2.85-4.52-3.4-4.92-8.63,1-14.06l-4.37-3.28,5.87-4.08L339,261a35.39,35.39,0,0,1,10.77-4.13l3.89,7.2a28.46,28.46,0,0,0-10.19,4.08c-2.87,2-3,3.24-2,4,3.36,2.52,16.65-10.79,27-3C372.73,272.34,373.25,277.43,367.89,282.73Z" transform="translate(-73.16 -30.5)"/><g class="cls-20"><polygon class="cls-16" points="252.42 195.99 238.1 294.01 258.32 295.48 266.94 196.32 252.42 195.99"/><polygon class="cls-16" points="278.14 302.62 303.91 188.95 316.33 191.28 294.2 306.16 278.14 302.62"/></g><path class="cls-3" d="M358.21,267.94,354.9,275s-9.17,8.2-7.88,9.24c2.69,2.18,9.75-3.1,9.75-3.1l-5.69,10.49c-.31.7.26,1.44,1.25,1.6,3.07.5,9.57,1,15.4-2.34,7.59-4.31,5.82-14.67,5.82-14.67l3.25-7.68Z" transform="translate(-73.16 -30.5)"/><path class="cls-9" d="M388.74,244l-3.1,8.88-.06.19-.5,1.4-5.33,15.33-6.85.16-1.79,0-17.59.41.28-1,.28-1,.89-3.09.26-1,2-7.06.26-.93,2.7-9.49.68-2.42,0,0h0l2.87-9.79a71.41,71.41,0,0,1,7.81,1.26C378,237.31,387.63,238.53,388.74,244Z" transform="translate(-73.16 -30.5)"/><path class="cls-21" d="M176.93,93.83c-3.74-12.44-20.83-20.29-38-17.39C122.59,79.19,112,90.91,115,102.84c1.45,5.68,5.66,10.46,11.42,13.77,4.55,2.61,7.75,6.25,9,10.35h0L172,121.18h0a13.79,13.79,0,0,1,2.2-12.11A17.25,17.25,0,0,0,176.93,93.83Z" transform="translate(-73.16 -30.5)"/><path class="cls-22" d="M137.75,98.8l-1.22-.4c-1.24-.41-2.72.27-2.61,1.26a1.21,1.21,0,0,0,.18.5L150.45,126l7.63-1.21V96.38a1.1,1.1,0,0,0,0-.18c-.18-1.14-2.25-1.5-3.25-.61l-.45.4C150.34,99.55,143.52,100.71,137.75,98.8Z" transform="translate(-73.16 -30.5)"/><ellipse class="cls-2" cx="159.04" cy="141.74" rx="6.1" ry="2.61" transform="translate(-89.7 -9.41) rotate(-7.21)"/><polygon class="cls-23" points="62.25 96.47 98.86 90.69 102.19 101.73 65.6 107.57 62.25 96.47"/><path class="cls-23" d="M138.68,137.82,175.29,132l-2.46,4.18a9.19,9.19,0,0,1-6.58,4l-14.61,2.33a12,12,0,0,1-8.31-1.62Z" transform="translate(-73.16 -30.5)"/><path class="cls-24" d="M175.73,127l-40.17,6.35a1.19,1.19,0,0,1-1.34-.62h0c-.13-.44.26-.87.86-1l40.18-6.34a1.16,1.16,0,0,1,1.33.62h0C176.72,126.45,176.34,126.89,175.73,127Z" transform="translate(-73.16 -30.5)"/><path class="cls-24" d="M177.5,132.85l-40.18,6.34a1.16,1.16,0,0,1-1.33-.62h0c-.13-.43.25-.87.86-1L177,131.27a1.16,1.16,0,0,1,1.33.62h0C178.49,132.32,178.11,132.76,177.5,132.85Z" transform="translate(-73.16 -30.5)"/><line class="cls-25" x1="7.17" y1="29.89" x2="37.36" y2="41.53"/><line class="cls-25" x1="98.73" y1="8.03" x2="83.2" y2="31.49"/><line class="cls-25" x1="45.18" y1="7.17" x2="58.4" y2="32.22"/></g></svg>