<svg id="Layer_1" data-name="Layer 1" xmlns="http://www.w3.org/2000/svg" viewBox="0 0 143.23 349.52"><defs><style>.cls-1{fill:#162f4c;}.cls-2{fill:#fbc9ba;}.cls-3{fill:#f9b3a0;}.cls-4{fill:#035468;}.cls-5{fill:#fff;}.cls-6{fill:#004252;}.cls-7{fill:#152f4c;}.cls-8{fill:#76392a;}.cls-9{fill:#e05357;}.cls-10{fill:#17304d;}</style></defs><title>human-17</title><path class="cls-1" d="M65.21,383.52s0-5.5.74-7.33,3.48-9.27,3.48-9.27H80.1s2,6.79,2.11,9,0,7.59,0,7.59Z" transform="translate(-28.39 -34)"/><path class="cls-1" d="M133,383.52s0-5.5-.74-7.33-3.48-9.27-3.48-9.27H118.07s-2,6.79-2.11,9,0,7.59,0,7.59Z" transform="translate(-28.39 -34)"/><path class="cls-2" d="M90.21,74.88s-.37,12.24-1.86,17.73l-11.79,8.65,44.36,7L110.34,92.86s-3.19-16.42-1.52-22.49S90.21,74.88,90.21,74.88Z" transform="translate(-28.39 -34)"/><path class="cls-3" d="M90.15,76.57s3.51,8.89,10.11,8.69,8.11-8.06,8.11-8.06Z" transform="translate(-28.39 -34)"/><path class="cls-1" d="M86.2,69.37s-2.13-11.21-3.62-14.61S79.85,36.22,96.35,35.43c0,0,6.33.79,9.81-1.43,0,0,0,2.22-.87,3a10.59,10.59,0,0,1,10.17,3.79c4.47,5.22-3,23.51-2.6,27.82Z" transform="translate(-28.39 -34)"/><path class="cls-2" d="M99.51,81.83c-4.79-.09-13.6-6.8-13.6-15.11v-13c0-3,2-5.52,4.46-5.52h18.27c2.45,0,4.47,2.49,4.47,5.52V66C113.11,74.7,105,81.93,99.51,81.83Z" transform="translate(-28.39 -34)"/><path class="cls-1" d="M85.91,60.67s0-7.79,5.88-9,19,3.8,20.85-1.88-25.36-5.58-26.73-2S85.91,60.67,85.91,60.67Z" transform="translate(-28.39 -34)"/><path class="cls-4" d="M66.55,193.08s1.86,60-.93,94.25,0,81.89,0,81.89a20.16,20.16,0,0,0,18.61,0s10.61-66.14,10.55-81.89c-.08-16.76,11.55-91.63,11.55-91.63Z" transform="translate(-28.39 -34)"/><path class="cls-4" d="M132.58,369.22a20.16,20.16,0,0,1-18.61,0s-10.61-66.15-10.54-81.89c0-7.08-2-24.53-4.41-42.32-3.27-24.33-7.15-49.31-7.15-49.31L133.22,193s-3.41,60.11-.62,94.35S132.58,369.22,132.58,369.22Z" transform="translate(-28.39 -34)"/><path class="cls-5" d="M132.72,203.07s-17.62,3.59-33.7,3.59A154.16,154.16,0,0,1,78.31,205c-6.7-.93-11.51-1.92-11.51-1.92s-3.58.33-1.47-18.22c1.61-14.11,1.11-26.86.75-40,0-1.45,0-3.18.07-5.1.69-15.28,5.08-42.8,8.43-44.28a58.86,58.86,0,0,1,13.77-2.89c0,.18,5.1,8,11.16,8.91,3.76-1.57,6.72-2.9,10.83-8.66a112.85,112.85,0,0,1,17,3.45s.63,2.92,3,53.49C131.3,169.84,137.8,203.13,132.72,203.07Z" transform="translate(-28.39 -34)"/><path class="cls-6" d="M103.43,287.33c0-7.08-2-24.53-4.41-42.32,2.47-10.62,8.5-20.85,8.5-20.85C115.15,246.69,103.43,287.33,103.43,287.33Z" transform="translate(-28.39 -34)"/><path class="cls-5" d="M49.79,155.71c-.42.36,1.05,4.19,3.2,9.17,4.45,10.24,11.83,25.36,11.83,25.36a46.83,46.83,0,0,1-2.24,6.91c-12.42-10.27-20.43-19-25.54-25.71-7.18-9.42-8.65-14.83-8.65-14.83C56,97.37,75.5,95.18,75.5,95.18l-2.3,39.16S51.07,154.59,49.79,155.71Z" transform="translate(-28.39 -34)"/><path class="cls-2" d="M63.35,191s6.7-6.53,9.43-2.88,3.22,9.41,1.11,9-6.45-2.49-7.07-1.44-3.4,3-4.24,1.45S63.35,191,63.35,191Z" transform="translate(-28.39 -34)"/><path class="cls-2" d="M64.82,190.24a46.83,46.83,0,0,1-2.24,6.91c-12.42-10.27-20.43-19-25.54-25.71,3.86-.3,9.48-1.75,16-6.56C57.44,175.12,64.82,190.24,64.82,190.24Z" transform="translate(-28.39 -34)"/><path class="cls-5" d="M171.61,156.61S170.14,162,163,171.44c-5.11,6.7-13.12,15.44-25.54,25.71a46.83,46.83,0,0,1-2.24-6.91s7.38-15.12,11.83-25.36c2.15-5,3.62-8.81,3.2-9.17-1-.87-14.51-13.24-20.54-18.75l-2.87-2.62-1.38-38.57S144,97.37,171.61,156.61Z" transform="translate(-28.39 -34)"/><path class="cls-2" d="M136.65,191s-6.7-6.53-9.43-2.88-3.23,9.41-1.12,9,6.46-2.49,7.08-1.44,3.4,3,4.24,1.45S136.65,191,136.65,191Z" transform="translate(-28.39 -34)"/><path class="cls-2" d="M135.18,190.24a46.83,46.83,0,0,0,2.24,6.91c12.42-10.27,20.42-19,25.54-25.71-3.86-.3-9.48-1.75-16-6.56C142.56,175.12,135.18,190.24,135.18,190.24Z" transform="translate(-28.39 -34)"/><path class="cls-7" d="M89,89.62a4.86,4.86,0,0,0-2.52,3.22s7.9,8.55,13.07,8.68Z" transform="translate(-28.39 -34)"/><path class="cls-7" d="M99.51,101.52,109.7,89.19a5.07,5.07,0,0,1,2.08,3.86S103.89,101.85,99.51,101.52Z" transform="translate(-28.39 -34)"/><path class="cls-7" d="M97.67,100.61S89.88,171.34,92.6,180a60.39,60.39,0,0,0,4.74,11,2.7,2.7,0,0,0,4.78,0c2.06-3.77,4.76-9.24,4.76-12,0-4.5-5.9-78.34-5.9-78.34Z" transform="translate(-28.39 -34)"/><path class="cls-7" d="M95.63,97.15A46.17,46.17,0,0,1,103.2,97a.84.84,0,0,1,.61,1.24c-.81,1.52-2.44,4.15-4.16,4.15C97.25,102.35,93.5,97.32,95.63,97.15Z" transform="translate(-28.39 -34)"/><path class="cls-8" d="M99.24,76.53c-3-.66-4.42-2.85-4.18-4.64,0-.34,3.14-.35,4.58-.45s4.62,0,4.63.33C104.33,73.14,103.16,77.38,99.24,76.53Z" transform="translate(-28.39 -34)"/><path class="cls-9" d="M96,74.67c.23-.08.46-.16.7-.22a8.13,8.13,0,0,1,5.49.4,5.79,5.79,0,0,1,.85.47,3.58,3.58,0,0,1-3.75,1.21A5.83,5.83,0,0,1,96,74.67Z" transform="translate(-28.39 -34)"/><path class="cls-10" d="M94.75,62.22a1.56,1.56,0,0,1-1.68,1.08c-.82,0-1.4-.6-1.29-1.25A1.55,1.55,0,0,1,93.46,61C94.28,61,94.86,61.57,94.75,62.22Z" transform="translate(-28.39 -34)"/><path class="cls-10" d="M108.22,62.18a1.57,1.57,0,0,1-1.7,1.08c-.82,0-1.39-.61-1.27-1.26a1.57,1.57,0,0,1,1.7-1.08C107.77,61,108.33,61.53,108.22,62.18Z" transform="translate(-28.39 -34)"/><path class="cls-10" d="M96,59.37a7.43,7.43,0,0,0-6.08.27" transform="translate(-28.39 -34)"/><path class="cls-10" d="M103.91,58.9a7.38,7.38,0,0,1,6,.45" transform="translate(-28.39 -34)"/></svg>