<?xml version="1.0" encoding="utf-8"?>
<!-- Generator: Adobe Illustrator 24.0.1, SVG Export Plug-In . SVG Version: 6.00 Build 0)  -->
<svg version="1.1" xmlns="http://www.w3.org/2000/svg" xmlns:xlink="http://www.w3.org/1999/xlink" x="0px" y="0px"
	 viewBox="0 0 200 200" style="enable-background:new 0 0 200 200;" xml:space="preserve">
<style type="text/css">
	.st0{fill:#F9B39B;}
	.st1{fill:#065569;stroke:#065569;stroke-width:0.9642;stroke-miterlimit:10;}
	.st2{fill:none;stroke:#FFFAEF;stroke-width:0.4173;stroke-linecap:square;stroke-linejoin:round;stroke-miterlimit:10;}
	.st3{fill:#1C7996;stroke:#1C7996;stroke-width:1.0365;stroke-miterlimit:10;}
	.st4{fill:none;stroke:#FFFFFF;stroke-width:0.5182;stroke-linecap:round;stroke-miterlimit:10;stroke-dasharray:4;}
	.st5{fill:#D97170;}
	.st6{fill:#FEBF51;}
	.st7{fill:#259DC3;}
	.st8{fill:#E88987;}
	.st9{fill:#FFFFFF;}
	.st10{clip-path:url(#SVGID_2_);}
	.st11{fill:#065569;}
	.st12{fill:#17304D;}
	.st13{fill:#F9B39B;stroke:#F9B39B;stroke-width:0.8915;stroke-miterlimit:10;}
	.st14{fill:#E88987;stroke:#E88987;stroke-width:0.909;stroke-miterlimit:10;}
</style>
<g id="Layer_1">
</g>
<g id="Layer_2">
	<g>
		<g>
			<g>
				<polygon class="st0" points="93.63,169.96 103.89,180.23 98.49,200 96.85,199.6 93.63,183.35 86.49,177.63 				"/>
				<polyline class="st1" points="93.39,183.12 96.85,199.6 98.49,200 103.89,180.23 98.48,175.11 				"/>
				<line class="st2" x1="93.74" y1="189.06" x2="96.57" y2="186.85"/>
				<line class="st2" x1="94.22" y1="190.86" x2="97.05" y2="188.66"/>
			</g>
			<g>
				<path class="st3" d="M68.94,88.68L51.6,122.82c-4.99,9.34-3.23,20.64,4.39,28.23l30.1,29.98l9.38-9.09L73.3,138.82
					c-2.2-3.14-1.47-4.73,0.64-7.93l22.6-36.95L68.94,88.68z"/>
				<path class="st4" d="M81.66,91.14c0,0-20.25,38.73-21.18,42.56c-0.93,3.83,31.61,41.97,31.61,41.97"/>
			</g>
			<g>
				<polygon class="st0" points="133.6,114.46 148.02,109.45 153.74,129.15 152.1,129.57 141.99,120.15 136.77,124.48 				"/>
				<polygon class="st5" points="133.6,114.46 148.02,109.45 153.74,129.15 152.1,129.57 140.44,114.34 134.19,116.99 				"/>
				<polyline class="st6" points="141.99,120.15 152.1,129.57 153.74,129.15 148.02,109.45 138.77,112.66 				"/>
				<line class="st2" x1="143.86" y1="121.89" x2="145.16" y2="118.65"/>
				<line class="st2" x1="145.23" y1="123.23" x2="146.52" y2="119.99"/>
			</g>
			<g>
				<g>
					<path class="st7" d="M94.12,90.28c-4.34-3.36-22.53-5.8-25.26-3.66c0.35,1.36,0.69,22.23,0.6,24.72
						c-0.39,10.88,2.13,29.42,11.76,35.46c14.2,8.9,50.15-18.06,56.17-21.21c0.38-0.67-3.04-10.88-3.27-11.19
						c-13.83,5.13-32.95,14.62-36.47,11.4C93.67,122.15,101.09,95.67,94.12,90.28z"/>
				</g>
				<g>
					<path class="st3" d="M135.86,120.3c0.41,0.33-1.51-5.57-1.73-5.89c-13.83,5.13-32.95,14.62-36.47,11.4l0.73,2.96
						c0,0,1.02,3.45,8.39,0.89L135.86,120.3z"/>
				</g>
				<path class="st4" d="M85.09,87.01c0,0-3.74,50.66,3.74,50.07c7.48-0.59,47.03-16.79,47.03-16.79"/>
			</g>
		</g>
		<g>
			<g>
				<path class="st0" d="M52.45,14.22c0,0,7.88-4.05,7.13-4.71s-4.17,1.19-4.8,1.37c-1.91,0.55,5.44-9.17,4.77-9.55
					c-0.6-0.34-4.52,3.33-4.52,3.33s4.05-3.06,3.48-3.45c-0.57-0.39-4.73,1.88-4.73,1.88s3.82-2.16,3.19-2.21
					c-0.64-0.05-4.44,1.67-4.44,1.67s2.69-1.23,1.83-0.83c-5.86,2.72-9.29,10.11-9.29,10.11s-7.51,17.47-6.87,25.9
					c0.74,9.72,7.3,18.09,16.43,19.85l19.6,3.77c5.8,0.47,11.09-4.09,11.81-10.18l0,0c0.72-6.09-4.57-8.48-10.36-8.94l-17.87-3.25
					c-5.59-1.02-8.06-9.39-7.13-15.34l1.39-8.79C52.11,14.6,52.24,14.37,52.45,14.22L52.45,14.22z"/>
				<path class="st8" d="M57.35,45.92l-7.69,10.06c0,0,2.66,1.48,7.01,1.82L57.35,45.92z"/>
			</g>
			<g>
				<path class="st0" d="M142.58,40.86c0,0-2.44-8.16-1.41-8.12c1.03,0.05,2.01,3.65,2.32,4.21c0.91,1.68,3.14-10.09,3.9-9.9
					c0.68,0.17,0.64,5.39,0.64,5.39s-0.52-4.88,0.18-4.76c0.69,0.12,1.88,4.51,1.88,4.51s-1.03-4.1-0.55-3.7
					c0.48,0.4,1.84,4.17,1.84,4.17s-0.95-2.68-0.65-1.82c2.04,5.87-1.16,13.35-1.16,13.35s-7.98,17.29-14.8,22.74
					c-7.87,6.29-18.78,7.7-26.49,2.75L91.7,59.04c-4.4-3.6-4.65-10.36-0.55-15.1l0,0c4.1-4.74,9.61-2.83,14.01,0.76l14.94,9.82
					c4.68,3.07,12.74-1.1,16.58-5.89l5.69-7.08C142.53,41.35,142.6,41.1,142.58,40.86L142.58,40.86z"/>
				<path class="st8" d="M115.16,59.69l-2.24,12.23c0,0-2.97-0.77-6.27-3.47L115.16,59.69z"/>
			</g>
			<g>
				<path class="st9" d="M54.98,60.65c0.03-2.15,3.94-22.23,3.94-22.23l17.97,2.56c0.51,0.06,1.01,0.16,1.49,0.28
					c3.02-1.27,6.23-2.04,9.32-1.95l0,0c2.59-0.03,4.91,0.69,6.83,1.96c3.43-1.2,7.57-0.65,10.72,1.75l15.34,10.43
					c0,0-13.32,16.62-14.92,18.14l-5.1-4.3c-0.61,13.62-2.58,28.04-2.58,28.04l-34.38-3.21l0.81-31.53L54.98,60.65z"/>
				<g>
					<defs>
						<path id="SVGID_1_" d="M54.98,60.65c0.03-2.15,3.79-21.42,3.79-21.42l18.12,1.75c0.51,0.06,1.01,0.16,1.49,0.28
							c3.02-1.27,6.23-2.04,9.32-1.95l0,0c2.59-0.03,4.91,0.69,6.83,1.96c3.43-1.2,7.57-0.65,10.72,1.75l13.98,11.04
							c0,0-11.96,16.01-13.56,17.53l-5.1-4.3c-0.61,13.62-2.58,28.04-2.58,28.04l-34.38-3.21l0.81-31.53L54.98,60.65z"/>
					</defs>
					<clipPath id="SVGID_2_">
						<use xlink:href="#SVGID_1_"  style="overflow:visible;"/>
					</clipPath>
					<g class="st10">
						<g>
							<g>
								<path class="st11" d="M119.68,55.42C101.51,43.26,79.15,39.63,57.66,39.7c-6.65,0.02-13.29,0.38-19.91,0.91
									c-1.59,0.13-1.61,2.63,0,2.5c21.85-1.74,44.48-1.61,65.2,6.44c5.43,2.11,10.63,4.79,15.48,8.03
									C119.76,58.48,121.01,56.31,119.68,55.42L119.68,55.42z"/>
							</g>
						</g>
						<g>
							<g>
								<path class="st11" d="M116.34,61.85c-6.29-4.93-14.1-6.95-21.81-8.47c-8.91-1.75-17.95-2.91-27.01-3.49
									c-5.17-0.33-10.35-0.46-15.53-0.41c-1.61,0.02-1.61,2.52,0,2.5c8.74-0.09,17.48,0.36,26.16,1.36
									c8.26,0.95,16.7,2.19,24.69,4.58c4.18,1.25,8.28,2.99,11.73,5.69C115.82,64.6,117.61,62.84,116.34,61.85L116.34,61.85z"/>
							</g>
						</g>
						<g>
							<g>
								<path class="st11" d="M112.86,68.2c-15.83-5.27-32.33-8.48-48.98-9.57c-4.74-0.31-9.48-0.44-14.23-0.41
									c-1.61,0.01-1.61,2.51,0,2.5c16.57-0.11,33.12,1.87,49.17,5.96c4.5,1.15,8.96,2.46,13.36,3.93
									C113.73,71.12,114.38,68.71,112.86,68.2L112.86,68.2z"/>
							</g>
						</g>
						<g>
							<g>
								<path class="st11" d="M111.39,75.9c-16.82-5.16-34.31-8.12-51.89-8.81c-4.99-0.19-9.99-0.2-14.98-0.03
									c-1.6,0.05-1.61,2.55,0,2.5c17.47-0.59,34.99,1.04,52.02,4.95c4.77,1.09,9.5,2.37,14.18,3.8
									C112.27,78.78,112.93,76.37,111.39,75.9L111.39,75.9z"/>
							</g>
						</g>
						<g>
							<g>
								<path class="st11" d="M105.42,83.51c-18.65-4.89-37.89-7.39-57.17-7.46c-1.61-0.01-1.61,2.49,0,2.5
									c19.06,0.07,38.06,2.54,56.5,7.37C106.32,86.33,106.98,83.92,105.42,83.51L105.42,83.51z"/>
							</g>
						</g>
						<g>
							<g>
								<path class="st11" d="M99.99,90.55c-15.91-3.39-32.21-4.78-48.46-4.13c-1.6,0.06-1.61,2.56,0,2.5
									c16.03-0.64,32.1,0.7,47.8,4.04C100.9,93.29,101.57,90.88,99.99,90.55L99.99,90.55z"/>
							</g>
						</g>
					</g>
				</g>
			</g>
			<g>
				<path class="st0" d="M80.19,33.05L79.8,43.84c0,0,6,6.18,12.22-0.82L89.26,32.5L80.19,33.05z"/>
				<path class="st8" d="M91.14,39.84l0.91,3.52c-2.18,2.45-4.32,3.27-7,3.04L91.14,39.84z"/>
				<path class="st12" d="M80.02,23.55l-0.03,10.16c0,0,5.76,10.38,9.69-0.65l-3.39-10.41L80.02,23.55z"/>
			</g>
			<g>
				<g>
					<path class="st13" d="M76.98,27.71l1.9,0.06l-0.07-2.14l-1.9-0.06c-0.58-0.02-1.04,0.45-1.02,1.04l0,0
						C75.9,27.2,76.39,27.69,76.98,27.71z"/>
					<path class="st13" d="M91.54,26.86l-1.89-0.31l-0.2,2.11l1.89,0.31c0.58,0.1,1.1-0.3,1.16-0.88l0,0
						C92.55,27.51,92.13,26.96,91.54,26.86z"/>
					<path class="st14" d="M91.44,27.4l-0.78-0.13l-0.08,0.87l0.78,0.13c0.24,0.04,0.45-0.12,0.48-0.36l0,0
						C91.85,27.67,91.68,27.44,91.44,27.4z"/>
					<path class="st14" d="M76.9,26.26l0.78,0.01l0.05,0.88l-0.78-0.01c-0.24,0-0.45-0.2-0.46-0.45l0,0
						C76.47,26.45,76.66,26.25,76.9,26.26z"/>
					<path class="st13" d="M84.92,34.87l0.04,0.01c4.43-0.25,6.01-3.24,5.7-6.8l-0.02-0.27c-0.31-3.56-2.96-9.05-6.48-8.98
						l0.01-0.04c-3.51,0.08-6.56,5.73-6.25,9.29l0.02,0.27C78.25,31.91,79.94,35.05,84.92,34.87z"/>
					<path class="st9" d="M84.35,32.58L84.35,32.58c1.55-0.02,2.73-1.05,2.63-2.31l-0.01-0.17l-5.61,0.06l0.01,0.17
						C81.47,31.6,82.8,32.6,84.35,32.58z"/>
					<path class="st12" d="M85.45,27.13c0.03,0.26,0.21,0.46,0.41,0.44c0.2-0.02,0.34-0.24,0.32-0.5c-0.03-0.26-0.21-0.46-0.41-0.44
						C85.56,26.64,85.42,26.87,85.45,27.13z"/>
					<path class="st12" d="M82.14,27.11c0.03,0.26,0.22,0.46,0.42,0.44c0.2-0.02,0.34-0.25,0.31-0.51
						c-0.03-0.26-0.22-0.46-0.42-0.44C82.25,26.62,82.11,26.85,82.14,27.11z"/>
					<path class="st5" d="M83.57,29.25l1.3-0.06c0.16-0.01,0.26-0.2,0.18-0.37l-0.67-1.48c-0.08-0.19-0.32-0.19-0.39,0l-0.63,1.54
						C83.28,29.05,83.4,29.26,83.57,29.25z"/>
					<path class="st12" d="M87.38,25.61c0.39,0.26-0.21-0.9-0.74-1.03c-0.53-0.13-1.06,0.11-1.19,0.54
						C85.46,25.12,86.45,24.99,87.38,25.61z"/>
					<path class="st12" d="M81.29,25.26c-0.4,0.25,0.23-0.89,0.77-1.01c0.54-0.12,1.06,0.14,1.17,0.57
						C83.24,24.82,82.25,24.66,81.29,25.26z"/>
				</g>
				<g>
					<g>
						<path class="st12" d="M80.84,19.68c-0.54-0.1-1.86,0.16-2.19,0.59c-0.12,0.15-0.33,0.57-0.49,1.04
							c-0.21,0.64-0.66,4.07-0.36,4.03c0.39-0.05,2.85-3.87,3.09-4.33"/>
					</g>
					<g>
						<path class="st12" d="M87.02,19.49c0.34-0.63,1.21-0.73,1.92-0.5c0.9,0.3,1.65,1.02,2.09,1.88c0.44,0.85,0.59,1.82,0.55,2.75
							c-0.02,0.44-0.59,3.02-1.01,3.11c-0.23,0.04-2.25-4.6-2.85-5.68"/>
					</g>
					<g>
						<path class="st12" d="M89.45,18.94c0.33-0.27,0.67-0.55,0.84-0.93c0.17-0.38,0.1-0.88-0.27-1.11
							c-0.36-0.22-0.85-0.1-1.21,0.13c-0.35,0.23-0.63,0.54-0.99,0.76c-0.04-0.32,0.06-0.65,0.01-0.97
							c-0.05-0.32-0.35-0.66-0.69-0.58c-0.14,0.03-0.25,0.13-0.36,0.22c-0.34,0.31-0.69,0.61-1.03,0.92
							c-0.39-1.35-1.92-2.34-3.41-2.19c-1.49,0.14-2.77,1.39-2.84,2.79c-0.38-0.18-0.87,0.12-0.96,0.51
							c-0.09,0.38,0.1,0.78,0.36,1.1c0.26,0.31,0.59,0.58,1,0.69c0.4,0.11,0.88,0.03,1.16-0.26c-0.36,0.17-0.28,0.71,0.05,0.92
							c0.34,0.2,0.78,0.14,1.15,0c0.6-0.22,1.12-0.63,1.46-1.14c0.14,0.39,0.3,0.78,0.59,1.09c0.29,0.31,0.76,0.5,1.18,0.37
							c0.51-0.16,0.72-0.71,0.86-1.19c0.06,0.56,1.58,1.25,2.17,1.12c0.59-0.13,0.52-0.59,0.88-1.04c0.27-0.34,0.27-1.12,0.11-1.52"
							/>
						<g>
							<path class="st12" d="M89.94,19.43c0.83-0.68,1.68-1.94,0.69-2.91c-0.41-0.41-1.04-0.48-1.58-0.33
								c-0.63,0.18-1.04,0.67-1.57,1.02c0.34,0.2,0.69,0.39,1.03,0.59c-0.03-0.84,0.1-1.85-0.91-2.19c-0.94-0.31-1.73,0.75-2.34,1.3
								c0.38,0.1,0.76,0.2,1.14,0.3c-0.55-1.72-2.35-2.88-4.15-2.69c-1.81,0.19-3.29,1.64-3.44,3.46c0.29-0.22,0.58-0.44,0.87-0.66
								c-0.62-0.2-1.3,0.06-1.64,0.62c-0.36,0.59-0.21,1.3,0.16,1.85c0.74,1.11,2.25,1.65,3.34,0.71c0.58-0.51-0.18-1.51-0.83-1.07
								c-1.03,0.68-0.52,2.11,0.62,2.29c1.18,0.19,2.33-0.67,2.98-1.58c-0.42-0.05-0.83-0.11-1.25-0.16
								c0.36,0.94,0.91,1.91,2.03,1.99c1.08,0.07,1.64-0.82,1.92-1.73c-0.44,0-0.88,0-1.32,0c0.23,1.06,1.99,1.81,2.97,1.6
								c0.74-0.16,0.98-0.77,1.33-1.36c0.36-0.61,0.41-1.38,0.18-2.05c-0.28-0.83-1.6-0.47-1.32,0.36c0.12,0.34,0.12,0.68-0.04,1
								c-0.09,0.18-0.29,0.67-0.47,0.72c-0.29,0.09-1.28-0.4-1.33-0.64c-0.15-0.69-1.13-0.61-1.32,0c-0.09,0.3-0.19,0.77-0.59,0.71
								c-0.41-0.06-0.6-0.65-0.72-0.98c-0.22-0.57-0.9-0.66-1.25-0.16c-0.23,0.32-0.54,0.58-0.89,0.75
								c-0.15,0.07-0.32,0.14-0.49,0.17c-0.09,0.01-0.17,0.01-0.26,0c0.03,0.09,0,0.17-0.09,0.24c-0.28-0.36-0.55-0.72-0.83-1.07
								c-0.29,0.25-0.72,0.03-0.95-0.18c-0.11-0.1-0.62-0.81-0.3-0.71c0.45,0.14,0.83-0.24,0.87-0.66c0.21-2.6,4.15-2.76,4.9-0.41
								c0.16,0.51,0.75,0.65,1.14,0.3c0.34-0.3,0.67-0.63,1.03-0.92c-0.04-0.02-0.08-0.04-0.12-0.05c0.03,0.1,0.03,0.21,0.02,0.31
								c0,0.2-0.03,0.39-0.02,0.58c0.02,0.49,0.57,0.89,1.03,0.59c0.32-0.21,0.92-0.93,1.34-0.9c0.59,0.04-0.38,0.85-0.54,0.98
								C88.29,19.02,89.26,19.98,89.94,19.43L89.94,19.43z"/>
						</g>
					</g>
					<path class="st12" d="M89.19,19.41c-0.08,0.56,0.33,1.09,0.93,1.16c0.6,0.08,1.15-0.32,1.23-0.88
						c0.08-0.56-0.33-1.09-0.93-1.16C89.83,18.46,89.28,18.85,89.19,19.41z"/>
					<path class="st12" d="M77.52,19.9c-0.08,0.56,0.33,1.09,0.93,1.16c0.6,0.08,1.15-0.32,1.23-0.88c0.08-0.56-0.33-1.09-0.93-1.16
						C78.15,18.94,77.6,19.34,77.52,19.9z"/>
				</g>
			</g>
		</g>
	</g>
</g>
</svg>
