<svg id="Layer_1" data-name="Layer 1" xmlns="http://www.w3.org/2000/svg" viewBox="0 0 137.63 349.06"><defs><style>.cls-1{fill:#162f4c;}.cls-2{fill:#229dc3;}.cls-3{fill:#152f4c;}.cls-4{fill:#1b7996;}.cls-5{fill:#fbae54;}.cls-6{fill:#febf50;}.cls-7{fill:#fff;}.cls-8{fill:#fff5e3;}.cls-9{fill:#fbc9ba;}.cls-10{fill:#f5904e;}</style></defs><title>human-16</title><path class="cls-1" d="M103.22,35.58c-8.08-2.36-13.67.61-13.67.61C66.3,37,65.43,58,68.16,65.78c3.84,11-9.73,19.59,5.32,24,17.45,5.14,32.1-3,31.1-.33C159.79,93.29,121.59,40.94,103.22,35.58Z" transform="translate(-32.84 -34.67)"/><path class="cls-2" d="M79.1,137.48a53.44,53.44,0,0,1-6.22,8.26c-4.83,5.32-30.18-7.3-28-8.26s14.53-31.77,19.76-37.23A23.2,23.2,0,0,1,76.21,94Z" transform="translate(-32.84 -34.67)"/><path class="cls-3" d="M164.66,355.07s7,5.61,5.63,9.6-7.68,6.65-8.53,11.52-4.27,7.54-7.34,7.54H139.77s-2.26-3.43,3.2-4.47,7.52-6.76,7.18-12.08a82.82,82.82,0,0,1,.51-12.41l11.61-2.36Z" transform="translate(-32.84 -34.67)"/><path class="cls-3" d="M105.43,357.45s2.52,23.78-.55,25.11l-39.32-.07s0-4,6.31-4.87,17.41-4.14,19.29-11.38S105.43,357.45,105.43,357.45Z" transform="translate(-32.84 -34.67)"/><path class="cls-2" d="M135.68,121.44a122.2,122.2,0,0,1,0,16c-.39,5.77-7,13.51-8,15.42-2.37,4.8-5,5.58-5,5.58L102,162.86l-7.26,1.56-22.89-6s-10.43-25.57-6.24-40A103.59,103.59,0,0,1,76.21,94s15.56-3.07,43-1.36Z" transform="translate(-32.84 -34.67)"/><path class="cls-4" d="M137.64,137.61c-.39,5.78-9,13.31-9.94,15.22-2.37,4.8-5,5.58-5,5.58L102,162.86,96.51,156s33.42-8.17,27.09-34.07Z" transform="translate(-32.84 -34.67)"/><path class="cls-5" d="M73.32,162.3s-11.33,31-12.06,41.57,21.67,150,22.57,154.86c.85,4.59,7.33,7.51,7.33,7.51a11,11,0,0,0,7.23.49c5.9-1.46,7.77-3.22,7.77-3.22s8.82-99.44,3.36-135A495.06,495.06,0,0,1,104,162.3Z" transform="translate(-32.84 -34.67)"/><path class="cls-6" d="M121.35,161.37s17.29,20.39,18.91,34.18,2.52,62.21,6,75.64,16.05,39.3,16.05,81.22c0,0-1.31,2.4-5.36,3.68-1.3.41-3,.81-4.72,1.15a7.78,7.78,0,0,1-8.29-3.46c-8.53-15.1-35.7-63.79-37.09-73.9-1-7.15-9.57-54.49-28.28-82.27-4.5-6.67,2.75-33.19,2.75-33.19Z" transform="translate(-32.84 -34.67)"/><path class="cls-4" d="M71.51,157.51s4.56,3.16,13.6,3.32c10.79.19,37.55-2.42,37.55-2.42a17.36,17.36,0,0,1,1.14,6s-32.68,7.24-51.61,1.05C72.19,165.47,69.75,161.44,71.51,157.51Z" transform="translate(-32.84 -34.67)"/><path class="cls-7" d="M82.51,169a4.9,4.9,0,1,1,4.93-4.9A4.92,4.92,0,0,1,82.51,169Zm0-8.37a3.47,3.47,0,1,0,3.3,3.47A3.39,3.39,0,0,0,82.51,160.64Z" transform="translate(-32.84 -34.67)"/><polygon class="cls-8" points="73.29 143.26 24.17 143.66 0 93.74 49.12 93.34 73.29 143.26"/><path class="cls-9" d="M99.7,155.37l-3.6-3.89a13.16,13.16,0,0,0-4.2-2.24c-1.77-.32-5.51-2.21-5.87-1.68s2.87,4.34,2.87,4.34l.16,0c-3.7,2.45-13.07.29-14.22,1.29-1.4,1.21,1.93,3.83,3.71,5.3s6.89,3.92,10.88,2.83c2.91-.79,7.49-1.6,7.49-1.6Z" transform="translate(-32.84 -34.67)"/><path class="cls-9" d="M36.53,137.19s3.09-3.08,5-1.6-.51,8.75-2.38,8S35.46,138.09,36.53,137.19Z" transform="translate(-32.84 -34.67)"/><path class="cls-2" d="M119.21,92.68s16.38,1,22.66,14.42,17.82,35.49,15.34,44.75c-1,3.68-12.93,16.46-62.69,8.34,0,0,.41-4.57,3.77-6.72,0,0,35.06-9.89,35-11.86-.11-3.72-4.74-6.94-24.32-24.16C103.64,112.77,119.21,92.68,119.21,92.68Z" transform="translate(-32.84 -34.67)"/><path class="cls-9" d="M108.39,93.33c.48-.57-.14-2.39-.91-5.77a55.67,55.67,0,0,1-1.86-13.13l-1,.16L87.15,77.16s.4,4.1.41,8v.09c0,3.35-1,8.42.26,9.08C94.42,97.69,106.53,95.52,108.39,93.33Z" transform="translate(-32.84 -34.67)"/><path class="cls-10" d="M87.15,77.16s.35,5.78.36,9.64c9.76-.21,15-8.53,17.07-12.21Z" transform="translate(-32.84 -34.67)"/><path class="cls-9" d="M86.1,84.05S109,81.19,106.7,68.71s-.81-21.25-15.49-19.95-16.65,6.46-17,10.78S80.1,84.47,86.1,84.05Z" transform="translate(-32.84 -34.67)"/><path class="cls-1" d="M80.78,49.91S89.67,63.67,99.64,64.5s13.71-2,13.71-2-8.27-4.1-11.42-12.83C101.93,49.65,84.22,42.28,80.78,49.91Z" transform="translate(-32.84 -34.67)"/><path class="cls-1" d="M82.54,50.88s-4.35,2.17-5.72,5.4a18.19,18.19,0,0,0-1,11.89s-6.5-9.29-2.24-15.66C78.1,45.76,82.54,50.88,82.54,50.88Z" transform="translate(-32.84 -34.67)"/></svg>