<svg xmlns="http://www.w3.org/2000/svg" viewBox="0 0 181.53 382.87"><defs><style>.cls-1{fill:#3b3b58;}.cls-2{fill:#babad3;}.cls-3{fill:#229dc3;}.cls-4{fill:#1a7996;}.cls-5{fill:#fcc9b9;}.cls-6{fill:#f9b3a0;}.cls-7{fill:#ffc050;}.cls-8{fill:#ffaf53;}.cls-9{fill:#f8edca;}.cls-10{fill:#edbfa0;}.cls-11{fill:#0d0d22;}.cls-12{fill:#753829;}.cls-13{fill:#e05357;}.cls-14{fill:#e57e6f;}.cls-15{fill:#172f4c;}.cls-16{fill:#fff;}.cls-17{fill:#e1d1df;}</style></defs><title>human-10</title><g id="Layer_2" data-name="Layer 2"><path class="cls-1" d="M90.78,281.05c2.4,2.91,1,10.83-5.48,18.17s-15.15,8-18.22,5.72c-1.53-1.14,1.79-6.42,8.22-13.76S89,278.85,90.78,281.05Z" transform="translate(-8.32 -6.43)"/><path class="cls-2" d="M90.78,281.05a51.36,51.36,0,0,0-13.13,10.7c-8,9-10.57,13.19-10.57,13.19-1.53-1.14,1.79-6.42,8.22-13.76S89,278.85,90.78,281.05Z" transform="translate(-8.32 -6.43)"/><path class="cls-1" d="M156.79,366.75c.68-.54,2.19-3.29,3.36-3.44,4-.49,10.85,2.51,16.87,7.15,2.89,2.22,3.73,6,4.91,8.43,2,4.19,1.78,8.18.31,10-1.17,1.49-6.77-1.6-14.57-7.6S154.51,368.51,156.79,366.75Z" transform="translate(-8.32 -6.43)"/><path class="cls-2" d="M156.79,366.75a49.75,49.75,0,0,0,11.44,12.33c9.55,7.52,14,9.85,14,9.85-1.17,1.49-6.77-1.6-14.57-7.6s-13.16-12.82-10.88-14.58Z" transform="translate(-8.32 -6.43)"/><path class="cls-3" d="M121.36,221.29c-.24,1.85,1.48,13.68,1.84,18.1,1,12.19,3.72,36.07-1,47.79-3.89,9.59-29.48-5.25-30.51-4.71s-7.6,16.55-6.91,17.4c4.05,5.05,13.69,8.62,19.47,11.27,7.69,3.53,19.93,7.12,28.59,3.47,6.81-2.86,11.28-8,16-22,6.2-18.49,8.29-43.38,8.29-43.38s7.34,32.78,7.43,61.86c.09,27-6.21,52.29-5.77,53.06,1.22,2.13,17.75,8.87,19.91,8.11,1.63-.58,7-29.71,8.07-40.4,3.18-32.61,5.2-67.82-.35-100.27-1.41-8.25-6.94-32.25-8.75-33.66-.73-.57-56.18,22.77-56.26,23.38Z" transform="translate(-8.32 -6.43)"/><path class="cls-4" d="M122.48,232.93c-.59-4.9-1.28-10.43-1.12-11.64.08-.61,55.53-23.95,56.26-23.38s2.11,5,3.57,10.51C166,218.33,135.46,228.74,122.48,232.93Z" transform="translate(-8.32 -6.43)"/><path class="cls-4" d="M160.87,233.35a7.29,7.29,0,0,0,3.63-5.83c.38-7.17-3.45-17.44-3.45-17.44a.67.67,0,0,1,.43-.86.72.72,0,0,1,.9.41s3.92,10.58,3.53,18a9,9,0,0,1-4.79,7.47v.09c.65,4.8.85,9.34.14,12.51a.69.69,0,0,1-.83.51.66.66,0,0,1-.54-.79c.68-3.06.46-7.43-.17-12.06A173.19,173.19,0,0,0,154.49,212a.68.68,0,0,1,.48-.83.71.71,0,0,1,.87.46,181.22,181.22,0,0,1,5,21.69Z" transform="translate(-8.32 -6.43)"/><path class="cls-4" d="M157.34,250.41l-.24-1.15s6-4,8.55-8.76c2.12-4,5.86,59-1.88,88,.46-5.56.76-11.47.74-17.45C164.43,285.27,158.64,256.56,157.34,250.41Z" transform="translate(-8.32 -6.43)"/><path class="cls-5" d="M139.48,100.34c7.59-6.24,25.65-74.88,24.94-77.62-.46-1.78,13.05,5,14.05,5.93,2.24,2.18-8,64.11-18.72,81.84C156.88,115.27,137.61,101.89,139.48,100.34Z" transform="translate(-8.32 -6.43)"/><path class="cls-6" d="M146.11,87.47c5.34,3,13,7,19.54,9.06a72.72,72.72,0,0,1-5.9,14c-2.87,4.78-22.14-8.6-20.27-10.15s4.1-6.28,6.63-12.87Z" transform="translate(-8.32 -6.43)"/><path class="cls-5" d="M178.53,30.89s-13.86-5-14.19-5.33c-2.26-2-3-4.48-5-6.7-.62-.68-2.28-2.68-1.87-3.69.91-2.26,7.68,2.53,7.72,2.49.27-.26,1.48-10.35,3.71-11.16,2.55-.94,2.37,8.44,2.75,8.41s2.69-8.9,5.89-8.38c2.2.35-.13,9.5.11,9.63.09.05,6-6.57,7.74-5.08s-3,6.65-3.26,8.61c0,.18,6.47-3.31,7.13-1.53.4,1.06-3.78,4.74-4.36,5.48-2.36,2.93-3.91,4.41-6.38,7.25Z" transform="translate(-8.32 -6.43)"/><path class="cls-5" d="M82.56,174.38s-8.5-18.09-8.63-18c-1.67.69-15.67,5.87-19.76,3.8-11.82-6-16.37-25.65-20.71-29.52-2.22-2-16.12-4.9-13,4.35,4.69,13.77,16.43,42.71,26.13,45.36C58,183.45,72.51,179.17,82.56,174.38Z" transform="translate(-8.32 -6.43)"/><path class="cls-6" d="M62.47,159.88a84.78,84.78,0,0,0,11.46-3.54c.13-.05,8.63,18,8.63,18A74.12,74.12,0,0,1,61.33,181C64.73,174,63.82,165.62,62.47,159.88Z" transform="translate(-8.32 -6.43)"/><path class="cls-5" d="M23,141.71s11.24-9.23,11.45-9.61c1.43-2.58,1.18-5.17,2.3-7.91.35-.85,1.2-3.26.46-4.08-1.66-1.84-6.33,4.86-6.38,4.84-.35-.16-5.08-9.26-7.46-9.3-2.74-.05.77,8.7.4,8.8s-5.69-7.5-8.53-6c-1.93,1,3.51,8.9,3.33,9.1s-8-4.25-9.09-2.27,5.16,5.29,6.14,7c.09.16-7.26-1-7.26.86,0,1.13,5.25,3.25,6.06,3.75C17.64,138.94,19.62,139.83,23,141.71Z" transform="translate(-8.32 -6.43)"/><path class="cls-7" d="M101.74,141.16s14.09-9.94,20.86-17.66,17.17-32.94,19.21-33.26c1.64-.26,23.3,11.3,25.1,14.73.25.48-2,11.23-4.16,19.43-1.89,7.07-4.27,15.46-4,16,3.63,6.1,25,65,22,65.08-2.86,0-58.57,25.46-60.06,22.88-.41-.72-12.43-50.11-14.57-51.08-1-.44-26,6.13-32.22,5-.92-.16-11.14-24-10.07-24.41C68.84,156.24,93.19,147.12,101.74,141.16Z" transform="translate(-8.32 -6.43)"/><path class="cls-8" d="M178.46,193.83c2.09,6.9,3.19,11.61,2.33,11.62-2.86,0-58.57,25.46-60.06,22.88-.26-.45-5-19.75-9.08-34.5,12.32,4.61,43,13.61,66.81,0Z" transform="translate(-8.32 -6.43)"/><path class="cls-9" d="M69.26,156c1.84,5,4.87,12.94,7.86,19.31A61.39,61.39,0,0,0,80.69,182c-1.36.17-2.61.3-3.7.36-1-1.65-2-3.63-3-5.78-3-6.41-6.07-14.39-7.93-19.47l3.2-1.17Zm71.25-64.26c5.13,2.93,17.4,10.16,25.89,16.9-.2,1.06-.45,2.29-.74,3.64-8.14-6.84-21.35-14.59-26.79-17.68.62-1.16,1.18-2.13,1.64-2.86Z" transform="translate(-8.32 -6.43)"/><path class="cls-9" d="M124.51,121a16.53,16.53,0,0,1,7.78,11.08c1.28,5.82-.19,12-4.3,15.07-4.62,3.43-10.21,3.08-15.27,1.3a44.21,44.21,0,0,1-11.81-6.76l.83-.56s.76-.53,2-1.45a39.21,39.21,0,0,0,10.16,5.7c4,1.4,8.36,1.87,12-.81,3.2-2.38,4.05-7.28,3.05-11.82-.83-3.78-3-7.38-6.48-9.1l.15-.18a26.74,26.74,0,0,0,1.91-2.47Z" transform="translate(-8.32 -6.43)"/><path class="cls-5" d="M101.25,127.2c1.88,3.93,4.27,7.84,4.75,11.86,0,0,9.17,7,17.73,1.82,4.65-2.83,1.22-12.19,1.22-12.19-3.94-2.64-6-5.84-8-10.19l-15.73,8.7Z" transform="translate(-8.32 -6.43)"/><path class="cls-6" d="M104.38,133.61c-.93-2.14-2.1-4.27-3.13-6.41L117,118.5a26.35,26.35,0,0,0,4.61,7.36C116.43,131.25,109.38,133.05,104.38,133.61Z" transform="translate(-8.32 -6.43)"/><path class="cls-5" d="M118.83,98.12c3.16-.76,5.85,1.57,6.66,4.64s-.34,5.76-3.59,6.6a5.83,5.83,0,0,1-3.07-11.24Z" transform="translate(-8.32 -6.43)"/><path class="cls-5" d="M78.12,85.93c9.35-8.5,24.63-4.54,34.75,5.58s9.22,24.82,2.72,31.28c-8.81,8.75-24.21,7.33-34.33-2.79S68.77,94.43,78.12,85.93Z" transform="translate(-8.32 -6.43)"/><path class="cls-5" d="M80.91,121.3c2.42-2.2,5.91-1.58,8.09.6s2.44,5,0,7.32a5.82,5.82,0,0,1-8.11.06A5.47,5.47,0,0,1,80.91,121.3Z" transform="translate(-8.32 -6.43)"/><path class="cls-10" d="M81.43,120.17l-.17-.17c-10.12-10.12-12.49-25.57-3.14-34.07s24.37-4.54,34.49,5.58a27,27,0,0,1,2.65,3.07,21.09,21.09,0,0,0-7.6-3.55c-1.82,1.32-18.42,4-18.42,4,.77,1.8,1.65,2.13,1.65,2.13-2.18,2.25-12.62,4.55-12.62,4.55-.25,6.09,5.37,18.45,5.37,18.45-.7,0-1.43.06-2.21,0Z" transform="translate(-8.32 -6.43)"/><path class="cls-11" d="M107.27,97.37c3.08-1.41,5.07.5,5.41,1.19s-1.89-1.82-5-.41-2.44,4.45-2.78,3.76S104.19,98.78,107.27,97.37Z" transform="translate(-8.32 -6.43)"/><path class="cls-11" d="M90.17,107.4a4.15,4.15,0,0,1,5.55-.18c.51.58-2.32-1.29-4.91.83s-1.16,4.9-1.67,4.32S87.57,109.52,90.17,107.4Z" transform="translate(-8.32 -6.43)"/><path class="cls-11" d="M104,93.17c2.18-1,5.44-.86,5.5-.29s-2.64,0-4.82,1-2.51,4.35-2.77,3.83-.09-3.5,2.09-4.5Z" transform="translate(-8.32 -6.43)"/><path class="cls-11" d="M86.2,101.9c-1.81,1.53-2,4.07-1.49,4.35s.38-2.2,2.18-3.73,5.79-.66,5.39-1.09S88,100.37,86.2,101.9Z" transform="translate(-8.32 -6.43)"/><path class="cls-12" d="M106.32,119.06c-4.49,1-7.72-1.18-8.48-3.8-.15-.5,4-2.45,5.91-3.49s6.24-2.91,6.47-2.45C111.13,111.18,112.15,117.78,106.32,119.06Z" transform="translate(-8.32 -6.43)"/><path class="cls-13" d="M100.75,118.55c.25-.26.52-.51.8-.75a12,12,0,0,1,7.68-2.88,9.73,9.73,0,0,1,1.43.11,5.38,5.38,0,0,1-4.34,4A8.49,8.49,0,0,1,100.75,118.55Z" transform="translate(-8.32 -6.43)"/><path class="cls-14" d="M100.79,108.51c-1.35-1.89-1.22-4.21.15-4.87,1.62-.78,5.58,1.92,4.94,3.93C104.85,110.84,101.47,109.46,100.79,108.51Z" transform="translate(-8.32 -6.43)"/><path class="cls-15" d="M84.85,121.33c-.86.12-8.5-15.4-8.15-21.93,0,0,13.17-.5,16.88-3.18,0,0-6.19-.72-6.78-1.62,0,0,17.38-3,20.14-4.3s9.69,4.9,10.93,8.43c0,0-1-18.81-16-20.2a7.13,7.13,0,0,1,3.51-3.89s-21.27-7-31.25,10.56c0,0-2.34-3.6-1.16-5.19,0,0-5.63,3.91-2.86,12.73,0,0-6.63,5.83-6.19,8.51,0,0,3.16-2.58,5.69-2.33,0,0-7.45,19.08,15.22,22.41Z" transform="translate(-8.32 -6.43)"/><path class="cls-15" d="M77.28,104c1.71,7.18,6.66,17,7.52,17.35h0c-12.57-1.86-15.85-8.58-16.29-14.18C71,106.32,74,105.27,77.28,104Zm33.29-21.82c6.74,5.85,7.3,16.58,7.3,16.58-1.24-3.53-8.18-9.71-10.93-8.43a50.4,50.4,0,0,1-7.28,1.87A54.53,54.53,0,0,0,110.57,82.15Zm-17.16,14,.17,0a7.54,7.54,0,0,1-1.8.91Z" transform="translate(-8.32 -6.43)"/><path class="cls-16" d="M107.4,106.61h0" transform="translate(-8.32 -6.43)"/><path class="cls-17" d="M159.89,161.78a22.48,22.48,0,0,0,3,.79" transform="translate(-8.32 -6.43)"/></g></svg>