<svg xmlns="http://www.w3.org/2000/svg" viewBox="0 0 167.43 327.06"><defs><style>.cls-1{fill:#172f4c;}.cls-2{fill:#a07334;}.cls-3{fill:#fcc9b9;}.cls-4{fill:#005468;}.cls-5{fill:#004252;}.cls-6{fill:#ec9a6f;}.cls-7{fill:#fd8496;}.cls-8{fill:#229dc3;}.cls-9{fill:#f9b3a0;}.cls-10{fill:#ffc050;}.cls-11{fill:#ffaf53;}.cls-12{fill:#fff;}</style></defs><title>human-12</title><g id="Layer_2" data-name="Layer 2"><path class="cls-1" d="M67.13,77.66c-6,4.88-14.84,20-12.17,53.79,3,37.74-2.46,31.28-8.73,39.87s-9.59,17.62,1.1,27.21,10.57,13.22,10.22,18.52,3.79,13.56,17.74,9c18.06-6,25.27,8.21,32.58,3.84s44.57-26.8,46.08-40.41-3.9-26.23-12.9-26.29-8.44-12.06-6.56-18.66-11.61-15.18-15.56-19.77-6.48-15.77-5.41-20-6.94-17-10.33-18.61S73.73,72.31,67.13,77.66Z" transform="translate(-17.28 -37.17)"/><path class="cls-1" d="M55.4,104.87c12.06,12.22,38.83,33.83,75.24,30.79,2.75,3,4.63,6.09,3.85,8.84-1.88,6.6-2.44,18.59,6.56,18.66s14.42,12.69,12.9,26.29-38.77,36-46.08,40.41S93.35,220.07,75.29,226c-14,4.59-18.09-3.67-17.74-9s.48-8.92-10.22-18.52-7.37-18.61-1.1-27.21S58,169.19,55,131.45A124.74,124.74,0,0,1,55.4,104.87Z" transform="translate(-17.28 -37.17)"/><path class="cls-2" d="M91.38,230.5s56.85-9.83,65.74-21.4c0,0-.34-9.75-9.91-12.3S102.91,202,97.94,213a113.87,113.87,0,0,0-6.56,17.49Z" transform="translate(-17.28 -37.17)"/><path class="cls-3" d="M86.83,199.78c-.81,1.57,2.77,8.95,3.24,10.34,2.54,7.46,11,17.92,6,23.9-5.3,6.35-9.25,7.85-16.33,18.58-7.27,11-22.54,38.75-26.17,39.68C52,292.68,58,255,57.73,252.64c-.14-1.25-12.93-3.81-13.28-3.33-2.64,3.62-21.56,81.76-7.1,88.34,18.14,8.26,83.52-66.47,87.1-65.34,6.72,2.13,31.79,40.61,25.6,42.16-2.82.71-49.87,10.46-50.45,11.88-.8,2,1.54,12.64,2.53,14.74.58,1.25,65.33,7.78,79.91-7.36,6.05-6.29,1.6-38.23-10.87-66.7-8.64-19.74-20.11-36.77-24.35-58.58-1-5.09-4.24-20.39-5.83-21-6.51-2.54-11.7,2.31-14.76,3.21-12.19,3.59-39.4,9.13-39.4,9.13Z" transform="translate(-17.28 -37.17)"/><path class="cls-4" d="M97.15,232.17c11.37-3.48,37.1-10.22,54.84-6,5.4,14.06,13,26.78,19.18,40.88,12.47,28.47,16.92,60.41,10.87,66.7-9.52,9.88-40.42,10.53-60.89,9.44a18.11,18.11,0,0,1-5.71-21.1c14.13-3.25,32.86-7.16,34.61-7.6,6.19-1.55-18.88-40-25.6-42.16-3.58-1.13-69,73.6-87.1,65.34-8.84-4-5.21-34.74-.45-58.87,6.38-7.5,13.46-8.92,18.14-4.45-1.24,9.36-2.27,18.14-1.48,17.95,3.63-.93,18.9-28.67,26.17-39.68,7.08-10.73,11-12.23,16.33-18.58a6.48,6.48,0,0,0,1.09-1.85Z" transform="translate(-17.28 -37.17)"/><path class="cls-5" d="M123.05,273c2.14-2.36,6.47-4.73,8-5.74.69-.44,2.49-2.05,3.37-2.05.05,0,.42,2,.44,2,.48,1.64,1.06,3.24,1.67,4.82,1.54,4,3.49,7.67,5.38,11.43a98.27,98.27,0,0,0,8.39,14.09c2.48,3.41,6.29,7.55,7.83,11.73,1.32,3.59-2.23,5.77-4.74,6.59a28.84,28.84,0,0,1-13.53.8c5.42-1.17,9.41-2,10.17-2.21,6.19-1.55-18.88-40-25.6-42.16-.23-.07-.7.16-1.4.66Z" transform="translate(-17.28 -37.17)"/><path class="cls-5" d="M155.8,235.19c4.84,10.64,10.55,20.82,15.37,31.84,12.47,28.47,16.92,60.41,10.87,66.7-2.19,2.27-5.52,4.06-9.59,5.45.32-.5.63-1,.92-1.53A42.47,42.47,0,0,0,178.79,310,181.19,181.19,0,0,0,168,270.07c-3.13-7.8-7.5-14.89-10-23a58.38,58.38,0,0,1-2.23-11.86Z" transform="translate(-17.28 -37.17)"/><path class="cls-6" d="M103.61,327.05c-3.77-4.83-6.36-5.71-9.47-1.94-6.32,7.67-20.14,38.29-14.85,39,6,.85,12.64-5.6,18-12.87,7-9.62,10.45-19,6.36-24.23Z" transform="translate(-17.28 -37.17)"/><path class="cls-3" d="M102.21,325.39c.45.48.92,1,1.4,1.66,4.09,5.24.68,14.61-6.36,24.23-3.35,4.57-7.23,8.83-11.14,11.13-1.8-9.56,10.94-29.5,16.1-37Z" transform="translate(-17.28 -37.17)"/><path class="cls-7" d="M86.11,362.41a10.5,10.5,0,0,1-6.82,1.74c-5.29-.75,8.53-31.37,14.85-39,2.71-3.29,5-3,8.07.28C97.06,332.91,84.3,352.85,86.11,362.41Z" transform="translate(-17.28 -37.17)"/><path class="cls-3" d="M58.64,253.49c4.3-4.22,5.11-7.16,1.86-10.78-6.6-7.34-33.18-23.66-33.93-17.64-.85,6.81,4.69,14.53,11,20.73C45.83,254,54,258.07,58.64,253.49Z" transform="translate(-17.28 -37.17)"/><path class="cls-8" d="M28.16,233.32a15.41,15.41,0,0,1-1.59-8.25c.75-6,27.33,10.3,33.93,17.64,2.53,2.81,2.6,5.22.49,8.12C54.53,246.93,36.4,236.19,28.16,233.32Z" transform="translate(-17.28 -37.17)"/><path class="cls-3" d="M143.19,110.15c.24-7,2.44-12.55,1.81-17.22-1.75-12.79-17.79-30.13-17.79-30.13l5.06-6.91s30.77,25,31.53,41c.14,2.73-.76,12.91-1.92,16.4C153.6,138.35,143.11,112.5,143.19,110.15Z" transform="translate(-17.28 -37.17)"/><path class="cls-9" d="M143.78,104.39c4.46,1.36,13,3.7,19.14,3.73a33.46,33.46,0,0,1-1,5.19c-8.28,25-18.77-.81-18.69-3.16A47.89,47.89,0,0,1,143.78,104.39Z" transform="translate(-17.28 -37.17)"/><path class="cls-3" d="M132.66,56.45s-2.32,8.55-2.74,8.64c-2.84.67-14.72-.23-17.63.07-.9.09-3.42.2-4-.83-1.3-2.3,7.9-4.63,7.9-4.69-.06-.41-9-8.61-8.43-11.09.69-2.86,8.08,3.56,8.27,3.22s-5.6-8.3-3.39-10.76c1.51-1.68,7.51,6.47,7.75,6.35s-1.9-9.61.29-10.16,3.64,7,5,8.6c.12.14,1-7.86,2.77-7.25,1.07.36,1.68,6.47,1.93,7.47C131.45,50.05,131.77,52.38,132.66,56.45Z" transform="translate(-17.28 -37.17)"/><path class="cls-3" d="M50.4,122.61s-13.82-18.11-15-21.31c-1.41-3.65-1.45-9.39,14.83-34.48l-4.66-7.45S16.59,85,17.3,98.94c.77,15.32,17,38.18,27.21,45.36S50.4,122.61,50.4,122.61Z" transform="translate(-17.28 -37.17)"/><path class="cls-9" d="M46.11,116.92c2.42,3.25,4.29,5.69,4.29,5.69s4.29,28.86-5.89,21.69a55.32,55.32,0,0,1-9.81-9.57C40.08,132.36,44.54,121.26,46.11,116.92Z" transform="translate(-17.28 -37.17)"/><path class="cls-3" d="M44.45,60.1s2.63,8.43,3,8.51c2.86.53,14.7-.93,17.62-.78.9,0,3.42,0,4-1C70.3,64.45,61,62.56,61,62.5c0-.41,8.7-9,8-11.48-.79-2.82-7.94,3.95-8.14,3.61s5.29-8.56,3-10.91c-1.57-1.6-7.27,6.82-7.51,6.71s1.54-9.69-.66-10.13S52.32,47.5,51,49.13c-.12.15-1.27-7.8-3-7.11-1.06.41-1.43,6.55-1.65,7.56C45.41,53.65,45.19,56,44.45,60.1Z" transform="translate(-17.28 -37.17)"/><path class="cls-10" d="M47.37,116s29.77,38.26,47,30.89,44.64-28.12,48.13-41.95l22.71,7s-7.91,36.56-28.87,51.74c0,0,19.55,26.31,20.8,45.43,0,0-5.38-6.28-29.8,1.05-18.18,5.45-35.95,20.31-35.95,20.31-2.34-14.75-5.15-23.68-15.08-47.66L35.84,144.08S46.64,125.94,47.37,116Z" transform="translate(-17.28 -37.17)"/><path class="cls-11" d="M136.14,162.14c-2.78-4.66-4.89-9.87-8.39-13.95-1.57-1.84-6.57-6.33-6.5-6.43s5.2,2.92,6.35,3.93C133.43,150.81,136.14,162.14,136.14,162.14Z" transform="translate(-17.28 -37.17)"/><path class="cls-11" d="M137.24,160.07c.12.19-.86-5-1.13-6.56-.69-3.9-1.53-7.72-2.59-11.51l-1-3.64a26.12,26.12,0,0,1,3.17,6.18C137.08,149.26,137.24,160.07,137.24,160.07Z" transform="translate(-17.28 -37.17)"/><path class="cls-11" d="M79.05,181.47a4.41,4.41,0,0,0,.4-.49c.31-.46.6-.94.89-1.42a23.08,23.08,0,0,0,1.86-4.28,26.07,26.07,0,0,0,2.11-8.15,53.34,53.34,0,0,0-.26-10.84s-.58,3.82-.76,5.38a117.18,117.18,0,0,1-2.22,12.93c-.21.88-1.34,4-1.34,4a59.07,59.07,0,0,0-.32-10.08c-1-6-2.82-13.46-3.51-13.5-.17,0,1.52,6.82,2.35,13.47a114,114,0,0,1,.8,13Z" transform="translate(-17.28 -37.17)"/><path class="cls-3" d="M111,98.05c3.25-1,6.72,1.58,7.73,5.8s-.81,8.48-4.07,9.49-6.72-1.58-7.73-5.8S107.72,99.07,111,98.05Z" transform="translate(-17.28 -37.17)"/><path class="cls-3" d="M102.94,129.61s1.36,12.6,6.53,11.68,9.63,12.15,4.94,18.9-28.11,2.5-30.33-8.51,7.37-5.76,4-14.36C82.42,123.21,102.94,129.61,102.94,129.61Z" transform="translate(-17.28 -37.17)"/><path class="cls-9" d="M88.34,138.16c-.09-.27-.19-.55-.31-.84-5.61-14.11,14.91-7.71,14.91-7.71a30.28,30.28,0,0,0,2.29,8.59C100.41,140.51,92.41,139.11,88.34,138.16Z" transform="translate(-17.28 -37.17)"/><path class="cls-3" d="M77.92,80.52c11.61-5.9,25.9,3.88,32,19.41S112,132.19,102.79,136c-6.16,2.54-23,1.45-31.64-12.94C62.71,109.05,66.3,86.42,77.92,80.52Z" transform="translate(-17.28 -37.17)"/><path class="cls-9" d="M74,127a29.4,29.4,0,0,1-2.84-3.94c-8.44-14-4.85-36.63,6.77-42.53,11-5.61,24.48,3,31,17.13A12.2,12.2,0,0,0,106.67,96c2.27,6.71-8.3-2.17-8.3-2.17,4.76,8.11-11.49,3.06-11.49,3.06C90.52,106.7,73.38,99,73.38,99c-1,5.63,0,21.28.61,28Z" transform="translate(-17.28 -37.17)"/><path class="cls-1" d="M96.55,179.33c9.92-11.26,15.34-23.5-3.64-34.12-24.78-13.88-21.66-32.62-21.59-49.55,0,0,21.1,11.63,12.07-1.68,0,0,17.22,9.39,12.8-3.21,0,0,15.66,14.16,6.92-1.38,0,0,7.92,10.52,8.49,16.37,0,0,.63-36.76-17.83-39.65C68.61,62.19,62.55,87.83,62.55,87.83s-6.92,22.79-.21,41.05c5.28,14.37,16.9,22.61,25.22,29.72C96.13,165.92,93.43,182.86,96.55,179.33Z" transform="translate(-17.28 -37.17)"/><path class="cls-1" d="M85.72,105.42s-7.5-7.52-7,4.4C78.73,109.82,79.21,102.35,85.72,105.42Z" transform="translate(-17.28 -37.17)"/><path class="cls-1" d="M106.63,100.88s-6.35-10.57-7.89,1.41C98.74,102.29,101.6,95.36,106.63,100.88Z" transform="translate(-17.28 -37.17)"/><path class="cls-1" d="M101.1,118.71c-1.54,0-7.61-.24-9.65-.07s-.69,9.36,4.66,9.71C101.12,128.68,103.14,118.73,101.1,118.71Z" transform="translate(-17.28 -37.17)"/><path class="cls-12" d="M101.71,119.23a.69.69,0,0,0-.61-.52c-1.54,0-7.61-.24-9.65-.07-.39,0-.66.39-.8,1,.83,1.17,2.55,1.65,6.31,1.73C99.87,121.4,101.15,120.27,101.71,119.23Z" transform="translate(-17.28 -37.17)"/><path class="cls-1" d="M100.55,107s1.6-6.93,5.71-1.21C104.44,104.74,102.55,104.88,100.55,107Z" transform="translate(-17.28 -37.17)"/><path class="cls-1" d="M82.35,115.22s-.43-8.17,6.28-3.8C86.16,111.11,84,112.09,82.35,115.22Z" transform="translate(-17.28 -37.17)"/></g></svg>