<svg xmlns="http://www.w3.org/2000/svg" xmlns:xlink="http://www.w3.org/1999/xlink" viewBox="0 0 200.8 321.54"><defs><style>.cls-1{fill:none;}.cls-2{fill:#fcc9b9;}.cls-3{fill:#172f4c;}.cls-4{fill:#fd8496;}.cls-5{fill:#005468;}.cls-6{fill:#004252;}.cls-7{fill:#ecf0f2;}.cls-8{fill:#1a7996;}.cls-9{clip-path:url(#clip-path);}.cls-10{fill:#229dc3;}.cls-11{fill:#f9b3a0;}.cls-12{fill:#753829;}.cls-13{fill:#e05357;}</style><clipPath id="clip-path" transform="translate(0 -40.39)"><path class="cls-1" d="M105.18,102.82c-5.3,6-19.82,25.16-4.86,40.93-5.82,8.23-9,14.75-10.15,20.75-1.75,9.21,2.09,28.2,2.09,28.2-27.1,3.25-49.2.32-62.54-5.21,0,0,7.75-40.72,12.41-53.06,4-10.52,14.58-20.67,19.08-24.1s12.84-2.55,20.25-3.65C89.08,105.55,96.3,105,105.18,102.82Z"/></clipPath></defs><title>human-14</title><g id="Layer_2" data-name="Layer 2"><path class="cls-2" d="M66.89,109s-10.58-2.39-23.83,18c-8,12.29-13.68,18.46-15.2,17-1.23-1.2-7.78-19.59-7.3-27.38L11.5,121s3.18,51.45,13.43,51.3c10.76-.15,26.25-26.47,26.25-26.47L66.89,109Z" transform="translate(0 -40.39)"/><path class="cls-2" d="M12.93,122.31c1.78.81,7.33.62,9-7.85.56-2.86-.88-3.77.73-8.61.26-.75.69-2.93,0-3.58-1.55-1.45-4.77,5.35-4.82,5.33-.3-.1-5.09-8.14-7.06-8-2.27.2,1.45,7.5,1.16,7.62s-5.42-6-7.63-4.44c-1.5,1.08,3.74,7.42,3.61,7.61s-7-3-7.74-1.16S5,113.4,5.93,114.83c.09.13-6.11-.24-5.93,1.4.11,1,4.65,2.35,5.37,2.71,2.89,1.44,4.61,2,7.56,3.37Z" transform="translate(0 -40.39)"/><path class="cls-3" d="M113.41,79.08s28.64-9.76,21.32,17.13c-5.42,19.9,18.76,33.32,18.76,33.32-5.11-1.54-5.08-1.42-8.88-3.44.45,1.58,11,6.84,12.44,6.76,0,0-23.49,9.58-33.56-6.34C110.93,106.66,121.44,78.62,113.41,79.08Z" transform="translate(0 -40.39)"/><path class="cls-4" d="M107.63,258.16c5.24-2.22,5.76-3.55,10.55,7.77s7.72,29.57,5.81,31.4c-2.95,2.83-8.95-1.94-15.4-12.1C102,274.86,102.4,260.38,107.63,258.16Z" transform="translate(0 -40.39)"/><path class="cls-2" d="M113.48,292a64.31,64.31,0,0,1-4.89-6.78c-6.59-10.37-6.2-24.85-1-27.07.66-.27,1.24-.54,1.76-.76C113.45,267.42,119.82,286.15,113.48,292Z" transform="translate(0 -40.39)"/><path class="cls-4" d="M79.71,319.28c5.69,0,6.67-1.07,6.74,11.23s-4.26,30.27-6.72,31.22c-3.82,1.47-7.51-5.24-9.56-17.1-2.09-12.11,3.85-25.32,9.54-25.35Z" transform="translate(0 -40.39)"/><path class="cls-2" d="M72.07,352.77a65.33,65.33,0,0,1-1.9-8.14c-2.09-12.11,3.85-25.32,9.54-25.35.71,0,1.34,0,1.91,0C81.52,330.07,80.19,349.8,72.07,352.77Z" transform="translate(0 -40.39)"/><path class="cls-5" d="M84,182.3A72.52,72.52,0,0,1,86.72,205c-.81,17-3.67,45.83-5.47,56.24-.54,3.17,20.8-2.77,24-2.11,5.23,1.07,6.16,19.73,1.27,24.23-8.84,8.14-52.15,23.49-53.73,4.61-2.13-25.3-2.28-46.32-2.28-46.32s-11.44,41.75-8.78,48.71c4.61,12,38.21,25.13,38.27,29.91s-5.3,14.61-9.75,16.83S9,319.58,9.2,293.84s16-101.95,25.2-112.59C47,166.69,84,182.3,84,182.3Z" transform="translate(0 -40.39)"/><path class="cls-6" d="M28.71,193.27c2-5.78,4-10,5.69-12C47,166.69,84,182.3,84,182.3A72.19,72.19,0,0,1,86.66,198C71.9,199.81,44.87,201.54,28.71,193.27Z" transform="translate(0 -40.39)"/><path class="cls-6" d="M49.67,244.9c.1-3.26,0-8.28-1-9.63-1.64-2.05-14.76-10.81-9.91-8.19s11.31,3.4,11.84,7.72a46.31,46.31,0,0,1,0,8.52c0-1.07,0-1.65,0-1.65s-.33,1.2-.87,3.23Z" transform="translate(0 -40.39)"/><path class="cls-7" d="M109.75,271.85c-8.45,3.33-20,6.68-27.66,6-3.36-.29-6-1.37-7.71-3.28s-2.44-4.84-1.5-9c2.18-9.6,7.86-54.23,5.35-79a1.78,1.78,0,0,1,3.54-.35c2.54,25.16-3.22,70.43-5.43,80.17-.61,2.68-.37,4.58.72,5.85s3,1.87,5.34,2.08c7.59.67,19.1-2.91,27.15-6.21A35.65,35.65,0,0,1,109.75,271.85Z" transform="translate(0 -40.39)"/><path class="cls-2" d="M184.18,74.74c-2,.11-7.05-2.1-5.53-10.6.52-2.86,2.2-3.19,2.46-8.28,0-.79.43-3,1.31-3.33,2-.79,2.49,6.71,2.54,6.72.31,0,7.71-5.73,9.48-4.85,2.05,1-4.08,6.46-3.86,6.67s7.25-3.61,8.72-1.34c1,1.55-6.19,5.54-6.13,5.76s7.59-.22,7.63,1.75-6,2.11-7.38,3.09c-.13.09,5.78,2,5,3.47-.46.87-5.19.49-6,.56-3.22.29-5,.21-8.26.38Z" transform="translate(0 -40.39)"/><path class="cls-2" d="M81.46,106.68c15.43-2.3,29.19-2,58.46-18.54C168.49,72,179.05,64.89,179.05,64.89L184.7,74S125,113.45,112.09,128.82c-13.52,16.06-20.16,26.46-21.92,35.68s2.09,28.2,2.09,28.2c-27.1,3.25-49.2.32-62.54-5.21,0,0,7.75-40.72,12.41-53.06,4-10.52,14.58-20.67,19.08-24.1s12.84-2.55,20.25-3.65Z" transform="translate(0 -40.39)"/><path class="cls-8" d="M105.18,102.82c-5.3,6-19.82,25.16-4.86,40.93-5.82,8.23-9,14.75-10.15,20.75-1.75,9.21,2.09,28.2,2.09,28.2-27.1,3.25-49.2.32-62.54-5.21,0,0,7.75-40.72,12.41-53.06,4-10.52,14.58-20.67,19.08-24.1s12.84-2.55,20.25-3.65C89.08,105.55,96.3,105,105.18,102.82Z" transform="translate(0 -40.39)"/><g class="cls-9"><path class="cls-10" d="M39.76,120.05s56.84-5.94,67.33-8.7,12.17-9.57,12.17-9.57S54,111.87,50.09,111.26,39.76,120.05,39.76,120.05Z" transform="translate(0 -40.39)"/><path class="cls-10" d="M42.18,125.18s61.52-2.31,64.36-2.92-4.92,15.12-4.92,15.12l-65,1.62,5.53-13.82Z" transform="translate(0 -40.39)"/><path class="cls-10" d="M34.69,147.07s58.6-4.77,69.16,2.91.58,18,.58,18-68.57-8-72.39-6.45S34.69,147.07,34.69,147.07Z" transform="translate(0 -40.39)"/><path class="cls-10" d="M29,170s66.46,2.64,70.06,6.63,1.67,9.57,1.67,9.57-63.38,4.06-73.35-4.93S29,170,29,170Z" transform="translate(0 -40.39)"/></g><path class="cls-2" d="M98.52,104.25c-1.57,1.67-3.4,3.8-4.4,5.11-5,6.61-12.71,15.61-21.8,16.3-15.9,1.21-12.14-9.24-3.54-17.87,3.94-.5,8.46-.48,12.68-1.11C87.09,105.84,92.5,105.35,98.52,104.25Z" transform="translate(0 -40.39)"/><path class="cls-2" d="M93.42,98.52s-1.74,8.06-1.78,10.87-18.08,1.35-18.08,1.35,4.37-8.15,4.84-13.12c.35-3.59,15,.9,15,.9Z" transform="translate(0 -40.39)"/><path class="cls-11" d="M77.12,102.73a22.59,22.59,0,0,0,1.28-5.11c.35-3.59,15,.9,15,.9s-.48,2.22-.94,4.74A20.9,20.9,0,0,1,77.12,102.73Z" transform="translate(0 -40.39)"/><path class="cls-2" d="M69.08,72.14c-3.35-.28-5.69,2.67-6,6.1s1.36,6.11,4.82,6.47a5.88,5.88,0,0,0,6.43-5.53C74.64,75.75,72.44,72.42,69.08,72.14Z" transform="translate(0 -40.39)"/><path class="cls-2" d="M108.53,52.24c-11-7.54-26-.73-34.52,11.82s-5,28.16,2.74,34c10.54,7.91,26,3.8,34.57-8.75S119.58,59.78,108.53,52.24Z" transform="translate(0 -40.39)"/><path class="cls-11" d="M70.17,72.14A28.8,28.8,0,0,1,74,64.06c8.56-12.55,23.46-19.36,34.52-11.82,10.82,7.39,11.33,23.82,3.3,36.28-4.68,3.06-8.67,5.61-8.67,5.61s3.85-11.68,1.57-15.31-2.38-10-1.71-13.62A23.9,23.9,0,0,1,91.12,63c-5.84-2.85-17.63,2.68-20.35,9.67-.94,2.42-1,1.6-.6-.56Z" transform="translate(0 -40.39)"/><path class="cls-2" d="M112.73,89.27c-2.86-2-6.32-.7-8.16,2S103,97,105.88,99.11a5.83,5.83,0,0,0,8.3-1.29A6.15,6.15,0,0,0,112.73,89.27Z" transform="translate(0 -40.39)"/><path class="cls-3" d="M97.52,78.9c.72.12,1.17,1,1,2s-.87,1.73-1.59,1.61-1.16-1-1-2,.88-1.73,1.59-1.62Z" transform="translate(0 -40.39)"/><path class="cls-3" d="M80.85,74.32c.72.11,1.17,1,1,2S81,78.08,80.26,78s-1.16-1-1-2S80.14,74.2,80.85,74.32Z" transform="translate(0 -40.39)"/><path class="cls-3" d="M81.74,67.53c-2.5-.07-5.53,1.43-5.34,2s2.49-1.15,5-1.07,4.28,3.27,4.3,2.64S84.24,67.61,81.74,67.53Z" transform="translate(0 -40.39)"/><path class="cls-3" d="M100.69,74.22c2.14,1.31,2.84,4,2.35,4.38s-.8-2.28-2.94-3.58-6,.36-5.7-.18S98.55,72.92,100.69,74.22Z" transform="translate(0 -40.39)"/><path class="cls-12" d="M86.91,95.21c4.49.24,5.7-9.19,5.48-9.19a38.24,38.24,0,0,1-5.09,0,21.1,21.1,0,0,1-5.49-1c-.45-.17.43,10,5.1,10.23Z" transform="translate(0 -40.39)"/><path class="cls-13" d="M82.63,90.56a12.19,12.19,0,0,1,8.84,0c-.82,2.38-2.26,4.8-4.56,4.68-2.15-.12-3.49-2.32-4.28-4.65Z" transform="translate(0 -40.39)"/><path class="cls-3" d="M106,59.77a37.38,37.38,0,0,0-1.62,11.82c.22,7.76,4.43,8.19,1.11,16.26-1.22,3-1.67,1.69-5.92,8.91a20,20,0,0,0-2.79,10.11,60.24,60.24,0,0,1,7-10.71c3.77-4.68,11.46-7.62,14.89-14.51,5.2-10.47,4-15.43-.17-24.45-2.5-5.37-7.09-5.85-7.09-5.85-3-12.34-16.79-14.07-30.65-6.13-5.22,3-10.88,7.22-12.89,16.25-1.34,6-.37,10-.43,13.89-.21,15.38-6.63,20-6.63,20s6.62-3.26,8.48-7c5.28-10.59.39-9,5.94-23,2-5,7.37-5.94,13.22-5.6s6.67,1.33,11.29,1.44A14.52,14.52,0,0,0,106,59.77Z" transform="translate(0 -40.39)"/><path class="cls-3" d="M121.27,64.09c1.59,5.37,1.13,10-2.6,17.56-3.43,6.89-11.12,9.83-14.89,14.51a60.24,60.24,0,0,0-7,10.71A20,20,0,0,1,99.6,96.76c4.25-7.22,4.7-5.94,5.92-8.91,3.32-8.07-.89-8.5-1.11-16.26,0-.83,0-1.65,0-2.43,6.27-1.66,12.09-3.5,16.84-5.07ZM72.6,73.9c-1,5.48.53,6.73-3.31,14.42-1.86,3.73-8.48,7-8.48,7s6.42-4.57,6.63-20c0-.59,0-1.19,0-1.81a51,51,0,0,0,5.19.35Z" transform="translate(0 -40.39)"/></g></svg>