<svg xmlns="http://www.w3.org/2000/svg" xmlns:xlink="http://www.w3.org/1999/xlink" viewBox="0 0 120.6 187.12"><defs><style>.cls-1,.cls-4,.cls-5,.cls-6,.cls-7{fill:none;}.cls-2{isolation:isolate;}.cls-3{fill:#f38397;}.cls-4,.cls-5,.cls-6,.cls-7{stroke:#fff;stroke-width:0.52px;}.cls-11,.cls-13,.cls-4,.cls-5,.cls-6,.cls-7,.cls-9{stroke-miterlimit:10;}.cls-15,.cls-5,.cls-6,.cls-7{stroke-linecap:round;}.cls-6{stroke-dasharray:3.97 3.97;}.cls-7{stroke-dasharray:4;}.cls-8{fill:#e07585;opacity:0.27;mix-blend-mode:multiply;}.cls-12,.cls-15,.cls-9{fill:#f9b39b;}.cls-15,.cls-9{stroke:#f9b39b;}.cls-9{stroke-width:1.2px;}.cls-10{fill:#e88987;}.cls-11{fill:#febf51;stroke:#febf51;stroke-width:1.04px;}.cls-13{fill:#065569;stroke:#065569;stroke-width:0.96px;}.cls-14{fill:#17304d;}.cls-15{stroke-linejoin:round;stroke-width:1.12px;}.cls-16{fill:#fff;}.cls-17{clip-path:url(#clip-path);}</style><clipPath id="clip-path" transform="translate(-39.44 -6.21)"><path class="cls-1" d="M105.85,53.74s.38,4.74,5.05,5.55,5.68-3,5.68-3,13,2.54,17.56,4.5l-3.92,13.87-6.82-1.15-2,10.17s-17.3-2.2-24.88-.35l-1-20.46s-6.7-4-7.08-5.2l9.47-8.78S102.94,51.66,105.85,53.74Z"/></clipPath></defs><title>human-4</title><g class="cls-2"><g id="Layer_2" data-name="Layer 2"><path class="cls-3" d="M118.46,84.87l16,25.57a44.33,44.33,0,0,1,5.15,37.35l-8.84,26.38-7.36-3.62-.62-30.38A22.78,22.78,0,0,0,120.36,129c-5-9.86-11.15-14.7-15.62-17-3.16-1.66-6.77-1.11-10.28-.25-6.38,1.56-13.79,5.26-19.69,8.83S64,128.49,62.36,134.62L58.7,148l-6.6-4.36-1.51-14.47c.71-13.37,4.23-19.33,13.51-24.38L102,84.12l16.13.77Z" transform="translate(-39.44 -6.21)"/><line class="cls-4" x1="83.98" y1="159.03" x2="93" y2="162.87"/><path class="cls-5" d="M130.45,168.1c0-.06.25-.75.57-1.91" transform="translate(-39.44 -6.21)"/><path class="cls-6" d="M132,162.35c2.47-9.48,6.84-27.85,6.37-32.9-.91-9.61-13.8-31-19-39.31" transform="translate(-39.44 -6.21)"/><path class="cls-5" d="M118.36,88.46c-.68-1.08-1.07-1.68-1.07-1.68" transform="translate(-39.44 -6.21)"/><line class="cls-4" x1="12.21" y1="132.3" x2="20.5" y2="136.61"/><path class="cls-7" d="M104.94,85.29s-43.85,22.87-47.28,27.5c-3.74,5.06-4.06,13.83-3.25,26.77" transform="translate(-39.44 -6.21)"/><polyline class="cls-8" points="79.03 78.66 49.62 84.95 62.6 77.91 79.31 78.67"/><path class="cls-9" d="M58.17,148.15l-2.62,12.71S40,150.47,40.13,150.32s13,0,13,0l-.55-5.8Z" transform="translate(-39.44 -6.21)"/><polygon class="cls-10" points="17.05 140.32 14.34 154.06 16.51 155.51 19.25 141.77 17.05 140.32"/><path class="cls-11" d="M52.33,150.21s-12.25-.07-12.37.08,15.71,10.86,15.71,10.86l1.43-6.82a7.24,7.24,0,0,1-2.56.07C53.19,153.73,52.33,150.21,52.33,150.21Z" transform="translate(-39.44 -6.21)"/><path class="cls-4" d="M52.89,151l-4.82.35a1.78,1.78,0,0,1-2-1.53" transform="translate(-39.44 -6.21)"/><polygon class="cls-12" points="89.22 175.68 91.42 167.84 84.09 164.37 83.91 175.46 89.22 175.68"/><polygon class="cls-10" points="84.09 164.37 86.13 165.34 85.81 175.57 83.91 175.46 84.09 164.37"/><path class="cls-13" d="M128.49,181.74s1.6,11,1.46,11.11-13.6-12.74-13.6-12.74l6.74-2.67a10.57,10.57,0,0,0,.64,2.84C124.61,181.41,128.49,181.74,128.49,181.74Z" transform="translate(-39.44 -6.21)"/><path class="cls-4" d="M127.56,181.33l.23,4.38a1.74,1.74,0,0,0,1.88,1.56" transform="translate(-39.44 -6.21)"/><path class="cls-14" d="M110.53,57.38c-6.48-1.84-6.93-9.55-7.07-13.13-.29-7.93,6.38-15.71,14.66-15.22,13.79.8,33.69-8.49,33.69-8.49S155.81,70.23,110.53,57.38Z" transform="translate(-39.44 -6.21)"/><path class="cls-14" d="M115.21,30.56c7.05-1.51,14.1-2.88,21-4.87,5.46-1.56,11.18-3.46,15.12-7.78.65-.71-.41-1.77-1.06-1.06-3.95,4.33-9.74,6.06-15.2,7.61-6.7,1.89-13.5,3.19-20.3,4.65-.94.2-.54,1.65.4,1.45Z" transform="translate(-39.44 -6.21)"/><path class="cls-15" d="M112.79,42.87s-6,11.23-6.53,12.05c0,0,2.36,5.22,9.08,4.15,0,0,.42-3,2.16-10.5Z" transform="translate(-39.44 -6.21)"/><path class="cls-14" d="M117,34.66h0c3,.37,4.4,4,3.8,8l-.05.31c-.6,4-4.14,8-6.62,7.66l-.1,0c-1.94-.42-3.7-4.7-3.1-8.72l-.31-.6C111.18,37.24,114,34.29,117,34.66Z" transform="translate(-39.44 -6.21)"/><path class="cls-15" d="M123.34,44.21l-2.25-.48.59-2.29,2.25.48a1.17,1.17,0,0,1,.95,1.42h0A1.28,1.28,0,0,1,123.34,44.21Z" transform="translate(-39.44 -6.21)"/><path class="cls-15" d="M108.26,40.09l2.27.38-.46,2.32-2.27-.38a1.19,1.19,0,0,1-1-1.37h0A1.29,1.29,0,0,1,108.26,40.09Z" transform="translate(-39.44 -6.21)"/><path class="cls-10" d="M108.05,40.69l.94.16-.2,1-.93-.16a.5.5,0,0,1-.43-.57h0A.54.54,0,0,1,108.05,40.69Z" transform="translate(-39.44 -6.21)"/><path class="cls-10" d="M123.79,42.57l-.92-.21-.26.94.92.21a.53.53,0,0,0,.65-.35h0A.49.49,0,0,0,123.79,42.57Z" transform="translate(-39.44 -6.21)"/><path class="cls-15" d="M117.15,34h0a6.66,6.66,0,0,1,6,7.8l-.05.28a7.53,7.53,0,0,1-8,6.23h0c-2.8-.52-7.16-4.37-6.6-8.15l0-.28C109.11,36.06,112.91,33.44,117.15,34Z" transform="translate(-39.44 -6.21)"/><path class="cls-16" d="M115.66,45.29l-.31-.06A1.86,1.86,0,0,1,113.8,43h0l4.27.84h0A2,2,0,0,1,115.66,45.29Z" transform="translate(-39.44 -6.21)"/><path class="cls-10" d="M116.61,42.93l-1.12-.24a.17.17,0,0,1-.11-.28l.88-1.16a.2.2,0,0,1,.34.06l.24,1.4A.19.19,0,0,1,116.61,42.93Z" transform="translate(-39.44 -6.21)"/><path class="cls-14" d="M119.7,40.14c.28.24,0-.69-.45-.84a.76.76,0,0,0-1,.28A2.4,2.4,0,0,1,119.7,40.14Z" transform="translate(-39.44 -6.21)"/><path class="cls-14" d="M114,39.22c-.36.11.36-.62.79-.61a.72.72,0,0,1,.77.63A2.5,2.5,0,0,0,114,39.22Z" transform="translate(-39.44 -6.21)"/><path class="cls-14" d="M115.13,40.78c0,.28-.21.5-.4.47s-.3-.26-.26-.54.22-.5.4-.48S115.17,40.5,115.13,40.78Z" transform="translate(-39.44 -6.21)"/><path class="cls-14" d="M118.36,41.46c-.08.27-.29.46-.47.41s-.26-.3-.17-.58.29-.46.47-.41S118.45,41.18,118.36,41.46Z" transform="translate(-39.44 -6.21)"/><path class="cls-14" d="M108.9,40.26c0,.13,5.71-5.51,6.31-7S107.24,32.34,108.9,40.26Z" transform="translate(-39.44 -6.21)"/><path class="cls-14" d="M115,33.15s8.1,13.64,8.94,5.44C123.92,38.59,124.7,29.68,115,33.15Z" transform="translate(-39.44 -6.21)"/><path class="cls-15" d="M158.93,34.94l-.47,4.93-1.12-6.77c0-.18-.29.41-.3.59l-.24,5.66-1.56-6.76a.14.14,0,0,0-.28,0l-.11,7s-1.63-6.45-1.94-5.72.47,8.5.47,8.5-2.64-4.42-2.86-3.62c-.13.53,1.23,3.58,2.2,5.65a17.35,17.35,0,0,1,.62,2.51c.26,4.38-4,12.22-8.86,14.67-4.32,2.15-12.58-.82-20.44-3.15l-9-2-1.62-.1s-9.53-2.51-12.34-4.07C93.23,48,87,29,109,15.06c.56,0,8,.56,8.52.27.76-.46-4.67-1.25-4.67-1.25s8.24-1.95,8.89-2.45-6.53.25-6.53.25l7.21-2.46a.13.13,0,0,0-.07-.25l-7.49.93L120.59,8c.19-.07.71-.49.51-.46l-7.34,1.31,4.92-2.07s-3.63.17-11.1,3.42l-1,.46C101.11,13.37,78.2,26,85.39,47.73c2,5.91,8.08,12.11,10.11,15.14.94,1.41,5.64,21.34,5.64,21.34L119.3,86.5s1.84-7.53,3-10.94c.8-2.45,2.21-5.78,2.21-5.78,33.16,8.93,34.68-24.13,34.68-24.13C160,38.11,158.93,34.94,158.93,34.94Z" transform="translate(-39.44 -6.21)"/><polygon class="cls-10" points="61.07 76.9 81.67 74.89 80.6 78.85 61.07 76.9"/><path class="cls-10" d="M97.53,48.66l-7.62,7.41A26.32,26.32,0,0,1,86.32,51Z" transform="translate(-39.44 -6.21)"/><path class="cls-10" d="M134.2,61.15l-2.74,10.42a45.83,45.83,0,0,0,6.64,0Z" transform="translate(-39.44 -6.21)"/><path class="cls-13" d="M105.85,53.74s.38,4.74,5.05,5.55,5.68-3,5.68-3,13,2.54,17.56,4.5l-3.92,13.87-6.82-1.15-2,10.17s-17.3-2.2-24.88-.35l-1-20.46s-6.7-4-7.08-5.2l9.47-8.78S102.94,51.66,105.85,53.74Z" transform="translate(-39.44 -6.21)"/><g class="cls-17"><path class="cls-16" d="M92.43,76.53C93.58,75,95,73.22,97.06,73.11c1.64-.08,2.61,1.09,3.37,2.37,1.34,2.23,2.5,4.46,5.35,4.84,3.66.48,6.57-2.18,10.08-2.56a7.73,7.73,0,0,1,8.49,5.52.78.78,0,0,0,1.5-.41,9.07,9.07,0,0,0-7.71-6.62,11.42,11.42,0,0,0-5.82.9c-2,.8-4.09,1.92-6.33,1.63-3.44-.45-3.69-4.67-6.19-6.42-3.41-2.38-6.75.77-8.71,3.38-.6.81.75,1.58,1.34.79Z" transform="translate(-39.44 -6.21)"/><path class="cls-16" d="M93.54,69.56c2.22-2.66,5.86-6.49,9.66-4.26,2.86,1.69,2.31,5.43,4.66,7.45,2.76,2.36,6.08-.07,8.91-.8a7.31,7.31,0,0,1,8.1,3.39c.47.88,1.82.1,1.34-.78a8.79,8.79,0,0,0-7.6-4.38c-2,0-3.68.85-5.54,1.52-2.06.75-4.12.71-5.13-1.48-.69-1.48-1-3.07-2-4.41a6.29,6.29,0,0,0-4.17-2.6c-4-.59-7,2.44-9.38,5.25-.63.77.46,1.87,1.1,1.1Z" transform="translate(-39.44 -6.21)"/><path class="cls-16" d="M92.1,64.6c2.43-3.28,6.54-6.36,10.85-4.79,3.08,1.12,4.45,4.57,7,6.38,3.44,2.41,7.45.51,11.24.61s8.78,2.35,8.55,6.93c-.05,1,1.51,1,1.56,0a7.88,7.88,0,0,0-4.61-7.18c-3.39-1.71-6.9-1.29-10.51-.79a7.27,7.27,0,0,1-5.44-.91,18.13,18.13,0,0,1-3.06-3.19c-2.06-2.4-4.5-4-7.8-3.75-3.91.32-6.91,2.87-9.17,5.91-.59.8.76,1.58,1.35.78Z" transform="translate(-39.44 -6.21)"/><path class="cls-16" d="M87.26,60.36a25.23,25.23,0,0,1,10-5.21c3.51-.92,7.9-1.49,11.26.21,2.79,1.41,3.7,4.61,6.08,6.47,2.92,2.27,6.41,1,9.53-.08,2.1-.71,4.24-1.11,6.29,0a5.47,5.47,0,0,1,3,4.71.78.78,0,0,0,1.56,0,7.32,7.32,0,0,0-5.86-6.82,10.83,10.83,0,0,0-5.86.76c-2.1.73-4.56,1.76-6.75.81C115,60.51,114,58.94,113,57.58a11,11,0,0,0-3.39-3.38c-3.37-1.93-7.7-1.63-11.36-.88a27,27,0,0,0-12.13,5.94c-.76.65.35,1.74,1.1,1.1Z" transform="translate(-39.44 -6.21)"/><path class="cls-16" d="M93.1,52.33a19.62,19.62,0,0,1,9.72-1.51.78.78,0,0,0,0-1.55A21.15,21.15,0,0,0,92.32,51,.78.78,0,0,0,92,52.05a.79.79,0,0,0,1.06.28Z" transform="translate(-39.44 -6.21)"/><path class="cls-16" d="M114,55A7.14,7.14,0,0,0,118.33,58c1.92.29,3.43-.74,4.85-1.88a.79.79,0,0,0,0-1.1.78.78,0,0,0-1.1,0c-1,.82-2.21,1.73-3.6,1.43a6.19,6.19,0,0,1-3.34-2.6.78.78,0,0,0-1.1,0,.79.79,0,0,0,0,1.1Z" transform="translate(-39.44 -6.21)"/></g></g></g></svg>