<svg id="Layer_1" data-name="Layer 1" xmlns="http://www.w3.org/2000/svg" xmlns:xlink="http://www.w3.org/1999/xlink" viewBox="0 0 187.11 373.33"><defs><style>.cls-1{fill:none;}.cls-2{fill:#e07585;}.cls-3{fill:#fff;}.cls-4{fill:#005468;}.cls-5{fill:#004252;}.cls-6{fill:#fcc9b9;}.cls-7{fill:#f9b3a0;}.cls-8{fill:#9dc1c7;}.cls-9{clip-path:url(#clip-path);}.cls-10{fill:#5b8a9e;}.cls-11{fill:#ffc050;}.cls-12{fill:#3e6581;}.cls-13{fill:#ffaf53;}.cls-14{fill:#172f4c;}</style><clipPath id="clip-path" transform="translate(-7.22 -10.78)"><path class="cls-1" d="M74.47,193.63s-3.94,13.22-.6,13c5.84-.4,40.19.77,64.46,6.86,0,0,3.93,1.43-3.47-7.31s-54.77-16.26-60.39-12.55Z"/></clipPath></defs><title>human-15</title><path class="cls-2" d="M92.62,256.12c-5.31-2.88-9.41-1-12.84,5.27-4.57,8.31-10.94,29-6.43,31.79,5.17,3.15,13.89-3.63,19-13.7s5.57-20.48.26-23.36Z" transform="translate(-7.22 -10.78)"/><path class="cls-3" d="M87.85,254.81c-3.11.11-5.74,2.36-8.07,6.58-4.57,8.31-10.93,29-6.42,31.79a5,5,0,0,0,.65.34,66.87,66.87,0,0,1,13.84-38.71Z" transform="translate(-7.22 -10.78)"/><path class="cls-3" d="M92.84,277.12a24.83,24.83,0,0,1-6.8-5.85,1.36,1.36,0,0,1,.14-1.86,1.25,1.25,0,0,1,1.8.15,22.64,22.64,0,0,0,6,5.22,1.34,1.34,0,0,1,.56,1.77A1.26,1.26,0,0,1,92.84,277.12Z" transform="translate(-7.22 -10.78)"/><path class="cls-3" d="M91.1,281a25,25,0,0,1-6.8-5.86,1.33,1.33,0,0,1,.14-1.85,1.24,1.24,0,0,1,1.79.14,22.52,22.52,0,0,0,6,5.23,1.34,1.34,0,0,1,.55,1.77A1.25,1.25,0,0,1,91.1,281Z" transform="translate(-7.22 -10.78)"/><path class="cls-3" d="M89.43,284.55a25,25,0,0,1-6.8-5.86,1.34,1.34,0,0,1,.14-1.85,1.23,1.23,0,0,1,1.79.14,22.76,22.76,0,0,0,6,5.22,1.34,1.34,0,0,1,.55,1.77A1.25,1.25,0,0,1,89.43,284.55Z" transform="translate(-7.22 -10.78)"/><path class="cls-2" d="M13.11,344.32c-5.64,2.11-7,6.55-4.89,13.35C11.07,366.76,21.6,385.6,26.61,384c5.73-1.82,6.76-13,3-23.74s-10.88-18.06-16.52-16Z" transform="translate(-7.22 -10.78)"/><path class="cls-3" d="M9,347.08c-2,2.45-2.19,6-.74,10.59C11.07,366.76,21.6,385.6,26.6,384a6.87,6.87,0,0,0,.68-.27C14.2,370.76,10.19,355.08,9,347.08Z" transform="translate(-7.22 -10.78)"/><path class="cls-3" d="M28.28,358.32a24,24,0,0,1-8.78,1.24,1.32,1.32,0,0,1,.08-2.63,21.81,21.81,0,0,0,7.8-1.07,1.27,1.27,0,0,1,1.64.77,1.32,1.32,0,0,1-.74,1.69Z" transform="translate(-7.22 -10.78)"/><path class="cls-3" d="M29.84,362.25a24.18,24.18,0,0,1-8.77,1.24,1.32,1.32,0,0,1,.08-2.63,21.81,21.81,0,0,0,7.8-1.07,1.27,1.27,0,0,1,1.64.77,1.33,1.33,0,0,1-.75,1.69Z" transform="translate(-7.22 -10.78)"/><path class="cls-3" d="M31.27,365.93a23.93,23.93,0,0,1-8.77,1.24,1.32,1.32,0,0,1,.08-2.63,21.81,21.81,0,0,0,7.8-1.07,1.27,1.27,0,0,1,1.64.77,1.32,1.32,0,0,1-.75,1.69Z" transform="translate(-7.22 -10.78)"/><path class="cls-4" d="M79.55,186.47C75.68,188,71.3,244,11,345.53c0,0,12.54,14.42,18.71,8,0,0,68.65-110.41,71.35-114.84,3-5,9.41-4.64,13.64-1.16,2.44,2,20.91,20.44,9.29,21s-22.83-1.55-30-1.76c-1.32,0-6.75,12.72-1.33,17s59.46,11.68,65.61,2.13c8.52-13.24-18.93-61.6-25.72-69.58S83.43,184.92,79.55,186.47Z" transform="translate(-7.22 -10.78)"/><path class="cls-5" d="M70.59,215.62c5.68-18.59,7.36-28.52,9-29.15,3.88-1.55,46.26,11.86,53.05,19.84a101.53,101.53,0,0,1,8.17,12.52,129.55,129.55,0,0,0-35.17-6.77A119.61,119.61,0,0,0,75,214.64c-1.46.31-2.92.62-4.36,1Z" transform="translate(-7.22 -10.78)"/><path class="cls-5" d="M107.88,193.85l1.2.43a230.73,230.73,0,0,1,1.28,27.64c0,1-.06,2-.12,3a.43.43,0,0,1,.16,0,3.54,3.54,0,0,0,3.68-1.7,15,15,0,0,0,2-6.13c.88-5.73.52-13.48-.11-20.13l1.19.5c.6,6.6.92,14.17.06,19.81a16.27,16.27,0,0,1-2.2,6.63,4.6,4.6,0,0,1-4.8,2.19h0A59.1,59.1,0,0,1,109,235a10.92,10.92,0,0,0-1.15-.07,69.4,69.4,0,0,0,1.37-13A231.22,231.22,0,0,0,107.88,193.85Z" transform="translate(-7.22 -10.78)"/><path class="cls-5" d="M112.1,278.53c-9.66-1.4-17.5-3.28-19.39-4.77-5.42-4.28,0-17,1.33-17,6.89.2,17.54,2.19,28.71,1.81-.28.28-.55.57-.81.86A47.72,47.72,0,0,0,115.2,269a25.74,25.74,0,0,0-3.1,9.57Z" transform="translate(-7.22 -10.78)"/><path class="cls-6" d="M163,148.1c.22-2.6,11-25.85,11.32-33.65l10.49,4.48a214.06,214.06,0,0,1-9.93,41.74S162.8,150.7,163,148.1Z" transform="translate(-7.22 -10.78)"/><path class="cls-7" d="M167.26,136.72c1.64,4,5.7,9.32,11.89,10.14-1.3,4.7-2.73,9.3-4.25,13.81,0,0-12.1-10-11.88-12.57C163.11,147,165,142.35,167.26,136.72Z" transform="translate(-7.22 -10.78)"/><path class="cls-6" d="M185.05,119.51c-2.38,1.67-6.68,3.08-9.27,1.29-3.33-2.31-8.75-12.8-10.73-15.15-.62-.72-2.23-2.83-1.83-3.89.9-2.39,8.18,4.26,8.22,4.22.27-.27.81-12.49,3-13.34,2.5-1,2.29,8.91,2.66,8.89s2.66-9.38,5.8-8.82c2.14.38-.17,10,.07,10.15.09.06,5.86-6.9,7.59-5.33s-2.93,7-3.22,9.07c0,.19,6.33-3.46,7-1.59.38,1.12-3.71,5-4.29,5.77-2.32,3.08-2.6,7.06-5,8.73Z" transform="translate(-7.22 -10.78)"/><path class="cls-6" d="M33.45,77s-6.09-32.8-5.63-47l-12.54,2.2S6.27,86.42,24,88.46C38.87,90.17,33,74.5,33.45,77Z" transform="translate(-7.22 -10.78)"/><path class="cls-7" d="M13.14,65.75c.79,1.63,5,8.42,19.3,5.55.53,3.13.92,5.21,1,5.63,0,0,0,0,0,.08l0-.08c-.35-2.08,5.28,13.22-9.42,11.53-7.54-.87-10.25-11.16-10.87-22.71Z" transform="translate(-7.22 -10.78)"/><path class="cls-6" d="M25.89,33.16C27,32.5,28.48,31,31,26.91a8.25,8.25,0,0,0,1.38-6.3C31.79,17.16,28.23,18.35,28,18S27.8,10.39,22,10.79a2.14,2.14,0,0,0-2.22,2.06A3.78,3.78,0,0,0,16,11.63c-2.3.63-2.49,3.5-2.49,3.5s-1.62-.85-2.79,1.18a3.7,3.7,0,0,0-.25,3s-1.2-1.1-2.44,1S7,23.18,8.54,26c1.4,2.57,4.88,7.13,7.29,8.16C20,35.93,22.91,35,25.89,33.16Z" transform="translate(-7.22 -10.78)"/><path class="cls-7" d="M22.48,19.13a24.59,24.59,0,0,1,5.45-1.49A1.08,1.08,0,0,0,28,18s.07.06.14.08c-.58.13-1.27.28-1.58.37-.57.15-1.13.31-1.68.5s-.94.32-1.4.51c-1.42.59-3.07,1.27-3.43,3A1.59,1.59,0,0,0,20.54,24a3.29,3.29,0,0,0,1.38.64,23.08,23.08,0,0,0,3.71.46,11.26,11.26,0,0,0,1.3,0,11,11,0,0,1-1.85.29,16.86,16.86,0,0,1-2.93-.11l-.21.17A5.87,5.87,0,0,0,20.14,28c-.12.3-.41,1.1-.39.9a8.69,8.69,0,0,1,1-3.21,4.24,4.24,0,0,1,.44-.55,2.49,2.49,0,0,1-1.83-1.7,1.77,1.77,0,0,1-.51,0,1.86,1.86,0,0,1-.39-.1c-.05.11-.14.23-.2.36a4.83,4.83,0,0,1-.26.45,2.39,2.39,0,0,1-2.56.81,6,6,0,0,1-.37,1.33,4.47,4.47,0,0,1-.71,1.35,1.91,1.91,0,0,1-2.23.25,7.53,7.53,0,0,1-3.34-3.13l0,0h0l0,0,.68.73c.87.87,2.24,2.09,3.57,2,.94-.1,1.58-1.27,1.8-2.11a3.43,3.43,0,0,0,.06-.55,2.42,2.42,0,0,1-.39-.21,14.14,14.14,0,0,1-4.76-5.51,1.3,1.3,0,0,1,.67.26,9.24,9.24,0,0,0,.6.92c1.14,1.56,2.54,3.57,4.49,4a2.4,2.4,0,0,0,1.63-.08,2.52,2.52,0,0,0,.76-.83s.06-.14.11-.24A6.7,6.7,0,0,1,16.69,22a15.92,15.92,0,0,1-2.53-4.14,11.42,11.42,0,0,1-1.1-2.9,1.68,1.68,0,0,1,.45.14.45.45,0,0,1,0-.08.88.88,0,0,0,.05.15,16.22,16.22,0,0,0,.94,2.19,21.5,21.5,0,0,0,2.59,4.19,3.57,3.57,0,0,0,1.62,1.36,1.31,1.31,0,0,0,.59,0,.57.57,0,0,1,0-.13,3.54,3.54,0,0,1,2.19-3.18l.26-.14a11.2,11.2,0,0,0-.28-1.3c-.34-1.34-.69-2.72-1.16-4-.17-.47-.32-.95-.49-1.42a2.48,2.48,0,0,1,.26-.86,21,21,0,0,1,1.12,2.95c.23.72.42,1.44.61,2.17.16.57.34,1.14.54,1.7a2,2,0,0,1,.13.41Z" transform="translate(-7.22 -10.78)"/><path class="cls-8" d="M74.47,193.63s-3.94,13.22-.6,13c5.84-.4,40.19.77,64.46,6.86,0,0,3.93,1.43-3.47-7.31s-54.77-16.26-60.39-12.55Z" transform="translate(-7.22 -10.78)"/><g class="cls-9"><path class="cls-10" d="M78.94,193.92,78.63,210a.57.57,0,1,0,1.14,0l.32-16.09a.59.59,0,0,0-.56-.6A.58.58,0,0,0,78.94,193.92Z" transform="translate(-7.22 -10.78)"/><path class="cls-10" d="M88.74,195.61l-.5,16.09a.57.57,0,1,0,1.14,0l.51-16.09a.58.58,0,1,0-1.15,0Z" transform="translate(-7.22 -10.78)"/><path class="cls-10" d="M99.16,195.61l-.83,16.07a.59.59,0,0,0,.54.62.58.58,0,0,0,.61-.56l.82-16.07a.58.58,0,0,0-.54-.62A.57.57,0,0,0,99.16,195.61Z" transform="translate(-7.22 -10.78)"/><path class="cls-10" d="M107.54,197.35,107,213.43a.58.58,0,1,0,1.15,0l.55-16.08a.58.58,0,0,0-.56-.61.57.57,0,0,0-.59.57Z" transform="translate(-7.22 -10.78)"/><path class="cls-10" d="M116.66,197.48l-.73,16.07a.58.58,0,1,0,1.15.06l.72-16.08a.57.57,0,1,0-1.14-.05Z" transform="translate(-7.22 -10.78)"/><path class="cls-10" d="M125.72,199.29l.66,16.08a.58.58,0,1,0,1.15-.05l-.67-16.08a.57.57,0,1,0-1.14,0Z" transform="translate(-7.22 -10.78)"/><path class="cls-10" d="M133.54,203.07l.61,16.08a.57.57,0,1,0,1.14-.05l-.6-16.08a.58.58,0,0,0-.6-.57A.59.59,0,0,0,133.54,203.07Z" transform="translate(-7.22 -10.78)"/></g><path class="cls-11" d="M33.4,70.85s37,29.21,54,35.4c16.33,6,40.25,15.19,54.34,30.07,6.57,6.94,13.5,15.34,14.74,13.89,1.91-2.23,2.38-4.35,3.94-5,3.43-1.37,16.74,8.82,17.31,15.91.54,6.6-4.21,26-20.53,18.6-18.21-8.29-23-13.75-23-13.75s5.34,26.31,3.71,36.43c-.55,3.42-1.09,5.5-2.61,4.64-8.8-4.93-52.84-12.49-61.74-9.64,0,0-7.65-5.52-1.92-56.58,0,0-13.81-13.14-27.51-24.94C33.37,106.71,25.11,94,21.7,92.66s4.92-16.82,11.7-21.81Z" transform="translate(-7.22 -10.78)"/><path class="cls-8" d="M14.31,76.79s14,1,17.91-6.64a9.43,9.43,0,0,1,8.15,4.5c4,6.46-15.25,21.73-19.6,17.62-7.3-6.9-8.7-13.29-6.46-15.48Z" transform="translate(-7.22 -10.78)"/><path class="cls-8" d="M165.49,140.19s-6.56,3.7-4.84,9.15,14.49,14.34,16.81,10.75,1.4-9.64.88-10.71-7.61-.84-12.85-9.19Z" transform="translate(-7.22 -10.78)"/><path class="cls-12" d="M156,151.35s-1.55,10,2.84,17.28A72.73,72.73,0,0,1,156,151.35Z" transform="translate(-7.22 -10.78)"/><path class="cls-13" d="M134.12,166c-.32-1.35-4.88-20.41-6.31-24.41-1.47-4.16,6.77,13.06,10.62,17.72s19,21.09,31.44,20.35c-3.1,2-7.26,2.56-12.72.08C139.05,171.51,134.18,166.07,134.12,166Z" transform="translate(-7.22 -10.78)"/><path class="cls-13" d="M78.49,169.85s15.31,24.36,47,25.83C125.44,195.68,103.75,192.69,78.49,169.85Z" transform="translate(-7.22 -10.78)"/><path class="cls-13" d="M73.24,139.09A42.19,42.19,0,0,0,82.33,126Z" transform="translate(-7.22 -10.78)"/><path class="cls-13" d="M77.78,115.32s1,14.21-4.54,21.31C73.24,136.63,77.68,122.63,77.78,115.32Z" transform="translate(-7.22 -10.78)"/><path class="cls-3" d="M89.86,107.37s-17.68,3,19.19,30.21c0,0,13.39-14.75,3.6-20.16C98.86,109.79,89.86,107.37,89.86,107.37Z" transform="translate(-7.22 -10.78)"/><path class="cls-13" d="M91.54,108.64s-13,.46,17,25c0,0,10-10.94,2-16.2C99.5,110,91.54,108.64,91.54,108.64Z" transform="translate(-7.22 -10.78)"/><path class="cls-6" d="M89.81,96.61s1.27,7.3-.17,13c-.52,2.06,10.93,14.13,16.55,15.9,3.37,1.06,5.11-2.49,5.23-7.25,0,0-6.08-7.61-4.64-16.35,1-5.79-17-5.25-17-5.25Z" transform="translate(-7.22 -10.78)"/><path class="cls-7" d="M90.32,102.76a43.36,43.36,0,0,0-.51-6.15s17.92-.54,17,5.25a19.21,19.21,0,0,0,1,9.52C101.57,110.78,94.27,105.81,90.32,102.76Z" transform="translate(-7.22 -10.78)"/><path class="cls-7" d="M118.77,76.07c3.19.41,5.42,3.69,5,7.33s-3.39,6.25-6.58,5.84-5.42-3.7-5-7.33S115.58,75.66,118.77,76.07Z" transform="translate(-7.22 -10.78)"/><path class="cls-14" d="M117.6,60.9s3.73,12.35-.13,20.51-10.12-9.79-10.12-9.79l-4.41-8.08L117.6,60.9Z" transform="translate(-7.22 -10.78)"/><path class="cls-6" d="M91.93,53.89c11.26-2.87,23.48,7.29,26,21.09,2.19,12.19-1.81,25.38-8.73,27.87-11,3.94-25.92-2.58-30.63-15.87S80.66,56.75,91.93,53.89Z" transform="translate(-7.22 -10.78)"/><path class="cls-7" d="M78.24,86.12C74.16,73.07,80.9,56.69,91.92,53.89c9.45-2.41,19.57,4.35,24,14.73-.75.39-.75-.61-1.37-.5-5.46,1-13.1-3.49-16.95-.7C92.22,71.38,85,69.88,85,69.88c-.27,4.18-5.88,16.62-5.88,16.62s-.32-.12-.89-.38Z" transform="translate(-7.22 -10.78)"/><path class="cls-14" d="M79.69,90.63s3.57-15.37,3.53-23.09c0,0,7.72,1.3,11.61-.7,5.6-2.88,9.94-.84,11.61-.56,4.93.82,11.87,1.75,17.09-8.52,4.41-8.68-2.58-14.54-12.93-11.6-5.51,1.56-9.33-.25-13.73-1.87-13.2-4.84-17.11,3.11-18.33,10.22C78.54,54.51,60,66.6,79.69,90.63Z" transform="translate(-7.22 -10.78)"/><path class="cls-14" d="M74.54,58.45c3.65,3.11,10.85,8,18.55,6,11-2.79,13.59-.82,16.61,0a18.71,18.71,0,0,0,6.66,1.12c-3.5,1.67-7,1.16-9.92.68-1.67-.28-6-2.32-11.61.56-3.89,2-11.61.7-11.61.7,0,7.72-3.53,23.09-3.53,23.09-13.17-16.11-9.2-26.85-5.15-32.18Z" transform="translate(-7.22 -10.78)"/><path class="cls-6" d="M75.39,83.11c2.64-1.9,6.43-1,8.45,2s1.53,7-1.11,8.88-6.42,1-8.45-2S72.75,85,75.39,83.11Z" transform="translate(-7.22 -10.78)"/><path class="cls-14" d="M94.68,76.34c-.66.1-1.07,1-.92,2.08s.8,1.82,1.46,1.72,1.08-1,.93-2.08-.81-1.82-1.47-1.72Z" transform="translate(-7.22 -10.78)"/><path class="cls-14" d="M110.52,75.11c-.66,0-1.15.93-1.09,2s.66,1.88,1.32,1.84,1.16-.93,1.09-2S111.19,75.06,110.52,75.11Z" transform="translate(-7.22 -10.78)"/><path class="cls-14" d="M98.77,73.13s-4.22-7.47-9.13.34C89.64,73.47,94.42,70.76,98.77,73.13Z" transform="translate(-7.22 -10.78)"/><path class="cls-14" d="M115.24,71.82s-3.93-6.79-8.2.37C107,72.19,111.66,69.56,115.24,71.82Z" transform="translate(-7.22 -10.78)"/><path class="cls-14" d="M107.68,87.56c-1.49-.32-7.37-1.71-9.38-2s-2.23,8.09,2.93,9.45C106,96.33,109.66,88,107.68,87.56Z" transform="translate(-7.22 -10.78)"/><path class="cls-3" d="M108.19,88.13a.68.68,0,0,0-.51-.57c-1.49-.32-7.37-1.71-9.38-2-.39,0-.71.21-.94.68.62,1.19,2.21,1.95,5.86,2.76C106,89.68,107.47,88.94,108.19,88.13Z" transform="translate(-7.22 -10.78)"/></svg>