<svg xmlns="http://www.w3.org/2000/svg" xmlns:xlink="http://www.w3.org/1999/xlink" viewBox="0 0 136.06 192.91"><defs><style>.cls-1,.cls-12,.cls-7{fill:none;}.cls-2{isolation:isolate;}.cls-15,.cls-19,.cls-20,.cls-3,.cls-8{fill:#f9b39b;}.cls-4{fill:#e88987;}.cls-5{fill:#065569;stroke:#065569;stroke-width:0.96px;}.cls-12,.cls-16,.cls-5,.cls-6,.cls-7,.cls-8{stroke-miterlimit:10;}.cls-17,.cls-6{fill:#fff;}.cls-12,.cls-6,.cls-7{stroke:#fff;}.cls-12,.cls-20,.cls-6{stroke-width:1.16px;}.cls-7{stroke-width:0.57px;}.cls-15,.cls-19,.cls-20,.cls-8{stroke:#f9b39b;}.cls-8{stroke-width:1.02px;}.cls-9{fill:#f38397;}.cls-10{fill:#17304d;}.cls-11{fill:#febf51;}.cls-13{opacity:0.43;}.cls-13,.cls-14{mix-blend-mode:multiply;}.cls-14{fill:#fbae55;opacity:0.5;}.cls-15,.cls-19,.cls-20{stroke-linecap:round;stroke-linejoin:round;}.cls-15{stroke-width:1.14px;}.cls-16{fill:#d8624d;stroke:#d8624d;stroke-width:1.03px;}.cls-18{fill:#eb826e;}.cls-19{stroke-width:1.15px;}.cls-21{clip-path:url(#clip-path);}</style><clipPath id="clip-path" transform="translate(-38.75 -3.5)"><path class="cls-1" d="M108.05,44.46C103.11,48.82,98,50,90.24,50.86a11.18,11.18,0,0,0-2.8-.19s-6.69-1.08-9.88-.82a23,23,0,0,1-11.33-5.42L68,61.86a18.09,18.09,0,0,0,4.89,3.48,14.78,14.78,0,0,0-.08,4.27C73.4,73.13,75.71,85,77.9,91.77c0,0,6.26-.78,20.14-10.28a75.51,75.51,0,0,0-1-14.77c3.24-.3,6.1-1.61,9.31-4.67Z"/></clipPath></defs><title>human-2</title><g class="cls-2"><g id="Layer_2" data-name="Layer 2"><path class="cls-3" d="M89.52,169.53c3.11,2.94,11.38,9,11.38,9l-9.3,16.59c.18-2.79-.08-13.21-.08-13.21l-5.84-5.79S89.58,169.57,89.52,169.53Z" transform="translate(-38.75 -3.5)"/><path class="cls-4" d="M89.58,169.42l5.54,4.29s1.14,4.06.93,4.43S88,172.33,88,172.33Z" transform="translate(-38.75 -3.5)"/><path class="cls-5" d="M91.51,182l-.19,13.28c0,.59.62.88.94.42,2.61-3.78,9.58-14,11.41-16.72a.68.68,0,0,0-.23-1c-1.86-.84-6.8-3.64-8.32-4.3-.24-.11,1.62,5.56.48,6.32C94.62,180.68,91.57,181.93,91.51,182Z" transform="translate(-38.75 -3.5)"/><path class="cls-6" d="M100.72,183.31c1.3-1.9,2.38-3.48,3-4.33a.68.68,0,0,0-.23-1c-.93-.42-2.7-1.38-4.38-2.19Z" transform="translate(-38.75 -3.5)"/><path class="cls-7" d="M91.28,182.81l2.59-.34a1.18,1.18,0,0,1,1.24,1.16h0a1.28,1.28,0,0,1-1,1.45l-2.91.39" transform="translate(-38.75 -3.5)"/><path class="cls-8" d="M150.81,125.7c3.3-2,8.22-9.89,8.22-9.89s15.44,12.41,15.27,12.41l-11.62.61L154.92,132S151.27,126.23,150.81,125.7Z" transform="translate(-38.75 -3.5)"/><path class="cls-9" d="M162.89,129.26l11.37-.59a.65.65,0,0,0,.29-1.13c-3.4-2.78-12.62-10.2-15.05-12.14-.29-.24-1.05.15-1.26.5a63.13,63.13,0,0,1-4.43,6.55c-.19.21,6.43,1,7.16,2.3C161.6,125.84,162.56,129.34,162.89,129.26Z" transform="translate(-38.75 -3.5)"/><path class="cls-10" d="M163.41,118.53c-1.71-1.38-3.14-2.52-3.91-3.13-.29-.24-1,0-1.2.41-.74,1.41-1.71,2.6-2.75,4.43Z" transform="translate(-38.75 -3.5)"/><path class="cls-7" d="M163.81,129.18l-.19-3.36a1.26,1.26,0,0,1,1-1.4h0a1.19,1.19,0,0,1,1.2,1.22l.21,3.42" transform="translate(-38.75 -3.5)"/><polygon class="cls-4" points="114.91 127.14 123.14 123.44 124.14 125.76 115.94 128.88 114.91 127.14"/><path class="cls-11" d="M100.24,102.11c.36-2.69-.43-5.34-3.26-8.31s-3.67-5.31-7-7.42c-1.42,1-6.31,5.18-8.66,7.29-10.44,9.35-17,17.45-20.79,30.82-3.77,13.08,4.34,27.5,10.21,36,4.61,6.71,9.49,10,15,15.28.88.12,3.81-5.78,3.72-6.34-10.17-13.19-13.25-25.37-10.3-35.24a44.29,44.29,0,0,1,11.43-19.3S99,111.51,100.24,102.11Z" transform="translate(-38.75 -3.5)"/><path class="cls-12" d="M85.28,103.38S66,122.71,68.43,136.79C70.85,150.59,88,172.33,88,172.33" transform="translate(-38.75 -3.5)"/><g class="cls-13"><path class="cls-11" d="M79.15,134.21a44.29,44.29,0,0,1,11.43-19.3s8.38-3.4,9.66-12.8c.36-2.69-.43-5.34-3.26-8.31s-3.88-5.31-7.16-7.42c-1.43,1-6.11,5.18-8.46,7.29" transform="translate(-38.75 -3.5)"/></g><path class="cls-11" d="M82,91.41c4.69-2.55,13.28-6.16,13.75-5.51,6,3.23,10.43,11.2,11.5,18.49a19.3,19.3,0,0,0,1,4.07,42.28,42.28,0,0,0,10.84,16.83c6.94,6.57,17.5,7,31.53.22.8,2,4.41,5.94,4,6.87-6.12,4.22-10.28,8.16-17.23,11-8.82,3.6-23.13,7.7-32.38-.86-8.33-7.7-14.25-17.37-17.91-29.33Z" transform="translate(-38.75 -3.5)"/><path class="cls-14" d="M88,115.5s21.64,48.16,66.38,16.33l.34.55A70.36,70.36,0,0,1,141,141.63c-6.42,3.33-14.65,6.21-22.41,5.91,0,0-8.82.68-16.15-7.59A66.56,66.56,0,0,1,88,115.5Z" transform="translate(-38.75 -3.5)"/><path class="cls-12" d="M92.54,88.42s9.8,43.34,26.21,47,33.47-7,33.47-7" transform="translate(-38.75 -3.5)"/><path class="cls-12" d="M88.58,90.48c0-.15,1.28,3.78,2.32,7a5.5,5.5,0,0,0,5.06,4.1h0" transform="translate(-38.75 -3.5)"/><path class="cls-10" d="M79.26,27c.55-2.24,2.55-6.5,5.81-6.41s27.62-1.2,27.62-1.2S110.34,60.3,77,46.89C77,46.89,78.07,31.82,79.26,27Z" transform="translate(-38.75 -3.5)"/><path class="cls-10" d="M84,21.91c9.15-2.39,18.73-3.05,28.1-4.14.78-.1.79-1.34,0-1.25-9.48,1.1-19.17,1.77-28.43,4.19a.62.62,0,0,0,.33,1.2Z" transform="translate(-38.75 -3.5)"/><path class="cls-15" d="M80.49,36.08s-2,12-2.3,13.05c0,0,0,7.74,8.52,1,0,0-.45,0-.72-8.88Z" transform="translate(-38.75 -3.5)"/><path class="cls-10" d="M86.37,41.48a4.27,4.27,0,0,1-4.91,2c-1.69-.81-2.46-3-1.5-6.11.38-1.22,3.44-1.28,4.79-.52A4.05,4.05,0,0,1,86.37,41.48Z" transform="translate(-38.75 -3.5)"/><path class="cls-15" d="M91.61,37.14,89.76,36l1.08-2.41,1.85,1.14a1.48,1.48,0,0,1,.49,1.83h0A1.08,1.08,0,0,1,91.61,37.14Z" transform="translate(-38.75 -3.5)"/><path class="cls-15" d="M79.3,28.8l2,.85-.8,2.55-2-.84a1.42,1.42,0,0,1-.69-1.75h0A1.13,1.13,0,0,1,79.3,28.8Z" transform="translate(-38.75 -3.5)"/><path class="cls-16" d="M79,29.45l.8.35-.33,1.05-.8-.35a.59.59,0,0,1-.29-.72h0A.46.46,0,0,1,79,29.45Z" transform="translate(-38.75 -3.5)"/><path class="cls-16" d="M92.41,35.43l-.75-.49-.46,1,.75.48a.45.45,0,0,0,.65-.22h0A.61.61,0,0,0,92.41,35.43Z" transform="translate(-38.75 -3.5)"/><path class="cls-15" d="M89.19,25.44h0c3.42,2.12,4.16,6.85,2.35,10.86l-.14.31c-1.81,4-6.14,5.9-9,4.07l0,0c-2.2-1.58-4.55-7.46-2.74-11.47l.14-.31C81.6,24.87,85.77,23.32,89.19,25.44Z" transform="translate(-38.75 -3.5)"/><path class="cls-17" d="M83.62,38.2l-.26-.13a2.3,2.3,0,0,1-1-2.81h0L86,37.05h0A1.75,1.75,0,0,1,83.62,38.2Z" transform="translate(-38.75 -3.5)"/><path class="cls-10" d="M86.59,34.08c-.11.31-.34.49-.51.4s-.24-.4-.13-.7.33-.49.51-.4S86.69,33.78,86.59,34.08Z" transform="translate(-38.75 -3.5)"/><path class="cls-10" d="M84.08,32.86c-.1.3-.33.48-.51.4s-.23-.4-.13-.71.34-.48.51-.4S84.19,32.55,84.08,32.86Z" transform="translate(-38.75 -3.5)"/><path class="cls-18" d="M84.85,35.55l-1-.43a.23.23,0,0,1-.06-.34l.81-.94c.1-.12.28-.05.3.12l.16,1.37C85.11,35.49,85,35.61,84.85,35.55Z" transform="translate(-38.75 -3.5)"/><path class="cls-10" d="M88.11,33.18c.16.34.17-.78-.12-1.09a.59.59,0,0,0-.93,0A2.14,2.14,0,0,1,88.11,33.18Z" transform="translate(-38.75 -3.5)"/><path class="cls-10" d="M83,30.45c-.34.06.43-.63.81-.54a.76.76,0,0,1,.57.86A1.83,1.83,0,0,0,83,30.45Z" transform="translate(-38.75 -3.5)"/><path class="cls-10" d="M84.33,24.13c.79,4.74,9,10.66,9,10.66s-.15-12.15-6.58-12.32S84.19,23.32,84.33,24.13Z" transform="translate(-38.75 -3.5)"/><path class="cls-10" d="M84.33,24.13l-4.12,4.6-.38-1.88S82,23.36,84.33,24.13Z" transform="translate(-38.75 -3.5)"/><path class="cls-19" d="M88.59,66c22.34,4.22,38-35.9,38-35.9L129.37,21c4.95-7.77,5.84-11.89,5.84-11.89L132,14.23l2.84-8.1c.08-.22-.48.27-.59.47l-3.38,6.06,2.46-8.36c.06-.19-.16-.32-.25-.15l-4.05,7.67s2.22-8.07,1.55-7.45S126.24,14,126.24,14s.21-6.45-.42-5.69c-.42.49-1,4.66-1.29,7.52-.21,1.84.23,2.13-.58,3.74L118.1,31.4c-4.82,10.13-15.94,22.75-30.31,19.71,0,0-4.85.15-5.84,6.91S88.59,66,88.59,66Z" transform="translate(-38.75 -3.5)"/><path class="cls-4" d="M108.12,47.41l3.95,7.74a51.17,51.17,0,0,1-5.2,5.15Z" transform="translate(-38.75 -3.5)"/><path class="cls-4" d="M124,18.39c.49.32,1.08,1,.89,1.37s-1.06.36-1.55,0" transform="translate(-38.75 -3.5)"/><path class="cls-4" d="M126.62,12.07s.42,2.77.39,2.7l.92-5.65Z" transform="translate(-38.75 -3.5)"/><path class="cls-15" d="M85.51,65.75C63.37,69.93,47.89,30.18,47.89,30.18l-2.78-9C40.2,13.48,39.32,9.4,39.32,9.4l3.15,5.08-2.82-8c-.07-.21.48.27.59.47l3.35,6L41.15,4.64c0-.19.17-.31.25-.14l4,7.59s-2.21-8-1.54-7.38,4.33,9.52,4.33,9.52S48,7.84,48.63,8.6c.41.48.95,4.61,1.27,7.44.21,1.83-.23,2.11.58,3.72L56.27,31.5c4.78,10,15.8,22.53,30,19.52,0,0,4.81.15,5.8,6.85S85.51,65.75,85.51,65.75Z" transform="translate(-38.75 -3.5)"/><path class="cls-4" d="M66.16,47.36,62.25,55a51.25,51.25,0,0,0,5.15,5.1Z" transform="translate(-38.75 -3.5)"/><path class="cls-4" d="M50.41,18.6c-.49.32-1.07,1-.89,1.36s1,.36,1.54.05" transform="translate(-38.75 -3.5)"/><path class="cls-4" d="M47.83,12.34s-.41,2.75-.39,2.68l-.9-5.6Z" transform="translate(-38.75 -3.5)"/><path class="cls-20" d="M77.35,51.4c-.37.42-5.55,13-4.59,18.21.64,3.52,7.51,16,9.69,22.85a130.89,130.89,0,0,0,13.38-6.27c.25-5.56,1.79-26.9-4.8-35.17a41,41,0,0,0-5.46-.25S78.8,57.78,77.35,51.4Z" transform="translate(-38.75 -3.5)"/><polygon class="cls-4" points="57.55 79.62 57.45 81.31 45.31 86.73 57.55 79.62"/><path class="cls-6" d="M108.05,44.46C103.11,48.82,98,50,90.24,50.86a11.18,11.18,0,0,0-2.8-.19s-6.69-1.08-9.88-.82a23,23,0,0,1-11.33-5.42L68,61.86a18.09,18.09,0,0,0,4.89,3.48,14.78,14.78,0,0,0-.08,4.27C73.4,73.13,75.71,85,77.9,91.77c0,0,6.26-.78,20.14-10.28a75.51,75.51,0,0,0-1-14.77c3.24-.3,6.1-1.61,9.31-4.67Z" transform="translate(-38.75 -3.5)"/><g class="cls-21"><ellipse class="cls-10" cx="71.52" cy="45.97" rx="1.32" ry="1.55"/><path class="cls-10" d="M72.91,47.49A1.34,1.34,0,1,1,71.59,46,1.45,1.45,0,0,1,72.91,47.49Z" transform="translate(-38.75 -3.5)"/><path class="cls-10" d="M82.82,47.49A1.34,1.34,0,1,1,81.5,46,1.45,1.45,0,0,1,82.82,47.49Z" transform="translate(-38.75 -3.5)"/><path class="cls-10" d="M92.73,47.49A1.34,1.34,0,1,1,91.41,46,1.45,1.45,0,0,1,92.73,47.49Z" transform="translate(-38.75 -3.5)"/><path class="cls-10" d="M102.64,47.49A1.34,1.34,0,1,1,101.32,46,1.45,1.45,0,0,1,102.64,47.49Z" transform="translate(-38.75 -3.5)"/><path class="cls-10" d="M68.72,55.49a1.34,1.34,0,1,1-1.32-1.55A1.45,1.45,0,0,1,68.72,55.49Z" transform="translate(-38.75 -3.5)"/><path class="cls-10" d="M78.63,55.49a1.34,1.34,0,1,1-1.32-1.55A1.45,1.45,0,0,1,78.63,55.49Z" transform="translate(-38.75 -3.5)"/><path class="cls-10" d="M88.54,55.49a1.34,1.34,0,1,1-1.32-1.55A1.45,1.45,0,0,1,88.54,55.49Z" transform="translate(-38.75 -3.5)"/><path class="cls-10" d="M98.45,55.49a1.34,1.34,0,1,1-1.32-1.55A1.45,1.45,0,0,1,98.45,55.49Z" transform="translate(-38.75 -3.5)"/><path class="cls-10" d="M108.36,55.49A1.34,1.34,0,1,1,107,53.94,1.45,1.45,0,0,1,108.36,55.49Z" transform="translate(-38.75 -3.5)"/><path class="cls-10" d="M73.79,64.52A1.34,1.34,0,1,1,72.47,63,1.45,1.45,0,0,1,73.79,64.52Z" transform="translate(-38.75 -3.5)"/><path class="cls-10" d="M83.7,64.52A1.34,1.34,0,1,1,82.38,63,1.45,1.45,0,0,1,83.7,64.52Z" transform="translate(-38.75 -3.5)"/><path class="cls-10" d="M93.61,64.52A1.34,1.34,0,1,1,92.29,63,1.45,1.45,0,0,1,93.61,64.52Z" transform="translate(-38.75 -3.5)"/><path class="cls-10" d="M103.52,64.52A1.34,1.34,0,1,1,102.2,63,1.45,1.45,0,0,1,103.52,64.52Z" transform="translate(-38.75 -3.5)"/><path class="cls-10" d="M113.43,64.52A1.34,1.34,0,1,1,112.11,63,1.45,1.45,0,0,1,113.43,64.52Z" transform="translate(-38.75 -3.5)"/><path class="cls-10" d="M69.61,72.77a1.34,1.34,0,1,1-1.33-1.55A1.45,1.45,0,0,1,69.61,72.77Z" transform="translate(-38.75 -3.5)"/><path class="cls-10" d="M79.51,72.77a1.34,1.34,0,1,1-1.32-1.55A1.45,1.45,0,0,1,79.51,72.77Z" transform="translate(-38.75 -3.5)"/><path class="cls-10" d="M89.42,72.77a1.34,1.34,0,1,1-1.32-1.55A1.45,1.45,0,0,1,89.42,72.77Z" transform="translate(-38.75 -3.5)"/><path class="cls-10" d="M99.33,72.77A1.34,1.34,0,1,1,98,71.22,1.45,1.45,0,0,1,99.33,72.77Z" transform="translate(-38.75 -3.5)"/><path class="cls-10" d="M109.24,72.77a1.34,1.34,0,1,1-1.32-1.55A1.45,1.45,0,0,1,109.24,72.77Z" transform="translate(-38.75 -3.5)"/><path class="cls-10" d="M74.89,79.48a1.34,1.34,0,1,1-1.32-1.55A1.45,1.45,0,0,1,74.89,79.48Z" transform="translate(-38.75 -3.5)"/><ellipse class="cls-10" cx="44.72" cy="75.98" rx="1.32" ry="1.55"/><path class="cls-10" d="M94.71,79.48a1.34,1.34,0,1,1-1.32-1.55A1.45,1.45,0,0,1,94.71,79.48Z" transform="translate(-38.75 -3.5)"/><ellipse class="cls-10" cx="64.54" cy="75.98" rx="1.32" ry="1.55"/><path class="cls-10" d="M114.53,79.48a1.34,1.34,0,1,1-1.32-1.55A1.45,1.45,0,0,1,114.53,79.48Z" transform="translate(-38.75 -3.5)"/><ellipse class="cls-10" cx="31.07" cy="81.91" rx="1.32" ry="1.55"/><path class="cls-10" d="M81.06,85.41a1.34,1.34,0,1,1-1.33-1.55A1.45,1.45,0,0,1,81.06,85.41Z" transform="translate(-38.75 -3.5)"/><ellipse class="cls-10" cx="50.89" cy="81.91" rx="1.32" ry="1.55"/><path class="cls-10" d="M100.88,85.41a1.34,1.34,0,1,1-1.33-1.55A1.45,1.45,0,0,1,100.88,85.41Z" transform="translate(-38.75 -3.5)"/><path class="cls-10" d="M110.78,85.41a1.34,1.34,0,1,1-1.32-1.55A1.45,1.45,0,0,1,110.78,85.41Z" transform="translate(-38.75 -3.5)"/></g></g></g></svg>