<svg id="Layer_1" data-name="Layer 1" xmlns="http://www.w3.org/2000/svg" xmlns:xlink="http://www.w3.org/1999/xlink" viewBox="0 0 167.87 324.27"><defs><style>.cls-1{fill:none;}.cls-2{fill:#e07585;}.cls-3{fill:#fff;}.cls-4{fill:#229dc3;}.cls-5{fill:#1a7996;}.cls-6{fill:#fcc9b9;}.cls-7{fill:#f9b3a0;}.cls-8{fill:#9dc1c7;}.cls-9{clip-path:url(#clip-path);}.cls-10{fill:#5b8a9e;}.cls-11{fill:#ffc050;}.cls-12{fill:#3e6581;}.cls-13{fill:#ffaf53;}.cls-14{fill:#172f4c;}</style><clipPath id="clip-path" transform="translate(-16.49 -37.62)"><path class="cls-1" d="M76.83,196.44s-3.53,11.49-.54,11.3c5.24-.35,36.05.67,57.84,6,0,0,3.52,1.24-3.12-6.35s-49.14-14.12-54.18-10.91Z"/></clipPath></defs><title>human-15</title><path class="cls-2" d="M93.11,250.72c-4.76-2.5-8.44-.82-11.52,4.59-4.1,7.21-9.81,25.22-5.76,27.61,4.63,2.73,12.45-3.16,17-11.91s5-17.79.23-20.29Z" transform="translate(-16.49 -37.62)"/><path class="cls-3" d="M88.83,249.59c-2.79.1-5.15,2-7.24,5.72-4.1,7.21-9.81,25.22-5.76,27.61a4.48,4.48,0,0,0,.58.29,57.07,57.07,0,0,1,12.42-33.62Z" transform="translate(-16.49 -37.62)"/><path class="cls-3" d="M93.31,269a22.37,22.37,0,0,1-6.1-5.09A1.15,1.15,0,0,1,89,262.39a20.15,20.15,0,0,0,5.4,4.54,1.14,1.14,0,1,1-1,2Z" transform="translate(-16.49 -37.62)"/><path class="cls-3" d="M91.75,272.31a22.14,22.14,0,0,1-6.1-5.09,1.14,1.14,0,1,1,1.73-1.48,20.39,20.39,0,0,0,5.4,4.54,1.14,1.14,0,0,1-1,2Z" transform="translate(-16.49 -37.62)"/><path class="cls-3" d="M90.25,275.42a22.37,22.37,0,0,1-6.1-5.09,1.14,1.14,0,0,1,1.73-1.49,20.27,20.27,0,0,0,5.41,4.54,1.14,1.14,0,1,1-1,2Z" transform="translate(-16.49 -37.62)"/><path class="cls-2" d="M21.78,327.34c-5.06,1.83-6.31,5.68-4.39,11.59,2.56,7.9,12,24.26,16.5,22.89C39,360.24,40,350.49,36.6,341.2s-9.76-15.69-14.82-13.86Z" transform="translate(-16.49 -37.62)"/><path class="cls-3" d="M18.05,329.73c-1.81,2.13-2,5.19-.66,9.2,2.56,7.9,12,24.26,16.49,22.89a5.53,5.53,0,0,0,.61-.24,57.05,57.05,0,0,1-16.44-31.85Z" transform="translate(-16.49 -37.62)"/><path class="cls-3" d="M35.38,339.5a22.13,22.13,0,0,1-7.87,1.07,1.14,1.14,0,0,1,.07-2.28,20.14,20.14,0,0,0,7-.93,1.14,1.14,0,0,1,.8,2.14Z" transform="translate(-16.49 -37.62)"/><path class="cls-3" d="M36.79,342.91A22.13,22.13,0,0,1,28.92,344,1.14,1.14,0,1,1,29,341.7a20.14,20.14,0,0,0,7-.93,1.14,1.14,0,0,1,.8,2.14Z" transform="translate(-16.49 -37.62)"/><path class="cls-3" d="M38.07,346.11a22.13,22.13,0,0,1-7.87,1.07,1.14,1.14,0,0,1,.07-2.28,20.14,20.14,0,0,0,7-.93,1.14,1.14,0,0,1,.8,2.14Z" transform="translate(-16.49 -37.62)"/><path class="cls-4" d="M81.39,190.22c-3.48,1.34-7.4,49.95-61.49,138.17,0,0,11.25,12.52,16.79,6.92,0,0,61.59-95.9,64-99.75,2.71-4.31,8.44-4,12.24-1,2.19,1.74,18.76,17.74,8.33,18.25s-20.48-1.35-26.88-1.53c-1.19,0-6.06,11-1.2,14.77s53.35,10.14,58.87,1.85c7.64-11.51-17-53.51-23.08-60.44S84.87,188.89,81.39,190.22Z" transform="translate(-16.49 -37.62)"/><path class="cls-5" d="M73.34,215.54c5.1-16.14,6.61-24.76,8-25.32,3.48-1.33,41.5,10.31,47.59,17.24a87.4,87.4,0,0,1,7.33,10.88,119.63,119.63,0,0,0-31.55-5.88,110.89,110.89,0,0,0-27.5,2.23c-1.31.27-2.62.54-3.92.85Z" transform="translate(-16.49 -37.62)"/><path class="cls-5" d="M106.81,196.63l1.07.38A194.71,194.71,0,0,1,109,221c0,.89-.06,1.76-.11,2.61h.14a3.2,3.2,0,0,0,3.31-1.48,12.91,12.91,0,0,0,1.79-5.32c.79-5,.47-11.7-.1-17.48l1.07.43c.54,5.74.82,12.31.05,17.21a13.88,13.88,0,0,1-2,5.76,4.19,4.19,0,0,1-4.31,1.9h0a50.37,50.37,0,0,1-1,7.73,7.13,7.13,0,0,0-1-.07A58.36,58.36,0,0,0,108,221,196.81,196.81,0,0,0,106.81,196.63Z" transform="translate(-16.49 -37.62)"/><path class="cls-5" d="M110.59,270.19c-8.66-1.21-15.7-2.85-17.4-4.14-4.86-3.72,0-14.8,1.2-14.77,6.17.17,15.73,1.9,25.76,1.57l-.74.75a42.27,42.27,0,0,0-6,8.27,21.89,21.89,0,0,0-2.78,8.32Z" transform="translate(-16.49 -37.62)"/><path class="cls-6" d="M156.27,156.9c.2-2.26,9.85-22.45,10.16-29.23l9.42,3.89a181.66,181.66,0,0,1-8.92,36.26S156.07,159.16,156.27,156.9Z" transform="translate(-16.49 -37.62)"/><path class="cls-7" d="M160.08,147c1.47,3.45,5.11,8.1,10.66,8.81-1.16,4.09-2.44,8.08-3.8,12,0,0-10.87-8.66-10.67-10.92C156.35,156,158.08,151.91,160.08,147Z" transform="translate(-16.49 -37.62)"/><path class="cls-6" d="M176,132.07c-2.12,1.45-6,2.67-8.31,1.11-3-2-7.85-11.11-9.63-13.15-.55-.63-2-2.46-1.63-3.38.8-2.08,7.33,3.7,7.37,3.66.24-.23.73-10.84,2.68-11.58,2.24-.85,2.06,7.74,2.39,7.72s2.39-8.15,5.2-7.67c1.92.34-.15,8.71.06,8.83s5.26-6,6.81-4.63-2.62,6.08-2.89,7.88c0,.16,5.69-3,6.26-1.39.35,1-3.33,4.34-3.84,5-2.08,2.68-2.34,6.14-4.47,7.59Z" transform="translate(-16.49 -37.62)"/><path class="cls-6" d="M40,95.15S34.56,66.66,35,54.33L23.72,56.24s-8.08,47.09,7.84,48.86c13.33,1.48,8-12.13,8.46-9.95Z" transform="translate(-16.49 -37.62)"/><path class="cls-7" d="M21.8,85.38c.72,1.4,4.53,7.3,17.32,4.81.48,2.72.82,4.53.89,4.89a.15.15,0,0,1,0,.07v-.07c-.32-1.81,4.73,11.49-8.45,10-6.77-.75-9.2-9.69-9.76-19.72Z" transform="translate(-16.49 -37.62)"/><path class="cls-6" d="M33.24,57.07c1-.57,2.33-1.91,4.58-5.44a6.91,6.91,0,0,0,1.24-5.47c-.53-3-3.72-2-3.93-2.3s-.18-6.57-5.34-6.22a1.89,1.89,0,0,0-2,1.78,3.42,3.42,0,0,0-3.42-1.06c-2.06.55-2.24,3-2.24,3a1.89,1.89,0,0,0-2.49,1,3.09,3.09,0,0,0-.23,2.63s-1.08-1-2.19.85-.91,2.49.46,4.92c1.26,2.23,4.38,6.19,6.54,7.08C28,59.47,30.57,58.64,33.24,57.07Z" transform="translate(-16.49 -37.62)"/><path class="cls-7" d="M30.19,44.87a23.4,23.4,0,0,1,4.88-1.29,1.89,1.89,0,0,0,.06.28.2.2,0,0,0,.13.06l-1.42.32c-.5.14-1,.28-1.51.44s-.84.28-1.25.45c-1.27.51-2.75,1.1-3.07,2.58a1.32,1.32,0,0,0,.44,1.43,2.87,2.87,0,0,0,1.23.56,21.94,21.94,0,0,0,3.33.4,9,9,0,0,0,1.16,0,10.43,10.43,0,0,1-1.65.25,14.32,14.32,0,0,1-2.63-.1l-.19.15a5.18,5.18,0,0,0-1.62,2.14c-.11.27-.37,1-.35.79a7.35,7.35,0,0,1,.92-2.79,3.39,3.39,0,0,1,.4-.48A2.21,2.21,0,0,1,27.4,48.6a1.68,1.68,0,0,1-.45,0,1.37,1.37,0,0,1-.35-.08c-.05.09-.13.19-.19.31a2.5,2.5,0,0,1-.23.39,2.18,2.18,0,0,1-2.29.71,5.62,5.62,0,0,1-.33,1.15,3.94,3.94,0,0,1-.65,1.17,1.75,1.75,0,0,1-2,.22,6.65,6.65,0,0,1-3-2.72l0,0h0l0,0c.2.21.4.43.61.63.78.76,2,1.82,3.2,1.7.85-.08,1.42-1.09,1.62-1.82a2.72,2.72,0,0,0,0-.49,1.83,1.83,0,0,1-.34-.18,12.33,12.33,0,0,1-4.28-4.78,1.16,1.16,0,0,1,.6.22,7.85,7.85,0,0,0,.54.8c1,1.36,2.28,3.11,4,3.51a2.24,2.24,0,0,0,1.47-.07,2.13,2.13,0,0,0,.68-.72,1.42,1.42,0,0,0,.1-.21,5.78,5.78,0,0,1-1.2-1,13.56,13.56,0,0,1-2.27-3.59,9.8,9.8,0,0,1-1-2.52,1.79,1.79,0,0,1,.41.13v-.07l.05.12a12.9,12.9,0,0,0,.84,1.9A18.79,18.79,0,0,0,25.35,47a3.3,3.3,0,0,0,1.46,1.18,1.19,1.19,0,0,0,.53,0,.49.49,0,0,1,0-.12,3.08,3.08,0,0,1,2-2.76l.24-.12a10.82,10.82,0,0,0-.25-1.13,34.8,34.8,0,0,0-1-3.48c-.16-.41-.29-.82-.44-1.24A1.94,1.94,0,0,1,28,38.6a17,17,0,0,1,1,2.56c.21.62.38,1.25.56,1.88s.3,1,.48,1.48c0,.1.08.23.12.35Z" transform="translate(-16.49 -37.62)"/><path class="cls-8" d="M76.83,196.44s-3.53,11.49-.54,11.3c5.24-.35,36.05.67,57.84,6,0,0,3.52,1.24-3.12-6.35s-49.14-14.12-54.18-10.91Z" transform="translate(-16.49 -37.62)"/><g class="cls-9"><path class="cls-10" d="M80.84,196.7l-.28,14a.51.51,0,0,0,.5.53.52.52,0,0,0,.53-.51l.28-14a.53.53,0,0,0-.51-.53A.52.52,0,0,0,80.84,196.7Z" transform="translate(-16.49 -37.62)"/><path class="cls-10" d="M89.63,198.17l-.45,14a.52.52,0,1,0,1,0l.45-14a.51.51,0,0,0-.49-.53.52.52,0,0,0-.54.5Z" transform="translate(-16.49 -37.62)"/><path class="cls-10" d="M99,198.17l-.74,14a.51.51,0,0,0,1,.06l.75-14a.52.52,0,0,0-.49-.54A.51.51,0,0,0,99,198.17Z" transform="translate(-16.49 -37.62)"/><path class="cls-10" d="M106.5,199.68l-.49,14a.52.52,0,0,0,.49.54.52.52,0,0,0,.54-.5l.49-14a.52.52,0,0,0-.5-.53.51.51,0,0,0-.53.5Z" transform="translate(-16.49 -37.62)"/><path class="cls-10" d="M114.68,199.79l-.65,14a.51.51,0,1,0,1,.05l.65-14a.51.51,0,1,0-1-.05Z" transform="translate(-16.49 -37.62)"/><path class="cls-10" d="M122.81,201.37l.59,14a.52.52,0,0,0,1,0l-.6-14a.51.51,0,0,0-.53-.49.5.5,0,0,0-.49.54Z" transform="translate(-16.49 -37.62)"/><path class="cls-10" d="M129.83,204.64l.54,14a.51.51,0,0,0,.53.49.51.51,0,0,0,.5-.53l-.54-14a.52.52,0,0,0-.54-.49A.51.51,0,0,0,129.83,204.64Z" transform="translate(-16.49 -37.62)"/></g><path class="cls-11" d="M40,89.8s33.19,25.37,48.4,30.75c14.65,5.18,36.12,13.19,48.75,26.12,5.9,6,12.12,13.33,13.23,12.07,1.71-1.94,2.13-3.79,3.53-4.33,3.08-1.18,15,7.67,15.54,13.83.48,5.73-3.78,22.59-18.42,16.15-16.34-7.2-20.67-11.94-20.67-11.94s4.8,22.85,3.33,31.64c-.49,3-1,4.78-2.34,4-7.89-4.29-47.41-10.85-55.39-8.37,0,0-6.86-4.8-1.72-49.15,0,0-12.39-11.41-24.68-21.66-9.59-8-17-19-20.06-20.19S33.9,94.13,40,89.8Z" transform="translate(-16.49 -37.62)"/><path class="cls-8" d="M22.85,95s12.59.91,16.07-5.77a8.57,8.57,0,0,1,7.32,3.92C49.85,98.72,32.56,112,28.65,108.4c-6.55-6-7.8-11.54-5.8-13.44Z" transform="translate(-16.49 -37.62)"/><path class="cls-8" d="M158.49,150s-5.88,3.21-4.34,7.95,13,12.45,15.08,9.34,1.26-8.38.79-9.31-6.83-.73-11.53-8Z" transform="translate(-16.49 -37.62)"/><path class="cls-12" d="M150,159.73s-1.39,8.65,2.55,15A61.68,61.68,0,0,1,150,159.73Z" transform="translate(-16.49 -37.62)"/><path class="cls-13" d="M130.34,172.45c-.29-1.16-4.38-17.72-5.65-21.2s6.06,11.35,9.52,15.4,17.06,18.31,28.21,17.67c-2.78,1.77-6.52,2.22-11.41.07C134.77,177.24,130.4,172.51,130.34,172.45Z" transform="translate(-16.49 -37.62)"/><path class="cls-13" d="M80.43,175.79a55.2,55.2,0,0,0,42.13,22.44S103.1,195.63,80.43,175.79Z" transform="translate(-16.49 -37.62)"/><path class="cls-13" d="M75.72,149.07a36.53,36.53,0,0,0,8.16-11.39Z" transform="translate(-16.49 -37.62)"/><path class="cls-13" d="M79.8,128.42s.85,12.35-4.08,18.52C75.72,146.94,79.71,134.78,79.8,128.42Z" transform="translate(-16.49 -37.62)"/><path class="cls-3" d="M90.63,121.53s-15.85,2.64,17.22,26.23c0,0,12-12.81,3.23-17.51C98.71,123.63,90.63,121.53,90.63,121.53Z" transform="translate(-16.49 -37.62)"/><path class="cls-13" d="M92.14,122.63s-11.69.39,15.25,21.68c0,0,8.94-9.51,1.85-14.07C99.29,123.84,92.14,122.63,92.14,122.63Z" transform="translate(-16.49 -37.62)"/><path class="cls-6" d="M90.59,112.17s1.14,6.35-.15,11.25c-.47,1.8,9.8,12.28,14.85,13.81,3,.93,4.58-2.16,4.69-6.29,0,0-5.45-6.61-4.17-14.2.86-5-15.22-4.57-15.22-4.57Z" transform="translate(-16.49 -37.62)"/><path class="cls-7" d="M91.05,117.52a35.54,35.54,0,0,0-.46-5.35s16.08-.46,15.22,4.57a16.27,16.27,0,0,0,.91,8.26C101.14,124.49,94.59,120.17,91.05,117.52Z" transform="translate(-16.49 -37.62)"/><path class="cls-7" d="M116.57,94.34a5.79,5.79,0,1,1-5.89,5.07A5.51,5.51,0,0,1,116.57,94.34Z" transform="translate(-16.49 -37.62)"/><path class="cls-14" d="M115.53,81.16s3.34,10.72-.12,17.81-9.08-8.5-9.08-8.5l-4-7,13.16-2.29Z" transform="translate(-16.49 -37.62)"/><path class="cls-6" d="M92.49,75.07c10.11-2.49,21.07,6.33,23.29,18.32,2,10.59-1.62,22-7.83,24.21-9.83,3.42-23.25-2.25-27.48-13.79S82.38,77.55,92.49,75.07Z" transform="translate(-16.49 -37.62)"/><path class="cls-7" d="M80.21,103.07c-3.66-11.34,2.39-25.57,12.28-28C101,73,110,78.85,114.06,87.86c-.68.34-.67-.53-1.22-.43-4.91.85-11.77-3-15.21-.61C92.75,90.26,86.29,89,86.29,89,86,92.59,81,103.39,81,103.39s-.29-.1-.8-.32Z" transform="translate(-16.49 -37.62)"/><path class="cls-14" d="M81.51,107s3.2-13.34,3.17-20.06c0,0,6.93,1.14,10.41-.6,5-2.51,8.92-.73,10.42-.49,4.43.72,10.65,1.52,15.33-7.4,4-7.54-2.31-12.62-11.6-10.07-4.94,1.35-8.37-.23-12.31-1.63-11.84-4.21-15.36,2.7-16.45,8.88C80.48,75.61,63.88,86.11,81.51,107Z" transform="translate(-16.49 -37.62)"/><path class="cls-14" d="M76.89,79c3.28,2.7,9.74,6.9,16.64,5.22,9.91-2.43,12.2-.72,14.9,0a17.5,17.5,0,0,0,6,1c-3.14,1.46-6.32,1-8.89.59-1.51-.24-5.4-2-10.43.49-3.48,1.74-10.41.6-10.41.6,0,6.72-3.17,20.06-3.17,20.06C69.69,93,73.26,83.66,76.89,79Z" transform="translate(-16.49 -37.62)"/><path class="cls-6" d="M77.65,100.45a5.79,5.79,0,1,1-1,7.72A5.53,5.53,0,0,1,77.65,100.45Z" transform="translate(-16.49 -37.62)"/><path class="cls-14" d="M95,94.57c-.59.08-1,.89-.83,1.81s.73,1.58,1.32,1.49,1-.9.83-1.81-.73-1.58-1.32-1.49Z" transform="translate(-16.49 -37.62)"/><path class="cls-14" d="M109.18,93.5c-.6,0-1,.81-1,1.73s.58,1.64,1.18,1.6,1-.81,1-1.73S109.77,93.46,109.18,93.5Z" transform="translate(-16.49 -37.62)"/><path class="cls-14" d="M98.63,91.79s-3.79-6.5-8.19.29C90.44,92.08,94.72,89.72,98.63,91.79Z" transform="translate(-16.49 -37.62)"/><path class="cls-14" d="M113.41,90.64s-3.53-5.9-7.36.32C106.05,91,110.2,88.68,113.41,90.64Z" transform="translate(-16.49 -37.62)"/><path class="cls-14" d="M106.63,104.31c-1.35-.27-6.61-1.48-8.42-1.69s-2,7,2.62,8.21C105.16,111.93,108.4,104.68,106.63,104.31Z" transform="translate(-16.49 -37.62)"/><path class="cls-3" d="M107.08,104.81a.59.59,0,0,0-.45-.5c-1.35-.27-6.62-1.48-8.42-1.69-.35,0-.64.19-.84.59.55,1,2,1.7,5.25,2.4C105.15,106.16,106.44,105.51,107.08,104.81Z" transform="translate(-16.49 -37.62)"/></svg>