<svg xmlns="http://www.w3.org/2000/svg" xmlns:xlink="http://www.w3.org/1999/xlink" viewBox="0 0 151.01 350.11"><defs><style>.cls-1,.cls-6,.cls-9{fill:none;}.cls-2{isolation:isolate;}.cls-11,.cls-3{fill:#f9b39b;}.cls-4{fill:#e88987;}.cls-5{fill:#259dc3;}.cls-6{stroke:#fffaef;stroke-linecap:square;stroke-width:0.46px;}.cls-11,.cls-6{stroke-linejoin:round;}.cls-7{fill:#f38397;}.cls-8{fill:#065569;stroke:#065569;stroke-width:0.96px;}.cls-10,.cls-8,.cls-9{stroke-miterlimit:10;}.cls-9{stroke:#fff;stroke-width:0.52px;}.cls-10{fill:#034252;stroke:#034252;stroke-width:0.96px;opacity:0.36;mix-blend-mode:multiply;}.cls-11{stroke:#f9b39b;stroke-linecap:round;stroke-width:1.14px;}.cls-12{fill:#d97170;}.cls-13{fill:#e07585;}.cls-14{clip-path:url(#clip-path);}.cls-15{fill:#fff;}.cls-16{fill:#17304d;}.cls-17{fill:#eb826e;}</style><clipPath id="clip-path" transform="translate(-22.32 -30.63)"><path class="cls-1" d="M85.57,129.09l29.4-.74s-2.14,12.3-13.54,13.6S85.57,129.09,85.57,129.09Z"/></clipPath></defs><title>human-8</title><g class="cls-2"><g id="Layer_2" data-name="Layer 2"><polygon class="cls-3" points="71.55 282.3 84.59 303.36 55.03 320.1 53.78 317.65 65.35 297.88 56.6 291.24 71.55 282.3"/><polygon class="cls-4" points="71.55 282.3 84.59 303.36 55.03 320.1 53.78 317.65 74.13 293.17 67.71 284.22 71.55 282.3"/><polyline class="cls-5" points="65.35 297.88 53.78 317.65 55.03 320.1 84.59 303.36 76.22 289.85"/><line class="cls-6" x1="63.22" y1="301.54" x2="68.86" y2="302.35"/><line class="cls-6" x1="61.55" y1="304.24" x2="67.19" y2="305.05"/><polygon class="cls-3" points="111.11 305.43 99.75 325.76 124.02 349.94 125.84 347.92 119.62 325.73 125.35 313.8 111.11 305.43"/><polygon class="cls-4" points="122.45 312.81 111.09 333.14 124.02 349.94 125.84 347.92 119.62 325.73 125.35 313.8 122.45 312.81"/><polyline class="cls-7" points="107.27 313.08 99.93 325.94 124.2 350.11 126.01 348.09 119.8 325.9"/><line class="cls-6" x1="122.12" y1="334.16" x2="115.6" y2="334.35"/><line class="cls-6" x1="121.82" y1="331.68" x2="115.3" y2="331.87"/><path class="cls-8" d="M172.84,275.73c-.24-14.08-1.32-30.19-17.48-46.09-7.42-7.29-25.64-21.66-25.64-21.66-.41,1.39-11.87-1.15-12.37.75-6.76-1.17-15.92-1.14-18.89-3.53-2.06,1.09-17.88,3.46-21.89,4.28C59,213.07,30.18,224.26,23.85,242c-9.32,26.08,46.37,73,53.5,81.34,1.21.34,16.36-9.06,16.79-9.54-13-20.06-34.87-46.88-30.93-53.73,4.42-7.68,29-20.84,42.22-18.13,12,1.55,23.18,17.78,29.3,33.57,4.94,12.77,5.49,29.24-5.85,60,.21.18,16.55,9.46,18,9.64C156.42,329.14,173.19,295.83,172.84,275.73Z" transform="translate(-22.32 -30.63)"/><path class="cls-9" d="M114.22,209l12.28,11.49a15.37,15.37,0,0,0,19.77,1.21h0" transform="translate(-22.32 -30.63)"/><path class="cls-9" d="M143.17,223.87s19.39,18.93,23.09,32.65c8.62,31.93-21.49,86.92-21.49,86.92" transform="translate(-22.32 -30.63)"/><path class="cls-9" d="M91.31,209.57,77,218.07a15.42,15.42,0,0,1-19.57-3.23h0" transform="translate(-22.32 -30.63)"/><path class="cls-9" d="M62.65,218.42s-30,13.68-33,26.6c-5.32,23.11,51,77.71,51,77.71" transform="translate(-22.32 -30.63)"/><path class="cls-10" d="M73.2,207.67l61.12,1s-15.39,14.27-32.59,14C87,222.45,73.2,207.67,73.2,207.67Z" transform="translate(-22.32 -30.63)"/><path class="cls-11" d="M57.52,60.78s10.95-4.68,10-5.74c-.58-.68-3.14-.74-4.89-.7a1.17,1.17,0,0,1-.94-1.72c1-2.47,3-7,4.48-10.18,2.2-4.6,1.14-5.49-3.85,1.57s2.51-7.22,1.51-7.66-5,7.59-6.08,7.58,3.3-8,2-9.24-4.51,7.65-5.14,7.88,1.56-6,.92-6.33C53.29,35,48.81,51.75,48.69,53.12S57.52,60.78,57.52,60.78Z" transform="translate(-22.32 -30.63)"/><path class="cls-12" d="M62.41,53.65l-2.88.44L64,48.52S62,53.22,62.41,53.65Z" transform="translate(-22.32 -30.63)"/><path class="cls-7" d="M89.77,129.08l24.56-.74s11.22-1.75,18.62-6.29c5.51-3.38,17.64-15,21.74-26.12,3.61-9.78,2.38-18.86-1.85-29.4L149,59.24l12.56-7.78s39.94,71.82-27.2,104.65l3.35,54.7s-27.87,2.48-66.52-1.45L69.86,160.7S-1.28,135.75,48,53.51l10.48,8.63-4.33,8.15c-5.2,13.34-5.73,26.69.58,38.22,3.66,6.68,10.22,12.09,13.55,14.63,6.94,5.29,18.27,5.74,18.27,5.74l2.37.2" transform="translate(-22.32 -30.63)"/><path class="cls-13" d="M134.31,156.11l-29.63,54.94s22.75,1.21,33-.24Z" transform="translate(-22.32 -30.63)"/><g class="cls-14"><path class="cls-15" d="M85.35,130.93c1-.09,2.06-.28,3.08-.45a22.12,22.12,0,0,1,3-.36.39.39,0,0,0,0-.78,21.4,21.4,0,0,0-3.08.37c-1,.16-2,.36-3,.45-.49,0-.5.82,0,.77Z" transform="translate(-22.32 -30.63)"/><path class="cls-15" d="M86.58,134.09c1.93-.36,3.67-1.44,5.6-1.81.49-.09.28-.84-.21-.75-1.93.37-3.67,1.45-5.6,1.81-.49.1-.28.85.21.75Z" transform="translate(-22.32 -30.63)"/><path class="cls-15" d="M88.56,137.18a19.33,19.33,0,0,0,2.84-1.6c.92-.57,1.82-1.18,2.77-1.71.43-.24,0-.91-.4-.67-.92.52-1.8,1.11-2.7,1.67-.51.32-1,.64-1.55.94l-.67.38-.29.14-.21.1a.38.38,0,0,0-.27.47.4.4,0,0,0,.48.28Z" transform="translate(-22.32 -30.63)"/><path class="cls-15" d="M95,133.8c-1.14,2.54-3,4.71-4.13,7.25-.2.46.47.85.67.4,1.14-2.55,3-4.72,4.13-7.26.21-.45-.46-.85-.67-.39Z" transform="translate(-22.32 -30.63)"/><path class="cls-15" d="M96.53,134.61c-.48,2.33-1.85,4.39-2.33,6.72-.1.49.65.69.75.2.48-2.32,1.85-4.38,2.32-6.71.1-.49-.64-.7-.74-.21Z" transform="translate(-22.32 -30.63)"/><path class="cls-15" d="M98.33,134.89c-.43,2.59-1.17,5.12-1.61,7.71-.08.49.67.7.75.21.44-2.59,1.17-5.13,1.61-7.72.09-.49-.66-.7-.75-.2Z" transform="translate(-22.32 -30.63)"/><path class="cls-15" d="M99.7,135.08c.18,2.48.34,5,.52,7.44,0,.49.82.5.78,0-.18-2.48-.34-5-.52-7.44,0-.5-.82-.5-.78,0Z" transform="translate(-22.32 -30.63)"/><path class="cls-15" d="M102.13,134.82c.73,2.7.75,5.55,1.48,8.25a.39.39,0,0,0,.75-.21c-.73-2.69-.75-5.55-1.48-8.25a.39.39,0,0,0-.75.21Z" transform="translate(-22.32 -30.63)"/><path class="cls-15" d="M103.63,134.37c1.24,2.45,2.11,5.08,3.36,7.53.22.45.89,0,.67-.39-1.25-2.45-2.11-5.08-3.36-7.53-.23-.45-.9-.06-.67.39Z" transform="translate(-22.32 -30.63)"/><path class="cls-15" d="M105.24,133.63a30.12,30.12,0,0,1,2.08,2.82c.66,1,1.31,2,2,2.91.29.41,1,0,.67-.39-.7-1-1.36-2-2-3a32.11,32.11,0,0,0-2.15-2.91c-.33-.37-.88.18-.55.55Z" transform="translate(-22.32 -30.63)"/><path class="cls-15" d="M106.45,132.36c1.75,1.43,3,3.38,4.74,4.81a.41.41,0,0,0,.55,0,.39.39,0,0,0,0-.55c-1.75-1.43-3-3.38-4.74-4.81a.4.4,0,0,0-.55,0,.38.38,0,0,0,0,.55Z" transform="translate(-22.32 -30.63)"/><path class="cls-15" d="M107.91,131.52a23.94,23.94,0,0,1,2.54,1.86,24.22,24.22,0,0,0,2.54,1.85.39.39,0,0,0,.39-.67,23.94,23.94,0,0,1-2.54-1.86,25.32,25.32,0,0,0-2.54-1.85.39.39,0,0,0-.39.67Z" transform="translate(-22.32 -30.63)"/><path class="cls-15" d="M109,130.47a17.73,17.73,0,0,1,3,1.06c1,.42,2,.86,2.93,1.33.45.22.84-.45.39-.67-1-.49-2-.94-3-1.37a17.06,17.06,0,0,0-3.1-1.1c-.49-.11-.7.64-.21.75Z" transform="translate(-22.32 -30.63)"/><path class="cls-15" d="M109.65,128.85a33.3,33.3,0,0,1,6.27,1.08c.49.11.7-.64.21-.75a34.72,34.72,0,0,0-6.48-1.11.39.39,0,0,0,0,.78Z" transform="translate(-22.32 -30.63)"/></g><path class="cls-15" d="M149.87,59.3a54.08,54.08,0,0,1,2.66,4.91.64.64,0,1,0,1.11-.65A52.69,52.69,0,0,0,151,58.65c-.43-.71-1.55-.06-1.12.65Z" transform="translate(-22.32 -30.63)"/><path class="cls-15" d="M151.84,58a27.57,27.57,0,0,1,2.84,4.22.65.65,0,0,0,1.12-.66,31,31,0,0,0-3-4.48.66.66,0,0,0-.92,0,.68.68,0,0,0,0,.92Z" transform="translate(-22.32 -30.63)"/><path class="cls-15" d="M154.28,56.57q1.5,2.34,2.88,4.75a.66.66,0,0,0,.89.23.67.67,0,0,0,.23-.89c-.92-1.6-1.88-3.19-2.88-4.74a.65.65,0,1,0-1.12.65Z" transform="translate(-22.32 -30.63)"/><path class="cls-15" d="M156.84,55.37A22.59,22.59,0,0,1,160,60.49a.65.65,0,0,0,1.12-.65,23.94,23.94,0,0,0-3.38-5.39.66.66,0,0,0-.92,0,.67.67,0,0,0,0,.92Z" transform="translate(-22.32 -30.63)"/><path class="cls-15" d="M159.6,53.65a28,28,0,0,1,3.1,4.66.65.65,0,1,0,1.12-.66,30,30,0,0,0-3.31-4.92.65.65,0,0,0-.91,0,.66.66,0,0,0,0,.92Z" transform="translate(-22.32 -30.63)"/><path class="cls-15" d="M48.71,54.63a33.31,33.31,0,0,0-3.12,4.67.67.67,0,0,0,.24.89.65.65,0,0,0,.88-.24,32.21,32.21,0,0,1,2.91-4.4.67.67,0,0,0,0-.92.64.64,0,0,0-.91,0Z" transform="translate(-22.32 -30.63)"/><path class="cls-15" d="M50.22,56.74l-2.66,4.09a.64.64,0,0,0,.23.88.65.65,0,0,0,.89-.23l2.66-4.09a.66.66,0,0,0-.23-.88.67.67,0,0,0-.89.23Z" transform="translate(-22.32 -30.63)"/><path class="cls-15" d="M52.23,58.48,49.9,61.93a.65.65,0,0,0,.23.88.66.66,0,0,0,.89-.23c.77-1.15,1.55-2.3,2.33-3.44a.65.65,0,0,0-1.12-.66Z" transform="translate(-22.32 -30.63)"/><path class="cls-15" d="M54.56,60.16A21.63,21.63,0,0,0,52,64a.65.65,0,1,0,1.12.66,20.38,20.38,0,0,1,1.13-1.91c.19-.3.4-.59.61-.87l.17-.22,0-.05.08-.1.36-.44a.67.67,0,0,0,0-.92.66.66,0,0,0-.92,0Z" transform="translate(-22.32 -30.63)"/><path class="cls-15" d="M56.45,61.75A33.84,33.84,0,0,0,54,65.64a.65.65,0,1,0,1.11.66,33.19,33.19,0,0,1,2.51-3.9.65.65,0,1,0-1.12-.65Z" transform="translate(-22.32 -30.63)"/><path class="cls-11" d="M151.21,57.73s-8.06-9.8-6.44-10,3.25,4.69,5.95,3,2.55-18.21,3.38-17.43,1.82,8.92,1.82,8.92.73-11,1.86-11,1.23,10,1.23,10,2.12-10,3-9.44-.84,9.86-.84,9.86,2.3-6.13,2.62-4.43-3.48,14.14-3.48,14.14Z" transform="translate(-22.32 -30.63)"/><path class="cls-12" d="M152.36,42.84s.58,10.28-.92,9.56a6.39,6.39,0,0,1-2.3-1.94S151.67,51.79,152.36,42.84Z" transform="translate(-22.32 -30.63)"/><path class="cls-11" d="M111.79,100.46l-3.06.1.12-3.84,3.07-.11a1.68,1.68,0,0,1,1.64,1.87h0A2,2,0,0,1,111.79,100.46Z" transform="translate(-22.32 -30.63)"/><path class="cls-12" d="M111.92,97.85h-1.26l-.08,1.59,1.27,0a.8.8,0,0,0,.74-.8h0A.7.7,0,0,0,111.92,97.85Z" transform="translate(-22.32 -30.63)"/><path class="cls-11" d="M88.52,100.23l3-.85.66,3.75-3,.85a1.61,1.61,0,0,1-2-1.4h0A2.07,2.07,0,0,1,88.52,100.23Z" transform="translate(-22.32 -30.63)"/><path class="cls-12" d="M88.78,101.18l1.23-.35.27,1.55-1.23.35a.67.67,0,0,1-.83-.58h0A.86.86,0,0,1,88.78,101.18Z" transform="translate(-22.32 -30.63)"/><path class="cls-11" d="M107.75,109.54l2.31,19.25s-9.07,15.4-19.78.44L93.08,110Z" transform="translate(-22.32 -30.63)"/><path class="cls-12" d="M90.14,129.87c10.71,14.95,20.41-.61,20.41-.61S100.58,137.08,90.14,129.87Z" transform="translate(-22.32 -30.63)"/><path class="cls-16" d="M106.51,92.38,108,110.91s-6.06,17.73-15.23.24l3.6-19.28Z" transform="translate(-22.32 -30.63)"/><path class="cls-11" d="M100.48,113.16s-9.87.61-10.35-10.9v-.49c-.05-6.43,4.11-13.69,9.77-14.1h0c5.66-.41,10.68,6.19,10.74,12.62v.49C110.69,107.21,108.23,113.17,100.48,113.16Z" transform="translate(-22.32 -30.63)"/><path class="cls-15" d="M100.82,108.28h0a3.58,3.58,0,0,1-3.71-3.77v-.31l7.23-.65v.31A4.21,4.21,0,0,1,100.82,108.28Z" transform="translate(-22.32 -30.63)"/><path class="cls-16" d="M104.61,85.71A5.41,5.41,0,0,1,108,86.83a6,6,0,0,1,1.47,2.33,47.14,47.14,0,0,1,1.26,7c-.29.1-5.58-7.36-6.09-8.09C104.61,88,103.35,85.87,104.61,85.71Z" transform="translate(-22.32 -30.63)"/><path class="cls-16" d="M107,77.43c-1.43-1.63-14.07,2-15.94,4.5-1.4.68-2.56,8.68-2.33,13.13,0,.79.22,4.66.92,4.74.28,0,1.81-3.76,2.94-6.65A9.05,9.05,0,0,1,94.62,90c.89-.88,2-1.55,2.77-.76,1.61,1.6,4.79,1.81,6.09-.24s5.45,5.89,7.26,6.89C110.74,95.84,108.42,79.06,107,77.43Z" transform="translate(-22.32 -30.63)"/><path class="cls-16" d="M98.33,100.17a.59.59,0,0,1-.74.41.63.63,0,0,1-.38-.78.57.57,0,0,1,.73-.41A.62.62,0,0,1,98.33,100.17Z" transform="translate(-22.32 -30.63)"/><path class="cls-16" d="M103.65,99.62a.58.58,0,0,1-.74.41.64.64,0,0,1-.39-.78.59.59,0,0,1,.74-.41A.62.62,0,0,1,103.65,99.62Z" transform="translate(-22.32 -30.63)"/><path class="cls-17" d="M101.69,102.6l-2.1.09a.37.37,0,0,1-.34-.51l.86-2.25a.35.35,0,0,1,.64-.06L102,102A.38.38,0,0,1,101.69,102.6Z" transform="translate(-22.32 -30.63)"/><path class="cls-16" d="M95,97.34c-.58.52.2-1.64,1-2a1.48,1.48,0,0,1,2,.79A4.56,4.56,0,0,0,95,97.34Z" transform="translate(-22.32 -30.63)"/><path class="cls-16" d="M104.75,95.77c.68.38-.51-1.56-1.39-1.7a1.52,1.52,0,0,0-1.8,1.21A4.49,4.49,0,0,1,104.75,95.77Z" transform="translate(-22.32 -30.63)"/></g></g></svg>