<svg xmlns="http://www.w3.org/2000/svg" viewBox="0 0 164.19 377.04"><defs><style>.cls-1{fill:#3b3b58;}.cls-2{fill:#babad3;}.cls-3{fill:#fcc9b9;}.cls-4{fill:#f9b3a0;}.cls-5{fill:#76798c;}.cls-6{fill:#005468;}.cls-7{fill:#004252;}.cls-8{fill:#172f4c;}.cls-9{fill:#fd8496;}.cls-10{fill:#e07585;}.cls-11{fill:#fff;}.cls-12{fill:#e05357;}.cls-13{fill:#b5463c;}.cls-14{fill:#e1d1df;}</style></defs><title>human-9</title><g id="Layer_2" data-name="Layer 2"><path class="cls-1" d="M95.23,307.5c.82,0,6.07.07,7.58,2.59,3.92,6.55,4.41,13.74,4,21.4-.16,3.32-1.77,9.44-4.11,10.08-1.86.51-5.34-5.52-7.63-15.18s-2.78-18.86.12-18.89Z" transform="translate(-18.06 -10.5)"/><path class="cls-2" d="M104.74,339.54a3.81,3.81,0,0,1-2,2c-1.86.51-5.34-5.52-7.63-15.18s-2.78-18.86.12-18.89c.23,0,.81,0,1.55.06.14,6.8,1.18,24,8,32Z" transform="translate(-18.06 -10.5)"/><path class="cls-3" d="M131.9,261.56s25.21,38.93,16.45,45.28c-12.34,8.93-41.92,17.52-41.92,17.52-2.42-1.74-3.62-3.53-5.05-7-.68-1.63-1.95-7.13-1.35-9.26,0,0,24.82-5,20.83-12.85-6.43-12.62-12.59-17-12.59-17Z" transform="translate(-18.06 -10.5)"/><path class="cls-4" d="M117.43,289.21c-5-8-9.16-10.93-9.16-10.93l23.63-16.72s4.77,7.37,9.45,16.22C134.77,281.79,125.37,287,117.43,289.21Z" transform="translate(-18.06 -10.5)"/><path class="cls-3" d="M57.8,283.89s3.72,56.68,17.27,87.45L96,379.83c-2.56.84-14.25-75.89-10.08-96.46Z" transform="translate(-18.06 -10.5)"/><path class="cls-4" d="M59.74,303.84c-1.4-11.8-1.94-19.95-1.94-19.95l28.12-.52a76.14,76.14,0,0,0-.87,15c-7,2.57-17.44,5.77-25.31,5.48Z" transform="translate(-18.06 -10.5)"/><path class="cls-1" d="M96.61,384.92c.74-2.3-1.27-8.86-3.55-11.4-5.92-6.63-13.93-9.6-22.79-9.94-3.84-.14-11.43,1.57-13.08,5-1.3,2.72,4.2,8.64,14.29,13.17S94.87,390.38,96.61,384.92Z" transform="translate(-18.06 -10.5)"/><path class="cls-2" d="M60.59,365.66a22.59,22.59,0,0,1,8.89.5c13.27,2.93,22,9,26.66,13.75a10.26,10.26,0,0,1,.47,5c-1.74,5.46-15,1.36-25.13-3.18s-15.59-10.45-14.29-13.17A7.08,7.08,0,0,1,60.59,365.66Z" transform="translate(-18.06 -10.5)"/><path class="cls-5" d="M58.94,366.63a24.79,24.79,0,0,1,10,.75c14.64,3.55,23.52,10.16,27.68,14.78a6.55,6.55,0,0,1,0,2.76c-1.74,5.46-15,1.36-25.13-3.18s-15.59-10.45-14.29-13.17A5.39,5.39,0,0,1,58.94,366.63Z" transform="translate(-18.06 -10.5)"/><path class="cls-6" d="M54.42,205c-3.29-.8-5.6,84.66-3.37,87.87,2.38,3.43,40.52,2.38,39.53-3.3-1.36-7.78-.88-32.28-.43-32.47,1.14-.5,17.14,26.48,19,27.46,1.34.69,33.87-15,34.46-15.84s-14.84-23-26.05-41.12c-7-11.34-4.5-20.93-6.55-21.36-3.62-.74-17.35-1.9-20.91-2.05C78.59,203.69,54.42,205,54.42,205Z" transform="translate(-18.06 -10.5)"/><path class="cls-7" d="M52.15,218.5c.65-8.26,1.42-13.7,2.27-13.49,0,0,24.17-1.32,35.72-.81,3.56.15,17.29,1.31,20.91,2.05,2,.41-.27,9.28,5.76,20-22.19,2.68-51.33-4.15-64.66-7.78Z" transform="translate(-18.06 -10.5)"/><path class="cls-7" d="M90.57,257.37c.39-.44.92-3,1.16-3.5a37.58,37.58,0,0,1,3.21-5c.56-.79,1.86-2.23,1.86-2.23s0,1,.1,1.44a20.73,20.73,0,0,0,.61,3.12,43.27,43.27,0,0,0,1.32,4.14c.67,1.81,1.4,3.62,2.19,5.39a75.74,75.74,0,0,0,4.54,8.59,49,49,0,0,0,11.08,12.12l.36.23c-4.25,1.87-7.41,3.11-7.81,2.9-1.77-.91-15.81-24.45-18.62-27.2Z" transform="translate(-18.06 -10.5)"/><path class="cls-8" d="M108.86,62.27s-1.93-6.05-3.91-6.37c-1.73-.29-2.06,2.21-2.11,3.37a4.82,4.82,0,0,1,0,1.2c-.17.09-1.2-.64-1.65-.53-.73.17-.81,1.05-1.33,1.23-.78.26-2.93-2.07-3.49-2.47-2.31-1.65-5.71-3.24-8.66-3-2,.18.77,4.36,1.2,5.1.15.27,1,1.37.61,1.72s-1.46.23-2,.36a7.5,7.5,0,0,0-3.66,1.81c-.79.88.27,1.42.2,2.27,0,.54-1,.78-1.2,1.37s.22,1.5-.18,1.83c-.91.73-2.87.81-4,1.19-2.94,1-6.22,2.71-7.45,5.81-1,2.64,2.44,3.18,4.21,3.57.3.07,2.06.21,2.07.7,0,.84-2.25,2.06-2.66,2.85-.86,1.67,1.87,1.67,1.8,2.14-.11.65-1.6,1.74-2,2.23-1.34,1.57-2.9,3.72-3,5.88-.07,1.44,1.19,2.08,2.45,2.22.29,0,1.25-.06,1.41.31.25.62-1.16,2.48-1.42,3-.94,1.88-2.13,4.57-1.39,6.73.81,2.38,3.36,2.29,5.44,2.12.42,0,2-.44,2.32-.08s-.26,1.62-.34,2c-.24,1-1.27,4.32-.31,5.22s3.59-1.15,4.32-1.58a11.92,11.92,0,0,1,1.37-.83c.24.23.12,1.69.15,2,.17,1.44.21,3.46,1.14,4.66,1.12,1.47,3.67-.15,4.71-.94.17-.13.92-1,1.18-.84s.31,1.08.33,1.34c.09.92.37,3.14,1.67,3.27s1.72-3,2.7-2.84c.6.08,1.39,2.79,1.62,3.26,1.19,2.4,2.84,7.18,6,7.53,2,.22,1.63-4.3,1.6-5.34,0-.53,0-1.07,0-1.61,0-.24-.25-1.71,0-1.86,0,0,.7.92.75,1,.47.59,1.55,2,2.5,1.78s.81-2.25.8-3c0-.13-.12-1.18.06-1.22s1.27,1.82,1.42,2c.83,1.1,3.6,5.06,5.44,4,2.31-1.29-.69-5.43.43-7.05.22-.32,1.1,0,1.38.06a3.61,3.61,0,0,0,2.81-.53,4.85,4.85,0,0,0,1.63-2.52c.08-.26.11-1.49.3-1.66s2.47.94,2.82,1c2.16.43,5.75-1.14,6.4-3.37.73-2.48-1.11-5.81-2.55-7.71-.59-.77-1.87-1.62-2.1-2.61-.33-1.46,2.26-3.12,2.66-4.49.19-.66-.21-1-.81-1.14,0,0-.78-.1-.78,0s.68-.28.7-.29a12.88,12.88,0,0,0,1.44-.84c1.2-.78,2.8-2,3-3.55.2-1.27-2.58-1.11-2.44-1.88.65-3.79,5.63-7.15,3.92-11.51-.83-2.11-4.39-.75-5.87-.42-.37.08-1.9.69-2.19.27-.44-.61.18-2.16.33-2.78.4-1.7,1.05-3.67.31-5.37-1-2.24-3,.1-4.06-.82-.4-.35.19-2-.12-2.54-.46-.87-2-.12-2.33-.73s.29-1.52.42-2c.54-1.86,1.88-4.94.51-6.72-2.68-3.5-6.85,1.36-8.51,3.39-.43.53-1,1.76-1.71,2-.37.16-.15-1-.14-1.07.07-.75.32-2.86-.55-3.31C111.12,58,109.43,61.39,108.86,62.27Z" transform="translate(-18.06 -10.5)"/><path class="cls-8" d="M74,89.65c1.09,2.93,3,5.14,6.46,1.43,0,0,6.19,17.46,11,10l24,11.89s4,8.72,8.34-.45a25,25,0,0,0,6,3.34,5.81,5.81,0,0,1-2.88.32c-.35-.07-2.55-1.22-2.82-1s-.22,1.4-.3,1.66a4.85,4.85,0,0,1-1.63,2.52,3.61,3.61,0,0,1-2.81.53c-.28,0-1.16-.38-1.38-.06-1.12,1.62,1.88,5.76-.43,7.05-1.84,1-4.61-2.94-5.44-4-.15-.2-1.13-2.07-1.42-2s-.07,1.09-.06,1.22c0,.7.16,2.7-.8,3s-2-1.19-2.5-1.78c0-.07-.74-1-.75-1-.23.15,0,1.62,0,1.86,0,.54,0,1.08,0,1.61,0,1,.43,5.56-1.6,5.34-3.16-.35-4.81-5.14-6-7.53-.23-.47-1-3.18-1.62-3.26-1-.14-1.49,3-2.7,2.84s-1.58-2.35-1.67-3.27c0-.26,0-1.21-.33-1.34s-1,.71-1.18.84c-1,.79-3.59,2.41-4.71.94-.93-1.2-1-3.22-1.14-4.66,0-.3.09-1.76-.15-2a11.92,11.92,0,0,0-1.37.83c-.73.43-3.43,2.42-4.32,1.58s.07-4.19.31-5.22c.08-.33.65-1.61.34-2s-1.9,0-2.32.08c-2.08.17-4.63.26-5.44-2.12-.74-2.16.45-4.85,1.39-6.73.26-.51,1.67-2.37,1.42-3-.16-.37-1.12-.28-1.41-.31-1.26-.14-2.52-.78-2.45-2.22A9.48,9.48,0,0,1,74,89.65Z" transform="translate(-18.06 -10.5)"/><path class="cls-3" d="M65.6,98S45.22,53.15,43.68,29.83L31.66,37c.08.44,4.08,58.46,21.06,75.82Z" transform="translate(-18.06 -10.5)"/><path class="cls-4" d="M61.72,89c2.3,5.5,3.88,9,3.88,9L52.72,112.86a36.22,36.22,0,0,1-5.8-8.26A32.86,32.86,0,0,0,61.72,89Z" transform="translate(-18.06 -10.5)"/><path class="cls-3" d="M31.26,37.28c1.83,1.44,8.29,2.78,12.61-6.51,1.46-3.14.05-4.6,3.29-9.72.5-.8,1.61-3.2,1-4.14-1.38-2.1-7,4.82-7.06,4.79-.32-.2-3.57-10.83-5.9-11.19-2.68-.41-.44,9.06-.81,9.11s-4.56-8.46-7.55-7.27c-2,.82,2.22,9.61,2,9.8s-7.22-5.41-8.61-3.53,4.33,6.12,5.05,8.05c.06.18-7-2-7.24-.06-.15,1.16,4.7,4,5.43,4.64C26.42,33.74,28.24,34.91,31.26,37.28Z" transform="translate(-18.06 -10.5)"/><path class="cls-3" d="M127.7,174.66s1.36,7.86,5.32,6.61,23.81-13.74,24.41-14.74,8.26,7.77,8.26,7.77S133,208,126,206.54,111.44,194,110.78,184.79,127.7,174.66,127.7,174.66Z" transform="translate(-18.06 -10.5)"/><path class="cls-4" d="M117.34,200.37c-3.52-4.36-6.18-10.29-6.56-15.58-.65-9.18,16.92-10.13,16.92-10.13s.85,4.92,3.17,6.35C125.2,185.5,116.86,193.34,117.34,200.37Z" transform="translate(-18.06 -10.5)"/><path class="cls-3" d="M162.83,176.94c-2.31.32-8.56-1.79-7.59-12,.33-3.44,2.28-4,2.08-10,0-1,.22-3.58,1.23-4.08,2.25-1.12,3.61,7.71,3.67,7.7.37,0,8.56-7.54,10.75-6.67,2.52,1-4.2,8-3.91,8.27s8.21-5,10.19-2.45c1.34,1.74-6.78,7.17-6.7,7.43,0,.1,9-1,9.21,1.31s-6.83,3.09-8.43,4.39c-.14.12,7,1.81,6.28,3.61-.46,1.08-6.09,1.09-7,1.26-3.79.66-6,.75-9.75,1.27Z" transform="translate(-18.06 -10.5)"/><path class="cls-9" d="M63.82,89.85S72.56,100.47,85,113.26c6.85,7.06,31.42,23.6,35.82,32,1.75,3.35,10.06,32.23,10.11,32.86.29,3.6-15.59,7.88-15.59,7.88-1.36-.47-.14,33.82-.09,35,.27,5.53-65.6-5.54-64.1-9.42.3-.78.49-14.37,2.12-30.61,1.62-16,5.94-35,6.26-39.2.21-2.94-13.12-29.67-12.09-30.53,7.24-6,11.86-12.23,16.41-21.38Z" transform="translate(-18.06 -10.5)"/><path class="cls-10" d="M115.2,186.1c0-1.36,0-2.71,0-4.07.08-2.76-.06-5.52,0-8.28.15-4,.66-8.12,1.14-12.13a49,49,0,0,1,1.7-8.41c.27-.9.6-1.78.91-2.66.11-.31.21-.63.3-.94s.19-.66.18-.49c-.1,1.87-.58,3.77-.75,5.65a81.52,81.52,0,0,0-.08,10.94,32.86,32.86,0,0,0,1.49,9.71c.29.81.62,1.74,1.56,1.93.48.1,1.76-.29,2.09.1s0,1.87-.06,2.41a6.93,6.93,0,0,0,.48,3.2,88.79,88.79,0,0,1-8.89,3s-.08,0-.11.06Z" transform="translate(-18.06 -10.5)"/><path class="cls-10" d="M60.8,141.31s14.6-5,23.71-17.41A32.4,32.4,0,0,1,60.8,141.31Z" transform="translate(-18.06 -10.5)"/><path class="cls-10" d="M53.72,176.73c9.51,9.48,36.71,34.37,61.23,35.79.13,4.64.26,8.12.27,8.47.27,5.53-65.6-5.54-64.1-9.42.3-.78.49-14.37,2.12-30.61C53.38,179.57,53.54,178.15,53.72,176.73Z" transform="translate(-18.06 -10.5)"/><path class="cls-11" d="M85.77,114.06c5,4.72,16,12.77,24.54,20.09C105.23,142.28,98,148.76,96,141.51,93.79,134,88.91,121.79,85.77,114.06Z" transform="translate(-18.06 -10.5)"/><path class="cls-3" d="M91.89,108.37c-.46,4.46-.65,5.41-2.36,9.25,0,0,5.37,13.37,9,22.51,1.78,4.55,9.83-7.43,9.83-7.43-2-4.34-2.27-10.67-1.68-15.56Z" transform="translate(-18.06 -10.5)"/><path class="cls-4" d="M90.22,116c1.08-2.62,1.28-3.88,1.67-7.65l14.74,8.77a38.1,38.1,0,0,0,0,8.62C100.28,124.85,94.21,120,90.22,116Z" transform="translate(-18.06 -10.5)"/><path class="cls-3" d="M125,103.14c2.63,1.48,2.88,4.83,1.38,7.5s-4.06,3.85-6.8,2.38a5.25,5.25,0,0,1-2-7.31C119.1,103,122.39,101.67,125,103.14Z" transform="translate(-18.06 -10.5)"/><path class="cls-3" d="M105.76,68.7c11.95,0,19.4,12.27,19.47,25.83s-10.16,23.53-18.83,24c-11.76.58-21.16-10.19-21.22-23.75S93.81,68.76,105.76,68.7Z" transform="translate(-18.06 -10.5)"/><path class="cls-3" d="M84.07,95.42c3.1,0,5,2.63,5.05,5.55s-1.69,5.08-4.89,5.16A5.2,5.2,0,0,1,78.74,101,5.48,5.48,0,0,1,84.07,95.42Z" transform="translate(-18.06 -10.5)"/><path class="cls-8" d="M118.31,90.21c2.13.68,4.23,2.85,3.89,3.3s-1.75-1.71-3.88-2.39-4.58,1.47-4.41.94S116.18,89.53,118.31,90.21Z" transform="translate(-18.06 -10.5)"/><path class="cls-8" d="M100.55,85.09c-2.24-.07-4.07,1.59-3.89,2.13s1.71-1.31,3.94-1.24,4.34,3.2,4.36,2.64S102.78,85.16,100.55,85.09Z" transform="translate(-18.06 -10.5)"/><path class="cls-8" d="M102.22,111.25c-3.68-2.17-4.41-5.73-3.17-8.07.23-.44,4.34.83,6.3,1.29s6.13,1.91,6,2.38C110.7,108.74,107,114.05,102.22,111.25Z" transform="translate(-18.06 -10.5)"/><path class="cls-12" d="M98.82,107.35c.34,0,.68,0,1,0a10.74,10.74,0,0,1,7.08,2.84,9.25,9.25,0,0,1,.89,1,5.08,5.08,0,0,1-5.6.09A7.47,7.47,0,0,1,98.82,107.35Z" transform="translate(-18.06 -10.5)"/><path class="cls-13" d="M106,99c.36-2.19,2-3.74,3.34-3.34,1.61.48,2.47,4.9.71,5.91C107.13,103.24,105.79,100.12,106,99Z" transform="translate(-18.06 -10.5)"/><path class="cls-8" d="M116.84,95.66c.68.23.94,1.31.57,2.42s-1.22,1.81-1.9,1.58-1-1.31-.58-2.41S116.15,95.44,116.84,95.66Z" transform="translate(-18.06 -10.5)"/><path class="cls-8" d="M101,91.7c.72,0,1.25,1,1.19,2.18s-.71,2.07-1.43,2-1.26-1-1.19-2.18S100.26,91.66,101,91.7Z" transform="translate(-18.06 -10.5)"/><path class="cls-4" d="M85.24,96.46c0-.57-.06-1.15-.06-1.73-.07-13.57,8.63-26,20.58-26,11.54,0,18.89,11.44,19.44,24.45-2.55-.53-2.54-3.67-2.54-3.67-1,2.34-2.71-1.87-2.71-1.87,1,8.21-6.73-4.46-6.73-4.46.79,7.16-6.24-2.38-6.24-2.38-.44,7.34-7-1.38-7-1.38-9.89,13.87-6.31,4.39-7.72,5.72s-5.83,12.83-5.83,12.83Z" transform="translate(-18.06 -10.5)"/><path class="cls-8" d="M86.25,100.44c.37-.62.79-4.91,2-8.55A52.84,52.84,0,0,1,94,79.33s-.84,3.08-.93,3.82c0,.27-.29,1.76.35,1.68S94.62,84,95,83.54A57.67,57.67,0,0,0,99,78c.19-.28,1.44-2.74,1.89-2.75a10.77,10.77,0,0,1,.5,1.83c.3,1.21.87,3.73,2.36,4.1s1.93-3.69,3.09-3.28c.5.18.58,1.4.72,1.8.42,1.19,2,3.48,3.46,3.3.87-.11,1.32-1.31,1.5-2.05.09-.36-.15-1.3.17-1.11.51.29.75,1.55,1,2.05a16.74,16.74,0,0,0,3.1,5c.32.33,1,1.21,1.47,1.25.26,0,.43-1.57.45-1.74.2-1.48,0-3.84.67-5.21.07-.14.56,3.69.9,4.7.24.68.92,1.68,1.77,1.55.2,0,1.36-.77,1.51-.56.6.88,0,2.76.15,3.81.22,1.33,1.5,1.67,1.82,2.59.48,1.35-.12,3.7-.39,5a20.83,20.83,0,0,1-1.09,4.19,5.52,5.52,0,0,0-.39,1.31s.63-.71.66-.75l.94-1.43c1-1.58,1.3-4,1.72-5.77,1.42-6.2,1.27-14.32-1.8-20-4.19-7.76-16.06-11.56-24.35-8.88-4.47,1.44-9.11,4-11.48,8.06-8.62,14.94-3,25.36-3,25.36Z" transform="translate(-18.06 -10.5)"/><path class="cls-11" d="M111,101.05h0" transform="translate(-18.06 -10.5)"/><path class="cls-14" d="M182.25,219.78l-.1.05" transform="translate(-18.06 -10.5)"/></g></svg>