<svg id="Layer_1" data-name="Layer 1" xmlns="http://www.w3.org/2000/svg" viewBox="0 0 144.56 326.96"><defs><style>.cls-1{fill:#fcc9b9;}.cls-2{fill:#f9b3a0;}.cls-3{fill:#ec9a6f;}.cls-4{fill:#005468;}.cls-5{fill:#fd8496;}.cls-6{fill:#e07585;}.cls-7{fill:#9ecbb4;}.cls-8{fill:#629482;}.cls-9{fill:#c7dcd3;}.cls-10{fill:#172f4c;}.cls-11{fill:#fff;}</style></defs><title>human-13</title><path class="cls-1" d="M40.85,302.9S62.14,368,74.8,359.19s31.49-67.26,31.49-67.26l-12.43-3.17-18,32.6-5-27.93-30,9.47Z" transform="translate(-28.96 -33.04)"/><path class="cls-2" d="M77.29,318.79l16.57-30,12.43,3.17s-12.38,38.43-23.81,57.66C83.84,336.41,79.11,323.26,77.29,318.79Z" transform="translate(-28.96 -33.04)"/><path class="cls-2" d="M69.54,293.84c.52.53,1.11,1.16,1.72,1.87L74.91,316c-6.66,1.76-22.32-2.29-31.2-4.91-1.79-5-2.86-8.2-2.86-8.2l28.69-9.06Z" transform="translate(-28.96 -33.04)"/><path class="cls-1" d="M82.94,307.79s33.72,49.2,45.92,38.27,15.33-69.18,15.33-69.18l-10.39-5.65-9.7,36.61-15.69-19.78L82.94,307.79Z" transform="translate(-28.96 -33.04)"/><path class="cls-2" d="M116.93,298.8c-7.26,6-22.23,12.38-29.46,15.26-2.8-3.76-4.52-6.27-4.52-6.27l25.46-19.73Z" transform="translate(-28.96 -33.04)"/><path class="cls-3" d="M131.55,268.06c1.85-6,4.17-7.93,9-6.11,9.88,3.7,37.48,23.83,32.29,27-5.86,3.53-15.59,1-24.27-2.78C137.14,281.07,129.55,274.53,131.55,268.06Z" transform="translate(-28.96 -33.04)"/><path class="cls-1" d="M132.29,266q-.39,1-.75,2.1c-2,6.47,5.6,13,17.07,18.07,5.46,2.41,11.34,4.29,16.41,4.46-2.25-9.15-24.12-20.5-32.73-24.63Z" transform="translate(-28.96 -33.04)"/><path class="cls-4" d="M165,290.59a14.05,14.05,0,0,0,7.85-1.68c5.19-3.13-22.4-23.26-32.29-27-4.24-1.59-6.55-.29-8.29,4,8.61,4.13,30.49,15.48,32.73,24.63Z" transform="translate(-28.96 -33.04)"/><path class="cls-5" d="M36.15,250.77s-9.28,44.36-1.46,53.77c3.93,4.73,34.26,13,42.08,7l.44-5.44,6.58,5.77s34.74-10.19,35-24.18c.23-10.51-21.45-20.27-25.45-28.56s-57.23-8.36-57.23-8.36Z" transform="translate(-28.96 -33.04)"/><path class="cls-6" d="M34.68,258.65c.82-4.76,1.47-7.88,1.47-7.88s53.24.06,57.23,8.36c1,2.11,3.19,4.32,5.84,6.61-17.28,11.59-49.14-.18-64.54-7.09Z" transform="translate(-28.96 -33.04)"/><path class="cls-6" d="M61,287.61a30.54,30.54,0,0,0,4.74,11.07.59.59,0,0,1-.16.85.67.67,0,0,1-.9-.16c-4.34-6-6-14.38-6.33-22.31A102.57,102.57,0,0,1,60,254.51a.64.64,0,0,1,.76-.48.61.61,0,0,1,.5.72A100.68,100.68,0,0,0,59.6,277a61,61,0,0,0,1.11,9.4c1.64-.17,3.41-1.17,4.59-4.84s3.31-25.49,3.31-25.49a.64.64,0,0,1,.7-.55.63.63,0,0,1,.58.67s-2.21,22.13-3.36,25.72a9,9,0,0,1-2.87,4.62A5.32,5.32,0,0,1,61,287.61Z" transform="translate(-28.96 -33.04)"/><path class="cls-6" d="M76.16,312c-1.12-3.25-2.24-4.66-6.64-8-3.6-2.76-17.85-9-11.32-7.61,7.11,1.55,12.35,2.27,13,2.65s6,7.17,6,7.17v0l-.07-.07-.44,5.44a5.47,5.47,0,0,1-.61.42Z" transform="translate(-28.96 -33.04)"/><path class="cls-7" d="M87.24,178.29s-20.71-51.66,2.59-99c0,0,7.84-9.86,1.61-15.71-4.65-4.36-18.43-9.69-25.15.66C57.33,78,42.44,120,46.14,180c0,0-30.15,62.68-10.56,74.75,11.87,7.31,50.54,15.18,56.21,8.1,0,0,12.6,7.34,25.9-12.48,14.17-21.12,16.41-21.18,18.91-25.92s-5.65-16.51-12.48-17.56c-5.68-.87-14.31,10.7-14.31,10.7s8.48-18.5.62-26.5c-12.58-12.81-23.19-12.75-23.19-12.75Z" transform="translate(-28.96 -33.04)"/><path class="cls-8" d="M68.24,160.45s-15.43,8.82-19.77,16.87C48.47,177.32,51.14,166.59,68.24,160.45Z" transform="translate(-28.96 -33.04)"/><path class="cls-9" d="M128.55,207.33s-6.63.74-6.41,3.57c.43,5.35,9.53,14,11.46,12.85,3.63-2.08,4.9-6.48,4.9-6.48l-9.95-9.94Z" transform="translate(-28.96 -33.04)"/><path class="cls-9" d="M77.24,55.56s-5.19,4-3.41,6.27c3.36,4.3,16,7,16.9,5s1-6.07,1-6.07Z" transform="translate(-28.96 -33.04)"/><path class="cls-8" d="M91.48,263.14l-.24,0c-25.51-8.5-1.32-51.42-1.32-51.42a113.33,113.33,0,0,0-8,30.75c-1.31,11.6,7.33,18.44,9.92,20.37-.1.12-.2.23-.31.34Z" transform="translate(-28.96 -33.04)"/><path class="cls-8" d="M110.51,215.86c-.35.9-.61,1.49-.69,1.67-2.3,2.47-9.93,10.79-10.9,13-1.13,2.57-3.75-.23-2.26,7.88,0,0-5.47-6,0-8.48,0,0,8.42-9.69,13.89-14Z" transform="translate(-28.96 -33.04)"/><path class="cls-1" d="M79.2,60c2.34,2.1,6.85,4.24,10,2.85C93.28,61,101,51.24,103.63,49.19c.8-.64,2.93-2.52,2.67-3.66-.58-2.58-9.75,3-9.79,2.92-.24-.32,1.22-12.83-1-14.06C92.88,33,91.43,43.07,91,43S89.68,33,86.13,33c-2.43,0-1.52,10.22-1.81,10.33-.1,0-5.29-8-7.47-6.69s2,7.61,2,9.76c0,.2-6.41-4.58-7.44-2.78-.61,1.08,3.25,5.7,3.76,6.58C77.22,53.76,76.86,57.86,79.2,60Z" transform="translate(-28.96 -33.04)"/><path class="cls-1" d="M128.87,209.24c-.34-1.3-.32-3.56.88-8.38a8.24,8.24,0,0,1,3.81-5.58c3.14-2,5,1.55,5.48,1.44s6-5.28,10.19-.59a2.17,2.17,0,0,1,.14,3.17,4.36,4.36,0,0,1,3.92,2c1.3,2.2-.78,4.41-.78,4.41a2.23,2.23,0,0,1,1.25,3,3.79,3.79,0,0,1-2.15,2.36s1.78.13,1.14,2.57-1.44,2.82-4.8,3.67c-3.08.77-9.33,1.38-12,.29-4.66-1.91-6.16-4.81-7.08-8.38Z" transform="translate(-28.96 -33.04)"/><path class="cls-2" d="M142.42,201.77a26.72,26.72,0,0,0-3.08-5.22,1.26,1.26,0,0,1-.3.17.25.25,0,0,1-.17-.05c.35.53.77,1.17.94,1.47.32.54.64,1.09.92,1.65s.48.94.69,1.43c.65,1.5,1.4,3.25.36,4.75a1.69,1.69,0,0,1-1.66.81,3.88,3.88,0,0,1-1.57-.59,27.13,27.13,0,0,1-3.24-2.5,13.67,13.67,0,0,1-1-1,12.22,12.22,0,0,0,1.22,1.61,17.7,17.7,0,0,0,2.36,2.15c0,.14,0,.25,0,.29a5.91,5.91,0,0,1-.51,3.15c-.14.31-.54,1.1-.41.94a8.35,8.35,0,0,0,1.7-3.08,3.43,3.43,0,0,0,.08-.74,2.88,2.88,0,0,0,2.75.19,2,2,0,0,0,.39.38,2.45,2.45,0,0,0,.38.24c0,.11-.06.26-.12.41a4.61,4.61,0,0,0-.15.53,2.55,2.55,0,0,0,1.37,2.53,5.79,5.79,0,0,0-.75,1.23,4.54,4.54,0,0,0-.49,1.51c-.08.89.76,1.56,1.54,1.88a8.72,8.72,0,0,0,5,.31h-1.1c-1.35,0-3.36-.2-4.29-1.31-.66-.79-.26-2.11.23-2.89a3.16,3.16,0,0,1,.38-.44,4.11,4.11,0,0,0,.46.15,16.27,16.27,0,0,0,8-.32,1.52,1.52,0,0,0-.72-.33,7.76,7.76,0,0,1-1.19.2c-2.1.26-4.75.63-6.62-.52a2.69,2.69,0,0,1-1.21-1.31,2.4,2.4,0,0,1,.05-1.16s.06-.16.1-.27a7.48,7.48,0,0,0,1.89.24,17.92,17.92,0,0,0,5.18-1A12.35,12.35,0,0,0,153,206a2.09,2.09,0,0,0-.46-.24l.06-.06-.15.07a19,19,0,0,1-2.44.85,24.1,24.1,0,0,1-5.27,1,4.17,4.17,0,0,1-2.32-.26,1.52,1.52,0,0,1-.46-.45.48.48,0,0,0,.11-.09c1.23-1.09,1.17-2.51.77-4l-.09-.3a11,11,0,0,1,1.22-.72c1.3-.7,2.65-1.42,4-2l1.49-.65a2.32,2.32,0,0,0,.46-.81,23.37,23.37,0,0,0-3.16,1.26c-.73.34-1.44.72-2.16,1.09-.56.29-1.15.56-1.74.81l-.42.19Z" transform="translate(-28.96 -33.04)"/><path class="cls-2" d="M80.92,159.21a126.26,126.26,0,0,0,6.32,19.08s5.86,0,14,5.21c-2.28,1.69-5.12,3.84-8.5,6.49-2.47,1.94-9.93,9-21.7,4.32-11.22-4.52-9.78-17.66,4.61-31.95a11.65,11.65,0,0,1,5.23-3.15Z" transform="translate(-28.96 -33.04)"/><path class="cls-1" d="M83.79,169.08c1.91,5.8,3.45,9.21,3.45,9.21s5.86,0,14,5.21c-2.28,1.69-5.12,3.84-8.5,6.49-2.11,1.65-7.84,7.06-16.78,5.69-13.79-13-.89-22.52,7.79-26.6Z" transform="translate(-28.96 -33.04)"/><path class="cls-1" d="M95.53,173.38s-6.13,3.27-4.34,7.55c2.1,5-21.53,6.37-19.22-.85.86-2.69,4-4.7,7.19-12.83C82.05,159.81,95.53,173.38,95.53,173.38Z" transform="translate(-28.96 -33.04)"/><path class="cls-2" d="M75.91,173.88a41,41,0,0,0,3.25-6.63c2.89-7.44,16.37,6.13,16.37,6.13s-4.06,2.17-4.61,5.28c-6.63,0-12.3-3-15-4.78Z" transform="translate(-28.96 -33.04)"/><path class="cls-10" d="M73.13,149.54a15.51,15.51,0,0,1-6,6.36c-3.15,2-6,4.32-7,6.51s6.57-.31,10,2.73,8.6,4,11.65,2.63S85,159.23,85,159.23Z" transform="translate(-28.96 -33.04)"/><path class="cls-1" d="M79.87,142.2a6.63,6.63,0,0,1,1.82,9.49,7.4,7.4,0,0,1-9.91,2A6.62,6.62,0,0,1,70,144.24,7.39,7.39,0,0,1,79.87,142.2Z" transform="translate(-28.96 -33.04)"/><path class="cls-1" d="M117.73,125.2c12.47,7.31,13.61,25.55,4.62,39.44s-31.62,16.17-42.55,8.07c-8.52-6.31-11.75-18.08-2.76-32S105.26,117.89,117.73,125.2Z" transform="translate(-28.96 -33.04)"/><path class="cls-2" d="M78.43,138.74c9.46-12.74,27.44-20.49,39.3-13.54,12.47,7.31,13.61,25.55,4.62,39.44-4.81,7.43-13.5,11.53-22.22,12.51,2.21-3.78,10.68-18.49,10.7-21.76,0,0-11.87-16.41-9.77-24.29,0,0-13.94,1.51-22.63,7.64Z" transform="translate(-28.96 -33.04)"/><path class="cls-10" d="M102.23,128.19s2.2,16.13,11,25.43c0,0-8.35,20.44-20.59,26.61,0,0,11.31,2.51,15.22,1.37,5.68-1.67,6,2.53,9.82,2.65,4.67.15,36.28-41.68,3.31-60.24-33.67-19-41.07-1.06-44,7-2.53,6.85-.36,10.7-.36,10.7S86.55,127.35,102.23,128.19Z" transform="translate(-28.96 -33.04)"/><path class="cls-10" d="M135.8,149c-.54,17.54-15.08,35.35-18.13,35.25-3.83-.12-4.14-4.32-9.82-2.65-3.91,1.14-15.22-1.37-15.22-1.37,12.25-6.17,20.59-26.61,20.59-26.61a34.59,34.59,0,0,1-5.46-8A148.71,148.71,0,0,0,135.8,149ZM76.26,133.2c1.73,1.1,3.5,2.14,5.31,3.1a34.42,34.42,0,0,0-5,5.43S74.87,138.69,76.26,133.2Z" transform="translate(-28.96 -33.04)"/><path class="cls-10" d="M97.37,146s10.12-5.21,6.86,5.83C104.23,151.79,105.38,144.68,97.37,146Z" transform="translate(-28.96 -33.04)"/><path class="cls-10" d="M79.91,140.31s8.9-8.94,8.76,2.69C88.67,143,86.51,135.94,79.91,140.31Z" transform="translate(-28.96 -33.04)"/><path class="cls-10" d="M83.48,158.46c1.71.24,8.47,1,10.7,1.54s-.67,8.76-6.65,8.18C81.94,167.65,81.23,158.14,83.48,158.46Z" transform="translate(-28.96 -33.04)"/><path class="cls-11" d="M82.73,158.83a.73.73,0,0,1,.75-.37c1.71.24,8.47,1,10.7,1.54a1.06,1.06,0,0,1,.74,1c-1.1.94-3.08,1.09-7.25.54C84.43,161.14,83.19,159.88,82.73,158.83Z" transform="translate(-28.96 -33.04)"/><path class="cls-10" d="M85.46,146.59S83,140.1,78.8,146C80.8,144.81,83,144.78,85.46,146.59Z" transform="translate(-28.96 -33.04)"/><path class="cls-10" d="M100.23,155.93s1.78-7.68-6.55-4.69A7,7,0,0,1,100.23,155.93Z" transform="translate(-28.96 -33.04)"/></svg>