<svg xmlns="http://www.w3.org/2000/svg" viewBox="0 0 439.11 438.11"><defs><style>.cls-1{fill:#162f4c;}.cls-2{fill:#f9b39a;}.cls-3{fill:#febf50;}.cls-4{fill:#229dc3;}.cls-5{fill:#035468;}.cls-6{fill:#f58d80;}.cls-7{fill:#f38397;}.cls-8{fill:#f8a592;}.cls-9{fill:#fff;}.cls-10{fill:#17304d;}.cls-11{fill:#eb826e;}.cls-12{fill:#e07585;}</style></defs><title>kid</title><g id="Layer_2" data-name="Layer 2"><path class="cls-1" d="M220.29,76.86c28.18,1.62,99.56,34.36,107.4,42.78,26.51,28.51,15.4,36.88,20.56,59.19S317.78,215.59,291,212.94s-31.57-24.8-39.72-34c-6.55-7.37-15.43-19.7-21.57-27.13-9,2.56-19.89,2.55-32-3-16.39-7.47-20.44-21.73-20.6-33.57C176.86,94.83,196,75.46,220.29,76.86Z" transform="translate(-34.11 -40.45)"/><path class="cls-2" d="M246,442.37s-1.56,11.56-1.56,13.52v2l1.12,2,.44.79-8,9.7-32.82.41c-.71,0,4.3-6.71,4.3-6.71s10.62-6.91,12.53-11.76-1.62-15-1.62-15Z" transform="translate(-34.11 -40.45)"/><path class="cls-2" d="M400.68,373.2s11.43,6.13,13.2,7.35l1.78,1.22,1.12,2,.44.79,13.76.61s20.33-21.49,20.77-22-5.85.73-5.85.73-12.83,1.5-18.41-.23-16.87-11.33-16.87-11.33Z" transform="translate(-34.11 -40.45)"/><path class="cls-2" d="M296.78,264.74l123.15,94.78L407.3,376.8S280.11,313,273.49,312.23s-17,1.24-18.28,5.42-10.4,133.79-10.4,133.79L222.46,450l-22.39-162.3Z" transform="translate(-34.11 -40.45)"/><path class="cls-3" d="M251.79,477.44c4.9-.54-3.56-15.24-6.28-17.59L209.43,464s-17.36,7-21.48,10.53c-1,.85-1.1,2.33,3.13,2.87C204.7,479.19,240.92,478.63,251.79,477.44Z" transform="translate(-34.11 -40.45)"/><path class="cls-4" d="M429.15,399.2c-4.23,2.2-11.93-12.12-12.37-15.43l29.12-19.84s22.48-5.58,27-1.65C477,365.84,438.77,394.2,429.15,399.2Z" transform="translate(-34.11 -40.45)"/><path class="cls-5" d="M296.78,264.74l42.94,31.63c-6.7,8-17,19.86-30,33.54-19-9.9-34-17.43-36.19-17.68-6.63-.78-17,1.24-18.28,5.42-.43,1.44-1.16,16.89-1.94,36.6a250.5,250.5,0,0,1-46.57-5.53l-6.63-61Z" transform="translate(-34.11 -40.45)"/><path class="cls-2" d="M119.36,135.34c-9.11-5.17-30.52-25-37.77-31.79-.07-.8-.77-5.4-6.59-11.23-4.12-4.13-7.24-13.54-9.94-10.87s4,10.14.93,10.19S47.69,76.88,45.25,79.3s13,15.58,10.27,15.62-15.3-13.28-18.76-9.86,16.45,14.49,14.6,16.33-14.2-5.43-17-2.68,17.4,9.23,15.79,9.25-13.27-.24-13.36,1.7c-.09,2.19,29.48,5.6,33.1,9.4h0c7.72,10.64,21.48,30.08,35.41,38.6,17,10.44,56.42,32.57,56.42,32.57l19.56-21.86S130.16,141.47,119.36,135.34Z" transform="translate(-34.11 -40.45)"/><path class="cls-6" d="M66,96.34a9.64,9.64,0,0,0,2.66,12.39C66.89,105.9,65,102.76,66,96.34Z" transform="translate(-34.11 -40.45)"/><path class="cls-2" d="M299.9,111.43c7.23-7.05,21.88-31.07,26.83-39.24-.16-.78-.88-5.37,3-12.33,2.73-4.91,2.89-14.7,6.31-12.73s-.8,10.69,2.18,10,13.2-18.38,16.29-16.6-7.86,18-5.19,17.41,10.75-16.29,15.12-13.77-11.5,17.71-9.15,19.06,12.06-8.45,15.58-6.43-14,12.85-12.44,12.51S371.13,66.11,371.8,68c.76,2.1-26.75,12.08-29.09,16.57h0c-4.24,12-11.63,33.88-22.5,45.26-13.29,13.93-44.61,44.2-44.61,44.2L250.1,157.32S291.32,119.78,299.9,111.43Z" transform="translate(-34.11 -40.45)"/><path class="cls-6" d="M339.62,61.71a10.27,10.27,0,0,1,2.39,3.7,9,9,0,0,1-1.21,8.86C341.64,71.14,342.56,67.67,339.62,61.71Z" transform="translate(-34.11 -40.45)"/><path class="cls-7" d="M279.24,127.57l23,25.94-28.54,36.72s2.69,27.29,6.8,35.8,27.93,43.51,27.93,43.51S250.6,300.19,194,295.7c0,0-15.93-70.91-20.41-77.72S126,177.42,126,177.42L147,148.15l36.16,17.35s66.09-9.24,69.27-12S279.24,127.57,279.24,127.57Z" transform="translate(-34.11 -40.45)"/><path class="cls-2" d="M195.64,124.38c1.82,4.37.51,8.78-2.91,9.84s-7.66-1.63-9.47-6-.51-8.78,2.91-9.84S193.83,120,195.64,124.38Z" transform="translate(-34.11 -40.45)"/><path class="cls-2" d="M255.83,113.63c.26,4.65-2.48,8.53-6.11,8.68s-6.77-3.5-7-8.14,2.48-8.53,6.11-8.68S255.58,109,255.83,113.63Z" transform="translate(-34.11 -40.45)"/><path class="cls-8" d="M230.31,144.39c0,.3,2.9,11.08,4.44,16.78a4.44,4.44,0,0,1-3,5.2c-6.13,2.43-18.2,5.81-26.53-.73a2.85,2.85,0,0,1-1.14-2.34l1-25.72Z" transform="translate(-34.11 -40.45)"/><path class="cls-1" d="M231.87,150.42c-6.5,2.83-14.66,2.89-23.82-1.75-1.16-.59-2.25-1.22-3.28-1.88l.36-9.21,25.18,6.81C230.31,144.54,231,147.13,231.87,150.42Z" transform="translate(-34.11 -40.45)"/><path class="cls-2" d="M212.46,85s-11,2.52-17.45,11.76-10,36,13,47.68,39.83-6.42,39.4-23.55S238.21,81.86,212.46,85Z" transform="translate(-34.11 -40.45)"/><path class="cls-1" d="M197.84,86.13s15.47,19.81,31,18.55,16.36,2.37,16.36,2.37.28-19.09-13.86-22.23S197.84,86.13,197.84,86.13Z" transform="translate(-34.11 -40.45)"/><path class="cls-9" d="M221.55,139.41h0a10.9,10.9,0,0,1-12-10.59l0-.87,23.35-1.84,0,.87A12.36,12.36,0,0,1,221.55,139.41Z" transform="translate(-34.11 -40.45)"/><path class="cls-10" d="M212.24,114.43a1.71,1.71,0,0,1,1.26,2.18,1.93,1.93,0,0,1-2.39,1.15" transform="translate(-34.11 -40.45)"/><path class="cls-10" d="M227,114.05a2,2,0,0,1,2.39-1.15,1.72,1.72,0,0,1,1.26,2.18" transform="translate(-34.11 -40.45)"/><path class="cls-11" d="M224.35,123.44l-6.78.27a1.06,1.06,0,0,1-1.11-1.44l2.79-6.33a1.2,1.2,0,0,1,2.05-.15l4,6.06A1,1,0,0,1,224.35,123.44Z" transform="translate(-34.11 -40.45)"/><path class="cls-10" d="M202.77,108.67c-1.9,1.47.64-4.6,3.34-5.51s5.58.09,6.44,2.22A16.29,16.29,0,0,0,202.77,108.67Z" transform="translate(-34.11 -40.45)"/><path class="cls-10" d="M234.24,104.26c2.19,1.07-1.66-4.38-4.51-4.76s-5.45,1.15-5.8,3.4A16.58,16.58,0,0,1,234.24,104.26Z" transform="translate(-34.11 -40.45)"/><path class="cls-12" d="M269,186.78l4.46,97.12s24.3-7.93,33.95-14.56Z" transform="translate(-34.11 -40.45)"/></g></svg>