<svg xmlns="http://www.w3.org/2000/svg" viewBox="0 0 157.71 198.11"><defs><style>.cls-1,.cls-2,.cls-3{fill:#ededed;}.cls-2,.cls-3{stroke:#d2d2d1;stroke-linecap:round;stroke-linejoin:round;}.cls-3{stroke-width:0.78px;}</style></defs><title>leaf</title><g id="Layer_2" data-name="Layer 2"><path class="cls-1" d="M167.84,135.43c-7.53-8.91-17.07-16.61-20.08-27.85-2.2-8.22-.47-16.92.39-25.4s.56-17.85-4.79-24.37C139,52.43,132,50.1,125.29,48.62s-13.68-2.41-19.62-5.9C96,37.05,97.94,27.4,92.76,18.94,87,9.44,73.42-2.67,61.83,3.63c-12.27,6.68-10.33,27-2.16,35.91C65.08,45.48,72,51.18,72.82,59.27,74,71.45,60.4,82.42,64.15,94c2.76,8.59,13.32,11.54,18.53,18.83s4.12,17.33,1.08,25.71-7.81,16.14-9.7,24.88c-3.87,17.87,9.81,30.22,25.39,34.2,14.32,3.66,45.2,1.93,45.2,1.93,11-4,23.24-13.88,29.3-24.72a32.14,32.14,0,0,0,1.66-27.3A45.39,45.39,0,0,0,167.84,135.43Z" transform="translate(-20.18 -1.89)"/><path class="cls-2" d="M75.55,22.91s52.73,83.5,58.47,176.22" transform="translate(-20.18 -1.89)"/><path class="cls-1" d="M28.59,135.54a5.42,5.42,0,0,1,3.51-1.15h.34c4.91,0,9.82,3.2,14.6,9.51a77.06,77.06,0,0,1,9.36,16.31,33.15,33.15,0,0,0-5.9-4.82,87.2,87.2,0,0,0-9.63-5.1c-2.51-1.2-5.1-2.43-7.54-3.84-2-1.14-4.15-2.6-5.31-4.73C27,139.83,26.92,137,28.59,135.54Z" transform="translate(-20.18 -1.89)"/><path class="cls-1" d="M20.48,170.9a5.54,5.54,0,0,1,2.69-2.58l.31-.15c4.43-2.16,10.2-1.42,17.16,2.19A74.43,74.43,0,0,1,55.91,181a31.5,31.5,0,0,0-7.35-1.77,85.58,85.58,0,0,0-10.83-.39c-2.76,0-5.63,0-8.41-.16-2.27-.17-4.84-.53-6.78-2C20.82,175.48,19.58,173,20.48,170.9Z" transform="translate(-20.18 -1.89)"/><path class="cls-1" d="M31.78,192.05a4,4,0,0,1,.16-2.57l.08-.23c1.22-3.2,4.43-5.61,9.54-7.16a50.1,50.1,0,0,1,12.46-2,22.28,22.28,0,0,0-4.46,2.65,59.14,59.14,0,0,0-5.57,5c-1.37,1.34-2.78,2.72-4.26,4A8.88,8.88,0,0,1,35.47,194,3.39,3.39,0,0,1,31.78,192.05Z" transform="translate(-20.18 -1.89)"/><path class="cls-3" d="M72.25,199.59s-.15-33.13-39.62-61.27" transform="translate(-20.18 -1.89)"/><path class="cls-3" d="M72.25,199.59S60.13,173,27.29,173" transform="translate(-20.18 -1.89)"/><path class="cls-3" d="M54.38,180.38s-6.36-.48-19.65,9.8" transform="translate(-20.18 -1.89)"/></g></svg>