<svg xmlns="http://www.w3.org/2000/svg" viewBox="0 0 100.97 111.57"><defs><style>.cls-1{fill:#5a6db3;}.cls-2{fill:#adb5dc;}</style></defs><title>logo</title><g id="Layer_2" data-name="Layer 2"><path class="cls-1" d="M100,87.35l17.77,17.77L100,122.9,82.23,105.12ZM123.4,76.8H109.2V91h14.2ZM111.31,63.27v10h10v-10Zm15.54-11.82H121v5.83h5.83Zm10.43,2.91h4v-4h-4Zm-6-10.32V47h2.9V44Zm8,27.36h6.28V65.12h-6.28Zm-1.65,5.4H125.77V88.66h11.86Zm-10.25-6.52H136V61.63h-8.65Z" transform="translate(-49.52 -44.04)"/><polygon class="cls-2" points="87.39 47.51 76.26 47.51 76.26 51.57 85.76 61.08 50.48 96.36 15.2 61.08 50.48 25.8 55.53 30.85 55.53 30.79 58.85 30.79 58.85 18.96 50.48 10.6 0 61.08 50.48 111.57 100.97 61.08 87.39 47.51"/></g></svg>